<?xml version="1.0" encoding="utf-8"?>
<svg xmlns="http://www.w3.org/2000/svg" xmlns:xlink="http://www.w3.org/1999/xlink" width="600" height="400" viewBox="0 0 2400 1600">
<defs>
  <clipPath id="clip430">
    <rect x="0" y="0" width="2400" height="1600"/>
  </clipPath>
</defs>
<path clip-path="url(#clip430)" d="M0 1600 L2400 1600 L2400 0 L0 0  Z" fill="#ffffff" fill-rule="evenodd" fill-opacity="1"/>
<defs>
  <clipPath id="clip431">
    <rect x="480" y="0" width="1681" height="1600"/>
  </clipPath>
</defs>
<path clip-path="url(#clip430)" d="M203.964 1423.18 L2352.76 1423.18 L2352.76 123.472 L203.964 123.472  Z" fill="#ffffff" fill-rule="evenodd" fill-opacity="1"/>
<defs>
  <clipPath id="clip432">
    <rect x="203" y="123" width="2150" height="1301"/>
  </clipPath>
</defs>
<polyline clip-path="url(#clip432)" style="stroke:#000000; stroke-linecap:round; stroke-linejoin:round; stroke-width:2; stroke-opacity:0.1; fill:none" points="747.133,1423.18 747.133,123.472 "/>
<polyline clip-path="url(#clip432)" style="stroke:#000000; stroke-linecap:round; stroke-linejoin:round; stroke-width:2; stroke-opacity:0.1; fill:none" points="1809.59,1423.18 1809.59,123.472 "/>
<polyline clip-path="url(#clip432)" style="stroke:#000000; stroke-linecap:round; stroke-linejoin:round; stroke-width:2; stroke-opacity:0.1; fill:none" points="203.964,1423.18 2352.76,1423.18 "/>
<polyline clip-path="url(#clip432)" style="stroke:#000000; stroke-linecap:round; stroke-linejoin:round; stroke-width:2; stroke-opacity:0.1; fill:none" points="203.964,1098.25 2352.76,1098.25 "/>
<polyline clip-path="url(#clip432)" style="stroke:#000000; stroke-linecap:round; stroke-linejoin:round; stroke-width:2; stroke-opacity:0.1; fill:none" points="203.964,773.326 2352.76,773.326 "/>
<polyline clip-path="url(#clip432)" style="stroke:#000000; stroke-linecap:round; stroke-linejoin:round; stroke-width:2; stroke-opacity:0.1; fill:none" points="203.964,448.399 2352.76,448.399 "/>
<polyline clip-path="url(#clip432)" style="stroke:#000000; stroke-linecap:round; stroke-linejoin:round; stroke-width:2; stroke-opacity:0.1; fill:none" points="203.964,123.472 2352.76,123.472 "/>
<polyline clip-path="url(#clip430)" style="stroke:#000000; stroke-linecap:round; stroke-linejoin:round; stroke-width:4; stroke-opacity:1; fill:none" points="203.964,1423.18 2352.76,1423.18 "/>
<polyline clip-path="url(#clip430)" style="stroke:#000000; stroke-linecap:round; stroke-linejoin:round; stroke-width:4; stroke-opacity:1; fill:none" points="747.133,1423.18 747.133,1404.28 "/>
<polyline clip-path="url(#clip430)" style="stroke:#000000; stroke-linecap:round; stroke-linejoin:round; stroke-width:4; stroke-opacity:1; fill:none" points="1809.59,1423.18 1809.59,1404.28 "/>
<path clip-path="url(#clip430)" d="M632.399 1451.02 L652.26 1451.02 L652.26 1454.96 L637.075 1454.96 L637.075 1465.14 L650.779 1465.14 L650.779 1469.08 L637.075 1469.08 L637.075 1485.58 L632.399 1485.58 L632.399 1451.02 Z" fill="#000000" fill-rule="nonzero" fill-opacity="1" /><path clip-path="url(#clip430)" d="M666.913 1472.55 Q661.751 1472.55 659.76 1473.73 Q657.77 1474.91 657.77 1477.76 Q657.77 1480.02 659.251 1481.37 Q660.756 1482.69 663.325 1482.69 Q666.867 1482.69 668.996 1480.19 Q671.149 1477.66 671.149 1473.5 L671.149 1472.55 L666.913 1472.55 M675.408 1470.79 L675.408 1485.58 L671.149 1485.58 L671.149 1481.64 Q669.691 1484.01 667.515 1485.14 Q665.339 1486.25 662.191 1486.25 Q658.21 1486.25 655.848 1484.03 Q653.51 1481.78 653.51 1478.03 Q653.51 1473.66 656.427 1471.44 Q659.367 1469.21 665.177 1469.21 L671.149 1469.21 L671.149 1468.8 Q671.149 1465.86 669.205 1464.26 Q667.284 1462.64 663.788 1462.64 Q661.566 1462.64 659.46 1463.17 Q657.353 1463.7 655.409 1464.77 L655.409 1460.83 Q657.747 1459.93 659.946 1459.49 Q662.145 1459.03 664.228 1459.03 Q669.853 1459.03 672.631 1461.95 Q675.408 1464.86 675.408 1470.79 Z" fill="#000000" fill-rule="nonzero" fill-opacity="1" /><path clip-path="url(#clip430)" d="M684.182 1459.65 L688.441 1459.65 L688.441 1485.58 L684.182 1485.58 L684.182 1459.65 M684.182 1449.56 L688.441 1449.56 L688.441 1454.96 L684.182 1454.96 L684.182 1449.56 Z" fill="#000000" fill-rule="nonzero" fill-opacity="1" /><path clip-path="url(#clip430)" d="M697.353 1449.56 L701.612 1449.56 L701.612 1485.58 L697.353 1485.58 L697.353 1449.56 Z" fill="#000000" fill-rule="nonzero" fill-opacity="1" /><path clip-path="url(#clip430)" d="M710.084 1475.35 L710.084 1459.65 L714.343 1459.65 L714.343 1475.19 Q714.343 1478.87 715.779 1480.72 Q717.214 1482.55 720.084 1482.55 Q723.533 1482.55 725.524 1480.35 Q727.538 1478.15 727.538 1474.35 L727.538 1459.65 L731.797 1459.65 L731.797 1485.58 L727.538 1485.58 L727.538 1481.6 Q725.987 1483.96 723.927 1485.12 Q721.89 1486.25 719.181 1486.25 Q714.714 1486.25 712.399 1483.47 Q710.084 1480.7 710.084 1475.35 M720.802 1459.03 L720.802 1459.03 Z" fill="#000000" fill-rule="nonzero" fill-opacity="1" /><path clip-path="url(#clip430)" d="M755.593 1463.64 Q754.876 1463.22 754.019 1463.03 Q753.186 1462.83 752.167 1462.83 Q748.556 1462.83 746.612 1465.19 Q744.691 1467.52 744.691 1471.92 L744.691 1485.58 L740.408 1485.58 L740.408 1459.65 L744.691 1459.65 L744.691 1463.68 Q746.033 1461.32 748.186 1460.19 Q750.339 1459.03 753.417 1459.03 Q753.857 1459.03 754.39 1459.1 Q754.922 1459.14 755.57 1459.26 L755.593 1463.64 Z" fill="#000000" fill-rule="nonzero" fill-opacity="1" /><path clip-path="url(#clip430)" d="M781.195 1471.55 L781.195 1473.64 L761.612 1473.64 Q761.89 1478.03 764.251 1480.35 Q766.635 1482.64 770.871 1482.64 Q773.325 1482.64 775.616 1482.04 Q777.931 1481.44 780.2 1480.23 L780.2 1484.26 Q777.908 1485.23 775.501 1485.74 Q773.093 1486.25 770.616 1486.25 Q764.413 1486.25 760.778 1482.64 Q757.167 1479.03 757.167 1472.87 Q757.167 1466.51 760.593 1462.78 Q764.042 1459.03 769.876 1459.03 Q775.107 1459.03 778.139 1462.41 Q781.195 1465.77 781.195 1471.55 M776.936 1470.3 Q776.889 1466.81 774.968 1464.72 Q773.07 1462.64 769.922 1462.64 Q766.357 1462.64 764.204 1464.65 Q762.075 1466.67 761.751 1470.33 L776.936 1470.3 Z" fill="#000000" fill-rule="nonzero" fill-opacity="1" /><path clip-path="url(#clip430)" d="M813.486 1449.61 Q810.385 1454.93 808.88 1460.14 Q807.375 1465.35 807.375 1470.7 Q807.375 1476.04 808.88 1481.3 Q810.408 1486.53 813.486 1491.83 L809.783 1491.83 Q806.311 1486.39 804.574 1481.14 Q802.862 1475.88 802.862 1470.7 Q802.862 1465.53 804.574 1460.3 Q806.287 1455.07 809.783 1449.61 L813.486 1449.61 Z" fill="#000000" fill-rule="nonzero" fill-opacity="1" /><path clip-path="url(#clip430)" d="M832.352 1454.1 Q828.741 1454.1 826.912 1457.66 Q825.107 1461.2 825.107 1468.33 Q825.107 1475.44 826.912 1479.01 Q828.741 1482.55 832.352 1482.55 Q835.986 1482.55 837.792 1479.01 Q839.621 1475.44 839.621 1468.33 Q839.621 1461.2 837.792 1457.66 Q835.986 1454.1 832.352 1454.1 M832.352 1450.39 Q838.162 1450.39 841.218 1455 Q844.296 1459.58 844.296 1468.33 Q844.296 1477.06 841.218 1481.67 Q838.162 1486.25 832.352 1486.25 Q826.542 1486.25 823.463 1481.67 Q820.408 1477.06 820.408 1468.33 Q820.408 1459.58 823.463 1455 Q826.542 1450.39 832.352 1450.39 Z" fill="#000000" fill-rule="nonzero" fill-opacity="1" /><path clip-path="url(#clip430)" d="M851.241 1449.61 L854.945 1449.61 Q858.417 1455.07 860.13 1460.3 Q861.866 1465.53 861.866 1470.7 Q861.866 1475.88 860.13 1481.14 Q858.417 1486.39 854.945 1491.83 L851.241 1491.83 Q854.32 1486.53 855.824 1481.3 Q857.352 1476.04 857.352 1470.7 Q857.352 1465.35 855.824 1460.14 Q854.32 1454.93 851.241 1449.61 Z" fill="#000000" fill-rule="nonzero" fill-opacity="1" /><path clip-path="url(#clip430)" d="M1698.9 1452.15 L1698.9 1456.71 Q1696.24 1455.44 1693.88 1454.82 Q1691.52 1454.19 1689.32 1454.19 Q1685.5 1454.19 1683.42 1455.67 Q1681.36 1457.15 1681.36 1459.89 Q1681.36 1462.18 1682.72 1463.36 Q1684.11 1464.52 1687.96 1465.23 L1690.78 1465.81 Q1696.01 1466.81 1698.49 1469.33 Q1700.99 1471.83 1700.99 1476.04 Q1700.99 1481.07 1697.61 1483.66 Q1694.25 1486.25 1687.75 1486.25 Q1685.29 1486.25 1682.52 1485.7 Q1679.76 1485.14 1676.8 1484.05 L1676.8 1479.24 Q1679.65 1480.83 1682.38 1481.64 Q1685.11 1482.45 1687.75 1482.45 Q1691.75 1482.45 1693.93 1480.88 Q1696.1 1479.31 1696.1 1476.39 Q1696.1 1473.84 1694.53 1472.41 Q1692.98 1470.97 1689.41 1470.26 L1686.57 1469.7 Q1681.34 1468.66 1679 1466.44 Q1676.66 1464.21 1676.66 1460.26 Q1676.66 1455.67 1679.88 1453.03 Q1683.12 1450.39 1688.79 1450.39 Q1691.22 1450.39 1693.74 1450.83 Q1696.27 1451.27 1698.9 1452.15 Z" fill="#000000" fill-rule="nonzero" fill-opacity="1" /><path clip-path="url(#clip430)" d="M1707.65 1475.35 L1707.65 1459.65 L1711.91 1459.65 L1711.91 1475.19 Q1711.91 1478.87 1713.35 1480.72 Q1714.78 1482.55 1717.65 1482.55 Q1721.1 1482.55 1723.09 1480.35 Q1725.11 1478.15 1725.11 1474.35 L1725.11 1459.65 L1729.37 1459.65 L1729.37 1485.58 L1725.11 1485.58 L1725.11 1481.6 Q1723.56 1483.96 1721.5 1485.12 Q1719.46 1486.25 1716.75 1486.25 Q1712.28 1486.25 1709.97 1483.47 Q1707.65 1480.7 1707.65 1475.35 M1718.37 1459.03 L1718.37 1459.03 Z" fill="#000000" fill-rule="nonzero" fill-opacity="1" /><path clip-path="url(#clip430)" d="M1756.8 1460.65 L1756.8 1464.63 Q1754.99 1463.64 1753.16 1463.15 Q1751.36 1462.64 1749.51 1462.64 Q1745.36 1462.64 1743.07 1465.28 Q1740.78 1467.89 1740.78 1472.64 Q1740.78 1477.39 1743.07 1480.02 Q1745.36 1482.64 1749.51 1482.64 Q1751.36 1482.64 1753.16 1482.15 Q1754.99 1481.64 1756.8 1480.65 L1756.8 1484.58 Q1755.02 1485.42 1753.09 1485.83 Q1751.2 1486.25 1749.04 1486.25 Q1743.19 1486.25 1739.74 1482.57 Q1736.29 1478.89 1736.29 1472.64 Q1736.29 1466.3 1739.76 1462.66 Q1743.26 1459.03 1749.32 1459.03 Q1751.29 1459.03 1753.16 1459.45 Q1755.04 1459.84 1756.8 1460.65 Z" fill="#000000" fill-rule="nonzero" fill-opacity="1" /><path clip-path="url(#clip430)" d="M1782.86 1460.65 L1782.86 1464.63 Q1781.06 1463.64 1779.23 1463.15 Q1777.42 1462.64 1775.57 1462.64 Q1771.43 1462.64 1769.14 1465.28 Q1766.84 1467.89 1766.84 1472.64 Q1766.84 1477.39 1769.14 1480.02 Q1771.43 1482.64 1775.57 1482.64 Q1777.42 1482.64 1779.23 1482.15 Q1781.06 1481.64 1782.86 1480.65 L1782.86 1484.58 Q1781.08 1485.42 1779.16 1485.83 Q1777.26 1486.25 1775.11 1486.25 Q1769.25 1486.25 1765.8 1482.57 Q1762.35 1478.89 1762.35 1472.64 Q1762.35 1466.3 1765.83 1462.66 Q1769.32 1459.03 1775.39 1459.03 Q1777.35 1459.03 1779.23 1459.45 Q1781.1 1459.84 1782.86 1460.65 Z" fill="#000000" fill-rule="nonzero" fill-opacity="1" /><path clip-path="url(#clip430)" d="M1812.45 1471.55 L1812.45 1473.64 L1792.86 1473.64 Q1793.14 1478.03 1795.5 1480.35 Q1797.89 1482.64 1802.12 1482.64 Q1804.58 1482.64 1806.87 1482.04 Q1809.18 1481.44 1811.45 1480.23 L1811.45 1484.26 Q1809.16 1485.23 1806.75 1485.74 Q1804.34 1486.25 1801.87 1486.25 Q1795.66 1486.25 1792.03 1482.64 Q1788.42 1479.03 1788.42 1472.87 Q1788.42 1466.51 1791.84 1462.78 Q1795.29 1459.03 1801.13 1459.03 Q1806.36 1459.03 1809.39 1462.41 Q1812.45 1465.77 1812.45 1471.55 M1808.19 1470.3 Q1808.14 1466.81 1806.22 1464.72 Q1804.32 1462.64 1801.17 1462.64 Q1797.61 1462.64 1795.45 1464.65 Q1793.33 1466.67 1793 1470.33 L1808.19 1470.3 Z" fill="#000000" fill-rule="nonzero" fill-opacity="1" /><path clip-path="url(#clip430)" d="M1835.96 1460.42 L1835.96 1464.45 Q1834.16 1463.52 1832.21 1463.06 Q1830.27 1462.59 1828.19 1462.59 Q1825.01 1462.59 1823.42 1463.57 Q1821.84 1464.54 1821.84 1466.48 Q1821.84 1467.96 1822.98 1468.82 Q1824.11 1469.65 1827.54 1470.42 L1829 1470.74 Q1833.53 1471.71 1835.43 1473.5 Q1837.35 1475.26 1837.35 1478.43 Q1837.35 1482.04 1834.48 1484.14 Q1831.64 1486.25 1826.64 1486.25 Q1824.55 1486.25 1822.28 1485.83 Q1820.04 1485.44 1817.54 1484.63 L1817.54 1480.23 Q1819.9 1481.46 1822.19 1482.08 Q1824.48 1482.69 1826.73 1482.69 Q1829.74 1482.69 1831.36 1481.67 Q1832.98 1480.63 1832.98 1478.75 Q1832.98 1477.02 1831.8 1476.09 Q1830.64 1475.16 1826.68 1474.31 L1825.2 1473.96 Q1821.24 1473.13 1819.48 1471.41 Q1817.72 1469.68 1817.72 1466.67 Q1817.72 1463.01 1820.32 1461.02 Q1822.91 1459.03 1827.68 1459.03 Q1830.04 1459.03 1832.12 1459.38 Q1834.2 1459.72 1835.96 1460.42 Z" fill="#000000" fill-rule="nonzero" fill-opacity="1" /><path clip-path="url(#clip430)" d="M1860.66 1460.42 L1860.66 1464.45 Q1858.86 1463.52 1856.91 1463.06 Q1854.97 1462.59 1852.89 1462.59 Q1849.71 1462.59 1848.12 1463.57 Q1846.54 1464.54 1846.54 1466.48 Q1846.54 1467.96 1847.68 1468.82 Q1848.81 1469.65 1852.24 1470.42 L1853.7 1470.74 Q1858.23 1471.71 1860.13 1473.5 Q1862.05 1475.26 1862.05 1478.43 Q1862.05 1482.04 1859.18 1484.14 Q1856.33 1486.25 1851.33 1486.25 Q1849.25 1486.25 1846.98 1485.83 Q1844.74 1485.44 1842.24 1484.63 L1842.24 1480.23 Q1844.6 1481.46 1846.89 1482.08 Q1849.18 1482.69 1851.43 1482.69 Q1854.44 1482.69 1856.06 1481.67 Q1857.68 1480.63 1857.68 1478.75 Q1857.68 1477.02 1856.5 1476.09 Q1855.34 1475.16 1851.38 1474.31 L1849.9 1473.96 Q1845.94 1473.13 1844.18 1471.41 Q1842.42 1469.68 1842.42 1466.67 Q1842.42 1463.01 1845.01 1461.02 Q1847.61 1459.03 1852.38 1459.03 Q1854.74 1459.03 1856.82 1459.38 Q1858.9 1459.72 1860.66 1460.42 Z" fill="#000000" fill-rule="nonzero" fill-opacity="1" /><path clip-path="url(#clip430)" d="M1894.13 1449.61 Q1891.03 1454.93 1889.53 1460.14 Q1888.02 1465.35 1888.02 1470.7 Q1888.02 1476.04 1889.53 1481.3 Q1891.06 1486.53 1894.13 1491.83 L1890.43 1491.83 Q1886.96 1486.39 1885.22 1481.14 Q1883.51 1475.88 1883.51 1470.7 Q1883.51 1465.53 1885.22 1460.3 Q1886.94 1455.07 1890.43 1449.61 L1894.13 1449.61 Z" fill="#000000" fill-rule="nonzero" fill-opacity="1" /><path clip-path="url(#clip430)" d="M1903.81 1481.64 L1911.45 1481.64 L1911.45 1455.28 L1903.14 1456.95 L1903.14 1452.69 L1911.4 1451.02 L1916.08 1451.02 L1916.08 1481.64 L1923.72 1481.64 L1923.72 1485.58 L1903.81 1485.58 L1903.81 1481.64 Z" fill="#000000" fill-rule="nonzero" fill-opacity="1" /><path clip-path="url(#clip430)" d="M1931.89 1449.61 L1935.59 1449.61 Q1939.07 1455.07 1940.78 1460.3 Q1942.51 1465.53 1942.51 1470.7 Q1942.51 1475.88 1940.78 1481.14 Q1939.07 1486.39 1935.59 1491.83 L1931.89 1491.83 Q1934.97 1486.53 1936.47 1481.3 Q1938 1476.04 1938 1470.7 Q1938 1465.35 1936.47 1460.14 Q1934.97 1454.93 1931.89 1449.61 Z" fill="#000000" fill-rule="nonzero" fill-opacity="1" /><path clip-path="url(#clip430)" d="M1106.52 1524.88 Q1099.52 1524.88 1095.38 1530.1 Q1091.27 1535.32 1091.27 1544.33 Q1091.27 1553.31 1095.38 1558.53 Q1099.52 1563.75 1106.52 1563.75 Q1113.52 1563.75 1117.59 1558.53 Q1121.7 1553.31 1121.7 1544.33 Q1121.7 1535.32 1117.59 1530.1 Q1113.52 1524.88 1106.52 1524.88 M1106.52 1519.66 Q1116.51 1519.66 1122.5 1526.38 Q1128.48 1533.06 1128.48 1544.33 Q1128.48 1555.57 1122.5 1562.28 Q1116.51 1568.97 1106.52 1568.97 Q1096.49 1568.97 1090.48 1562.28 Q1084.49 1555.6 1084.49 1544.33 Q1084.49 1533.06 1090.48 1526.38 Q1096.49 1519.66 1106.52 1519.66 Z" fill="#000000" fill-rule="nonzero" fill-opacity="1" /><path clip-path="url(#clip430)" d="M1163.87 1550.25 Q1163.87 1543.79 1161.2 1540.13 Q1158.56 1536.44 1153.91 1536.44 Q1149.26 1536.44 1146.59 1540.13 Q1143.95 1543.79 1143.95 1550.25 Q1143.95 1556.71 1146.59 1560.4 Q1149.26 1564.07 1153.91 1564.07 Q1158.56 1564.07 1161.2 1560.4 Q1163.87 1556.71 1163.87 1550.25 M1143.95 1537.81 Q1145.79 1534.62 1148.59 1533.1 Q1151.43 1531.54 1155.34 1531.54 Q1161.84 1531.54 1165.88 1536.69 Q1169.95 1541.85 1169.95 1550.25 Q1169.95 1558.65 1165.88 1563.81 Q1161.84 1568.97 1155.34 1568.97 Q1151.43 1568.97 1148.59 1567.44 Q1145.79 1565.88 1143.95 1562.7 L1143.95 1568.04 L1138.06 1568.04 L1138.06 1518.52 L1143.95 1518.52 L1143.95 1537.81 Z" fill="#000000" fill-rule="nonzero" fill-opacity="1" /><path clip-path="url(#clip430)" d="M1202.39 1533.45 L1202.39 1538.98 Q1199.9 1537.71 1197.23 1537.07 Q1194.56 1536.44 1191.69 1536.44 Q1187.33 1536.44 1185.13 1537.77 Q1182.97 1539.11 1182.97 1541.79 Q1182.97 1543.82 1184.53 1545 Q1186.09 1546.15 1190.8 1547.2 L1192.8 1547.64 Q1199.04 1548.98 1201.65 1551.43 Q1204.29 1553.85 1204.29 1558.21 Q1204.29 1563.17 1200.35 1566.07 Q1196.43 1568.97 1189.56 1568.97 Q1186.69 1568.97 1183.57 1568.39 Q1180.49 1567.85 1177.05 1566.74 L1177.05 1560.69 Q1180.3 1562.38 1183.45 1563.24 Q1186.6 1564.07 1189.69 1564.07 Q1193.82 1564.07 1196.05 1562.66 Q1198.28 1561.23 1198.28 1558.65 Q1198.28 1556.27 1196.66 1554.99 Q1195.06 1553.72 1189.62 1552.54 L1187.58 1552.07 Q1182.14 1550.92 1179.72 1548.56 Q1177.3 1546.18 1177.3 1542.04 Q1177.3 1537.01 1180.87 1534.27 Q1184.43 1531.54 1190.99 1531.54 Q1194.24 1531.54 1197.1 1532.01 Q1199.97 1532.49 1202.39 1533.45 Z" fill="#000000" fill-rule="nonzero" fill-opacity="1" /><path clip-path="url(#clip430)" d="M1244.11 1548.76 L1244.11 1551.62 L1217.19 1551.62 Q1217.57 1557.67 1220.81 1560.85 Q1224.09 1564 1229.92 1564 Q1233.29 1564 1236.44 1563.17 Q1239.62 1562.35 1242.74 1560.69 L1242.74 1566.23 Q1239.59 1567.57 1236.28 1568.27 Q1232.97 1568.97 1229.57 1568.97 Q1221.04 1568.97 1216.04 1564 Q1211.07 1559.04 1211.07 1550.57 Q1211.07 1541.82 1215.78 1536.69 Q1220.53 1531.54 1228.55 1531.54 Q1235.74 1531.54 1239.91 1536.18 Q1244.11 1540.8 1244.11 1548.76 M1238.26 1547.04 Q1238.19 1542.23 1235.55 1539.37 Q1232.94 1536.5 1228.61 1536.5 Q1223.71 1536.5 1220.75 1539.27 Q1217.82 1542.04 1217.38 1547.07 L1238.26 1547.04 Z" fill="#000000" fill-rule="nonzero" fill-opacity="1" /><path clip-path="url(#clip430)" d="M1274.38 1537.87 Q1273.39 1537.3 1272.22 1537.04 Q1271.07 1536.76 1269.67 1536.76 Q1264.71 1536.76 1262.03 1540 Q1259.39 1543.22 1259.39 1549.27 L1259.39 1568.04 L1253.5 1568.04 L1253.5 1532.4 L1259.39 1532.4 L1259.39 1537.93 Q1261.24 1534.69 1264.2 1533.13 Q1267.16 1531.54 1271.39 1531.54 Q1271.99 1531.54 1272.73 1531.63 Q1273.46 1531.7 1274.35 1531.85 L1274.38 1537.87 Z" fill="#000000" fill-rule="nonzero" fill-opacity="1" /><path clip-path="url(#clip430)" d="M1276.32 1532.4 L1282.53 1532.4 L1293.67 1562.31 L1304.81 1532.4 L1311.02 1532.4 L1297.65 1568.04 L1289.69 1568.04 L1276.32 1532.4 Z" fill="#000000" fill-rule="nonzero" fill-opacity="1" /><path clip-path="url(#clip430)" d="M1335.3 1550.12 Q1328.2 1550.12 1325.47 1551.75 Q1322.73 1553.37 1322.73 1557.29 Q1322.73 1560.4 1324.77 1562.25 Q1326.83 1564.07 1330.37 1564.07 Q1335.24 1564.07 1338.17 1560.63 Q1341.13 1557.16 1341.13 1551.43 L1341.13 1550.12 L1335.3 1550.12 M1346.98 1547.71 L1346.98 1568.04 L1341.13 1568.04 L1341.13 1562.63 Q1339.12 1565.88 1336.13 1567.44 Q1333.14 1568.97 1328.81 1568.97 Q1323.33 1568.97 1320.09 1565.91 Q1316.87 1562.82 1316.87 1557.67 Q1316.87 1551.65 1320.88 1548.6 Q1324.92 1545.54 1332.91 1545.54 L1341.13 1545.54 L1341.13 1544.97 Q1341.13 1540.93 1338.45 1538.73 Q1335.81 1536.5 1331 1536.5 Q1327.95 1536.5 1325.05 1537.23 Q1322.16 1537.97 1319.48 1539.43 L1319.48 1534.02 Q1322.7 1532.78 1325.72 1532.17 Q1328.74 1531.54 1331.61 1531.54 Q1339.34 1531.54 1343.16 1535.55 Q1346.98 1539.56 1346.98 1547.71 Z" fill="#000000" fill-rule="nonzero" fill-opacity="1" /><path clip-path="url(#clip430)" d="M1364.84 1522.27 L1364.84 1532.4 L1376.9 1532.4 L1376.9 1536.95 L1364.84 1536.95 L1364.84 1556.3 Q1364.84 1560.66 1366.02 1561.9 Q1367.23 1563.14 1370.89 1563.14 L1376.9 1563.14 L1376.9 1568.04 L1370.89 1568.04 Q1364.11 1568.04 1361.53 1565.53 Q1358.95 1562.98 1358.95 1556.3 L1358.95 1536.95 L1354.65 1536.95 L1354.65 1532.4 L1358.95 1532.4 L1358.95 1522.27 L1364.84 1522.27 Z" fill="#000000" fill-rule="nonzero" fill-opacity="1" /><path clip-path="url(#clip430)" d="M1384.6 1532.4 L1390.46 1532.4 L1390.46 1568.04 L1384.6 1568.04 L1384.6 1532.4 M1384.6 1518.52 L1390.46 1518.52 L1390.46 1525.93 L1384.6 1525.93 L1384.6 1518.52 Z" fill="#000000" fill-rule="nonzero" fill-opacity="1" /><path clip-path="url(#clip430)" d="M1416.53 1536.5 Q1411.82 1536.5 1409.08 1540.19 Q1406.34 1543.85 1406.34 1550.25 Q1406.34 1556.65 1409.05 1560.34 Q1411.78 1564 1416.53 1564 Q1421.21 1564 1423.94 1560.31 Q1426.68 1556.62 1426.68 1550.25 Q1426.68 1543.92 1423.94 1540.23 Q1421.21 1536.5 1416.53 1536.5 M1416.53 1531.54 Q1424.17 1531.54 1428.53 1536.5 Q1432.89 1541.47 1432.89 1550.25 Q1432.89 1559 1428.53 1564 Q1424.17 1568.97 1416.53 1568.97 Q1408.86 1568.97 1404.5 1564 Q1400.17 1559 1400.17 1550.25 Q1400.17 1541.47 1404.5 1536.5 Q1408.86 1531.54 1416.53 1531.54 Z" fill="#000000" fill-rule="nonzero" fill-opacity="1" /><path clip-path="url(#clip430)" d="M1472.23 1546.53 L1472.23 1568.04 L1466.37 1568.04 L1466.37 1546.72 Q1466.37 1541.66 1464.4 1539.14 Q1462.42 1536.63 1458.48 1536.63 Q1453.73 1536.63 1451 1539.65 Q1448.26 1542.68 1448.26 1547.9 L1448.26 1568.04 L1442.37 1568.04 L1442.37 1532.4 L1448.26 1532.4 L1448.26 1537.93 Q1450.36 1534.72 1453.19 1533.13 Q1456.06 1531.54 1459.78 1531.54 Q1465.93 1531.54 1469.08 1535.36 Q1472.23 1539.14 1472.23 1546.53 Z" fill="#000000" fill-rule="nonzero" fill-opacity="1" /><polyline clip-path="url(#clip430)" style="stroke:#000000; stroke-linecap:round; stroke-linejoin:round; stroke-width:4; stroke-opacity:1; fill:none" points="203.964,1423.18 203.964,123.472 "/>
<polyline clip-path="url(#clip430)" style="stroke:#000000; stroke-linecap:round; stroke-linejoin:round; stroke-width:4; stroke-opacity:1; fill:none" points="203.964,1423.18 222.861,1423.18 "/>
<polyline clip-path="url(#clip430)" style="stroke:#000000; stroke-linecap:round; stroke-linejoin:round; stroke-width:4; stroke-opacity:1; fill:none" points="203.964,1098.25 222.861,1098.25 "/>
<polyline clip-path="url(#clip430)" style="stroke:#000000; stroke-linecap:round; stroke-linejoin:round; stroke-width:4; stroke-opacity:1; fill:none" points="203.964,773.326 222.861,773.326 "/>
<polyline clip-path="url(#clip430)" style="stroke:#000000; stroke-linecap:round; stroke-linejoin:round; stroke-width:4; stroke-opacity:1; fill:none" points="203.964,448.399 222.861,448.399 "/>
<polyline clip-path="url(#clip430)" style="stroke:#000000; stroke-linecap:round; stroke-linejoin:round; stroke-width:4; stroke-opacity:1; fill:none" points="203.964,123.472 222.861,123.472 "/>
<path clip-path="url(#clip430)" d="M156.019 1408.98 Q152.408 1408.98 150.579 1412.54 Q148.774 1416.08 148.774 1423.21 Q148.774 1430.32 150.579 1433.89 Q152.408 1437.43 156.019 1437.43 Q159.653 1437.43 161.459 1433.89 Q163.288 1430.32 163.288 1423.21 Q163.288 1416.08 161.459 1412.54 Q159.653 1408.98 156.019 1408.98 M156.019 1405.27 Q161.829 1405.27 164.885 1409.88 Q167.964 1414.46 167.964 1423.21 Q167.964 1431.94 164.885 1436.55 Q161.829 1441.13 156.019 1441.13 Q150.209 1441.13 147.13 1436.55 Q144.075 1431.94 144.075 1423.21 Q144.075 1414.46 147.13 1409.88 Q150.209 1405.27 156.019 1405.27 Z" fill="#000000" fill-rule="nonzero" fill-opacity="1" /><path clip-path="url(#clip430)" d="M147.061 1080.97 L165.417 1080.97 L165.417 1084.91 L151.343 1084.91 L151.343 1093.38 Q152.362 1093.03 153.38 1092.87 Q154.399 1092.69 155.417 1092.69 Q161.204 1092.69 164.584 1095.86 Q167.964 1099.03 167.964 1104.45 Q167.964 1110.02 164.491 1113.13 Q161.019 1116.2 154.7 1116.2 Q152.524 1116.2 150.255 1115.83 Q148.01 1115.46 145.603 1114.72 L145.603 1110.02 Q147.686 1111.16 149.908 1111.71 Q152.13 1112.27 154.607 1112.27 Q158.612 1112.27 160.95 1110.16 Q163.288 1108.06 163.288 1104.45 Q163.288 1100.83 160.95 1098.73 Q158.612 1096.62 154.607 1096.62 Q152.732 1096.62 150.857 1097.04 Q149.005 1097.45 147.061 1098.33 L147.061 1080.97 Z" fill="#000000" fill-rule="nonzero" fill-opacity="1" /><path clip-path="url(#clip430)" d="M116.668 786.671 L124.306 786.671 L124.306 760.305 L115.996 761.972 L115.996 757.713 L124.26 756.046 L128.936 756.046 L128.936 786.671 L136.575 786.671 L136.575 790.606 L116.668 790.606 L116.668 786.671 Z" fill="#000000" fill-rule="nonzero" fill-opacity="1" /><path clip-path="url(#clip430)" d="M156.019 759.125 Q152.408 759.125 150.579 762.689 Q148.774 766.231 148.774 773.361 Q148.774 780.467 150.579 784.032 Q152.408 787.574 156.019 787.574 Q159.653 787.574 161.459 784.032 Q163.288 780.467 163.288 773.361 Q163.288 766.231 161.459 762.689 Q159.653 759.125 156.019 759.125 M156.019 755.421 Q161.829 755.421 164.885 760.027 Q167.964 764.611 167.964 773.361 Q167.964 782.088 164.885 786.694 Q161.829 791.277 156.019 791.277 Q150.209 791.277 147.13 786.694 Q144.075 782.088 144.075 773.361 Q144.075 764.611 147.13 760.027 Q150.209 755.421 156.019 755.421 Z" fill="#000000" fill-rule="nonzero" fill-opacity="1" /><path clip-path="url(#clip430)" d="M117.663 461.744 L125.302 461.744 L125.302 435.378 L116.992 437.045 L116.992 432.786 L125.255 431.119 L129.931 431.119 L129.931 461.744 L137.57 461.744 L137.57 465.679 L117.663 465.679 L117.663 461.744 Z" fill="#000000" fill-rule="nonzero" fill-opacity="1" /><path clip-path="url(#clip430)" d="M147.061 431.119 L165.417 431.119 L165.417 435.054 L151.343 435.054 L151.343 443.526 Q152.362 443.179 153.38 443.017 Q154.399 442.832 155.417 442.832 Q161.204 442.832 164.584 446.003 Q167.964 449.175 167.964 454.591 Q167.964 460.17 164.491 463.272 Q161.019 466.35 154.7 466.35 Q152.524 466.35 150.255 465.98 Q148.01 465.61 145.603 464.869 L145.603 460.17 Q147.686 461.304 149.908 461.86 Q152.13 462.415 154.607 462.415 Q158.612 462.415 160.95 460.309 Q163.288 458.202 163.288 454.591 Q163.288 450.98 160.95 448.874 Q158.612 446.767 154.607 446.767 Q152.732 446.767 150.857 447.184 Q149.005 447.6 147.061 448.48 L147.061 431.119 Z" fill="#000000" fill-rule="nonzero" fill-opacity="1" /><path clip-path="url(#clip430)" d="M119.885 136.817 L136.204 136.817 L136.204 140.752 L114.26 140.752 L114.26 136.817 Q116.922 134.062 121.505 129.433 Q126.112 124.78 127.292 123.437 Q129.538 120.914 130.417 119.178 Q131.32 117.419 131.32 115.729 Q131.32 112.974 129.376 111.238 Q127.455 109.502 124.353 109.502 Q122.154 109.502 119.7 110.266 Q117.269 111.03 114.492 112.581 L114.492 107.859 Q117.316 106.725 119.769 106.146 Q122.223 105.567 124.26 105.567 Q129.63 105.567 132.825 108.252 Q136.019 110.937 136.019 115.428 Q136.019 117.558 135.209 119.479 Q134.422 121.377 132.316 123.97 Q131.737 124.641 128.635 127.859 Q125.533 131.053 119.885 136.817 Z" fill="#000000" fill-rule="nonzero" fill-opacity="1" /><path clip-path="url(#clip430)" d="M156.019 109.271 Q152.408 109.271 150.579 112.836 Q148.774 116.377 148.774 123.507 Q148.774 130.613 150.579 134.178 Q152.408 137.72 156.019 137.72 Q159.653 137.72 161.459 134.178 Q163.288 130.613 163.288 123.507 Q163.288 116.377 161.459 112.836 Q159.653 109.271 156.019 109.271 M156.019 105.567 Q161.829 105.567 164.885 110.174 Q167.964 114.757 167.964 123.507 Q167.964 132.234 164.885 136.84 Q161.829 141.423 156.019 141.423 Q150.209 141.423 147.13 136.84 Q144.075 132.234 144.075 123.507 Q144.075 114.757 147.13 110.174 Q150.209 105.567 156.019 105.567 Z" fill="#000000" fill-rule="nonzero" fill-opacity="1" /><path clip-path="url(#clip430)" d="M20.1444 829.185 L26.9239 829.185 Q23.9002 832.432 22.4043 836.124 Q20.9083 839.784 20.9083 843.922 Q20.9083 852.07 25.9054 856.398 Q30.8707 860.727 40.2919 860.727 Q49.6813 860.727 54.6784 856.398 Q59.6436 852.07 59.6436 843.922 Q59.6436 839.784 58.1477 836.124 Q56.6518 832.432 53.6281 829.185 L60.3439 829.185 Q62.6355 832.559 63.7814 836.346 Q64.9272 840.102 64.9272 844.304 Q64.9272 855.093 58.3387 861.3 Q51.7183 867.507 40.2919 867.507 Q28.8336 867.507 22.2451 861.3 Q15.6248 855.093 15.6248 844.304 Q15.6248 840.039 16.7706 836.283 Q17.8846 832.495 20.1444 829.185 Z" fill="#000000" fill-rule="nonzero" fill-opacity="1" /><path clip-path="url(#clip430)" d="M32.4621 805.696 Q32.4621 810.406 36.1542 813.143 Q39.8145 815.881 46.212 815.881 Q52.6095 815.881 56.3017 813.175 Q59.9619 810.438 59.9619 805.696 Q59.9619 801.017 56.2698 798.28 Q52.5777 795.542 46.212 795.542 Q39.8781 795.542 36.186 798.28 Q32.4621 801.017 32.4621 805.696 M27.4968 805.696 Q27.4968 798.057 32.4621 793.696 Q37.4273 789.336 46.212 789.336 Q54.9649 789.336 59.9619 793.696 Q64.9272 798.057 64.9272 805.696 Q64.9272 813.366 59.9619 817.727 Q54.9649 822.055 46.212 822.055 Q37.4273 822.055 32.4621 817.727 Q27.4968 813.366 27.4968 805.696 Z" fill="#000000" fill-rule="nonzero" fill-opacity="1" /><path clip-path="url(#clip430)" d="M49.9359 780.233 L28.3562 780.233 L28.3562 774.376 L49.7131 774.376 Q54.7739 774.376 57.3202 772.403 Q59.8346 770.43 59.8346 766.483 Q59.8346 761.74 56.8109 759.003 Q53.7872 756.234 48.5673 756.234 L28.3562 756.234 L28.3562 750.378 L64.0042 750.378 L64.0042 756.234 L58.5296 756.234 Q61.7762 758.367 63.3676 761.199 Q64.9272 764 64.9272 767.724 Q64.9272 773.867 61.1078 777.05 Q57.2883 780.233 49.9359 780.233 M27.4968 765.496 L27.4968 765.496 Z" fill="#000000" fill-rule="nonzero" fill-opacity="1" /><path clip-path="url(#clip430)" d="M42.4881 708.682 L64.0042 708.682 L64.0042 714.539 L42.679 714.539 Q37.6183 714.539 35.1038 716.512 Q32.5894 718.485 32.5894 722.432 Q32.5894 727.175 35.6131 729.912 Q38.6368 732.649 43.8567 732.649 L64.0042 732.649 L64.0042 738.537 L28.3562 738.537 L28.3562 732.649 L33.8944 732.649 Q30.6797 730.548 29.0883 727.716 Q27.4968 724.851 27.4968 721.127 Q27.4968 714.984 31.3163 711.833 Q35.1038 708.682 42.4881 708.682 Z" fill="#000000" fill-rule="nonzero" fill-opacity="1" /><path clip-path="url(#clip430)" d="M18.2347 691.208 L28.3562 691.208 L28.3562 679.145 L32.9077 679.145 L32.9077 691.208 L52.2594 691.208 Q56.6199 691.208 57.8613 690.031 Q59.1026 688.821 59.1026 685.161 L59.1026 679.145 L64.0042 679.145 L64.0042 685.161 Q64.0042 691.94 61.4897 694.519 Q58.9434 697.097 52.2594 697.097 L32.9077 697.097 L32.9077 701.393 L28.3562 701.393 L28.3562 697.097 L18.2347 697.097 L18.2347 691.208 Z" fill="#000000" fill-rule="nonzero" fill-opacity="1" /><path clip-path="url(#clip430)" d="M762.619 12.096 L770.883 12.096 L783.603 63.2184 L796.282 12.096 L805.477 12.096 L818.197 63.2184 L830.877 12.096 L839.181 12.096 L823.99 72.576 L813.701 72.576 L800.94 20.0763 L788.059 72.576 L777.769 72.576 L762.619 12.096 Z" fill="#000000" fill-rule="nonzero" fill-opacity="1" /><path clip-path="url(#clip430)" d="M883.66 48.0275 L883.66 51.6733 L849.389 51.6733 Q849.875 59.3701 854.007 63.421 Q858.18 67.4314 865.593 67.4314 Q869.887 67.4314 873.897 66.3781 Q877.948 65.3249 881.918 63.2184 L881.918 70.267 Q877.908 71.9684 873.695 72.8596 Q869.482 73.7508 865.147 73.7508 Q854.291 73.7508 847.931 67.4314 Q841.612 61.1119 841.612 50.3365 Q841.612 39.1965 847.607 32.6746 Q853.643 26.1121 863.851 26.1121 Q873.006 26.1121 878.313 32.0264 Q883.66 37.9003 883.66 48.0275 M876.206 45.84 Q876.125 39.7232 872.763 36.0774 Q869.441 32.4315 863.932 32.4315 Q857.694 32.4315 853.926 35.9558 Q850.199 39.4801 849.632 45.8805 L876.206 45.84 Z" fill="#000000" fill-rule="nonzero" fill-opacity="1" /><path clip-path="url(#clip430)" d="M934.701 48.0275 L934.701 51.6733 L900.431 51.6733 Q900.917 59.3701 905.049 63.421 Q909.221 67.4314 916.634 67.4314 Q920.928 67.4314 924.939 66.3781 Q928.99 65.3249 932.959 63.2184 L932.959 70.267 Q928.949 71.9684 924.736 72.8596 Q920.523 73.7508 916.189 73.7508 Q905.332 73.7508 898.972 67.4314 Q892.653 61.1119 892.653 50.3365 Q892.653 39.1965 898.648 32.6746 Q904.684 26.1121 914.892 26.1121 Q924.047 26.1121 929.354 32.0264 Q934.701 37.9003 934.701 48.0275 M927.248 45.84 Q927.167 39.7232 923.804 36.0774 Q920.483 32.4315 914.973 32.4315 Q908.735 32.4315 904.968 35.9558 Q901.241 39.4801 900.674 45.8805 L927.248 45.84 Z" fill="#000000" fill-rule="nonzero" fill-opacity="1" /><path clip-path="url(#clip430)" d="M946.651 9.54393 L954.146 9.54393 L954.146 46.7717 L976.385 27.2059 L985.905 27.2059 L961.842 48.4326 L986.917 72.576 L977.195 72.576 L954.146 50.4176 L954.146 72.576 L946.651 72.576 L946.651 9.54393 Z" fill="#000000" fill-rule="nonzero" fill-opacity="1" /><path clip-path="url(#clip430)" d="M1029.45 65.6895 L1058.01 65.6895 L1058.01 72.576 L1019.61 72.576 L1019.61 65.6895 Q1024.27 60.8689 1032.29 52.7671 Q1040.35 44.6248 1042.41 42.2752 Q1046.34 37.8598 1047.88 34.8216 Q1049.46 31.7429 1049.46 28.7857 Q1049.46 23.9651 1046.06 20.927 Q1042.7 17.8888 1037.27 17.8888 Q1033.42 17.8888 1029.13 19.2256 Q1024.87 20.5624 1020.01 23.2765 L1020.01 15.0127 Q1024.96 13.0277 1029.25 12.015 Q1033.54 11.0023 1037.11 11.0023 Q1046.51 11.0023 1052.1 15.7013 Q1057.69 20.4004 1057.69 28.2591 Q1057.69 31.9859 1056.27 35.3482 Q1054.89 38.6699 1051.21 43.2069 Q1050.19 44.3817 1044.76 50.0125 Q1039.34 55.6027 1029.45 65.6895 Z" fill="#000000" fill-rule="nonzero" fill-opacity="1" /><path clip-path="url(#clip430)" d="M1109.01 18.8205 L1109.01 65.8515 L1118.9 65.8515 Q1131.41 65.8515 1137.21 60.1802 Q1143.04 54.509 1143.04 42.2752 Q1143.04 30.1225 1137.21 24.4918 Q1131.41 18.8205 1118.9 18.8205 L1109.01 18.8205 M1100.83 12.096 L1117.64 12.096 Q1135.22 12.096 1143.44 19.4281 Q1151.67 26.7198 1151.67 42.2752 Q1151.67 57.9117 1143.4 65.2439 Q1135.14 72.576 1117.64 72.576 L1100.83 72.576 L1100.83 12.096 Z" fill="#000000" fill-rule="nonzero" fill-opacity="1" /><path clip-path="url(#clip430)" d="M1185.01 49.7694 Q1175.97 49.7694 1172.49 51.8354 Q1169.01 53.9013 1169.01 58.8839 Q1169.01 62.8538 1171.6 65.2034 Q1174.23 67.5124 1178.73 67.5124 Q1184.93 67.5124 1188.65 63.1374 Q1192.42 58.7219 1192.42 51.4303 L1192.42 49.7694 L1185.01 49.7694 M1199.87 46.6907 L1199.87 72.576 L1192.42 72.576 L1192.42 65.6895 Q1189.87 69.8214 1186.06 71.8063 Q1182.25 73.7508 1176.74 73.7508 Q1169.78 73.7508 1165.64 69.8619 Q1161.55 65.9325 1161.55 59.3701 Q1161.55 51.7138 1166.66 47.825 Q1171.8 43.9361 1181.97 43.9361 L1192.42 43.9361 L1192.42 43.2069 Q1192.42 38.0623 1189.02 35.2672 Q1185.65 32.4315 1179.54 32.4315 Q1175.65 32.4315 1171.96 33.3632 Q1168.28 34.295 1164.87 36.1584 L1164.87 29.2718 Q1168.97 27.692 1172.81 26.9223 Q1176.66 26.1121 1180.31 26.1121 Q1190.15 26.1121 1195.01 31.2163 Q1199.87 36.3204 1199.87 46.6907 Z" fill="#000000" fill-rule="nonzero" fill-opacity="1" /><path clip-path="url(#clip430)" d="M1222.6 14.324 L1222.6 27.2059 L1237.95 27.2059 L1237.95 32.9987 L1222.6 32.9987 L1222.6 57.6282 Q1222.6 63.1779 1224.1 64.7578 Q1225.64 66.3376 1230.3 66.3376 L1237.95 66.3376 L1237.95 72.576 L1230.3 72.576 Q1221.67 72.576 1218.39 69.3758 Q1215.1 66.1351 1215.1 57.6282 L1215.1 32.9987 L1209.64 32.9987 L1209.64 27.2059 L1215.1 27.2059 L1215.1 14.324 L1222.6 14.324 Z" fill="#000000" fill-rule="nonzero" fill-opacity="1" /><path clip-path="url(#clip430)" d="M1268.37 49.7694 Q1259.34 49.7694 1255.86 51.8354 Q1252.37 53.9013 1252.37 58.8839 Q1252.37 62.8538 1254.97 65.2034 Q1257.6 67.5124 1262.1 67.5124 Q1268.29 67.5124 1272.02 63.1374 Q1275.79 58.7219 1275.79 51.4303 L1275.79 49.7694 L1268.37 49.7694 M1283.24 46.6907 L1283.24 72.576 L1275.79 72.576 L1275.79 65.6895 Q1273.24 69.8214 1269.43 71.8063 Q1265.62 73.7508 1260.11 73.7508 Q1253.14 73.7508 1249.01 69.8619 Q1244.92 65.9325 1244.92 59.3701 Q1244.92 51.7138 1250.02 47.825 Q1255.17 43.9361 1265.34 43.9361 L1275.79 43.9361 L1275.79 43.2069 Q1275.79 38.0623 1272.38 35.2672 Q1269.02 32.4315 1262.91 32.4315 Q1259.02 32.4315 1255.33 33.3632 Q1251.64 34.295 1248.24 36.1584 L1248.24 29.2718 Q1252.33 27.692 1256.18 26.9223 Q1260.03 26.1121 1263.68 26.1121 Q1273.52 26.1121 1278.38 31.2163 Q1283.24 36.3204 1283.24 46.6907 Z" fill="#000000" fill-rule="nonzero" fill-opacity="1" /><path clip-path="url(#clip430)" d="M1333.47 18.8205 L1333.47 65.8515 L1343.36 65.8515 Q1355.87 65.8515 1361.67 60.1802 Q1367.5 54.509 1367.5 42.2752 Q1367.5 30.1225 1361.67 24.4918 Q1355.87 18.8205 1343.36 18.8205 L1333.47 18.8205 M1325.29 12.096 L1342.1 12.096 Q1359.68 12.096 1367.9 19.4281 Q1376.13 26.7198 1376.13 42.2752 Q1376.13 57.9117 1367.86 65.2439 Q1359.6 72.576 1342.1 72.576 L1325.29 72.576 L1325.29 12.096 Z" fill="#000000" fill-rule="nonzero" fill-opacity="1" /><path clip-path="url(#clip430)" d="M1388.85 27.2059 L1396.3 27.2059 L1396.3 72.576 L1388.85 72.576 L1388.85 27.2059 M1388.85 9.54393 L1396.3 9.54393 L1396.3 18.9825 L1388.85 18.9825 L1388.85 9.54393 Z" fill="#000000" fill-rule="nonzero" fill-opacity="1" /><path clip-path="url(#clip430)" d="M1440.82 28.5427 L1440.82 35.5912 Q1437.66 33.9709 1434.26 33.1607 Q1430.86 32.3505 1427.21 32.3505 Q1421.66 32.3505 1418.87 34.0519 Q1416.11 35.7533 1416.11 39.156 Q1416.11 41.7486 1418.1 43.2475 Q1420.08 44.7058 1426.08 46.0426 L1428.63 46.6097 Q1436.57 48.3111 1439.89 51.4303 Q1443.25 54.509 1443.25 60.0587 Q1443.25 66.3781 1438.23 70.0644 Q1433.25 73.7508 1424.5 73.7508 Q1420.85 73.7508 1416.88 73.0216 Q1412.95 72.3329 1408.58 70.9151 L1408.58 63.2184 Q1412.71 65.3654 1416.72 66.4591 Q1420.73 67.5124 1424.66 67.5124 Q1429.92 67.5124 1432.76 65.73 Q1435.6 63.9071 1435.6 60.6258 Q1435.6 57.5877 1433.53 55.9673 Q1431.5 54.3469 1424.58 52.8481 L1421.98 52.2405 Q1415.06 50.7821 1411.98 47.7845 Q1408.9 44.7463 1408.9 39.4801 Q1408.9 33.0797 1413.44 29.5959 Q1417.97 26.1121 1426.32 26.1121 Q1430.45 26.1121 1434.1 26.7198 Q1437.74 27.3274 1440.82 28.5427 Z" fill="#000000" fill-rule="nonzero" fill-opacity="1" /><path clip-path="url(#clip430)" d="M1462.49 14.324 L1462.49 27.2059 L1477.85 27.2059 L1477.85 32.9987 L1462.49 32.9987 L1462.49 57.6282 Q1462.49 63.1779 1463.99 64.7578 Q1465.53 66.3376 1470.19 66.3376 L1477.85 66.3376 L1477.85 72.576 L1470.19 72.576 Q1461.56 72.576 1458.28 69.3758 Q1455 66.1351 1455 57.6282 L1455 32.9987 L1449.53 32.9987 L1449.53 27.2059 L1455 27.2059 L1455 14.324 L1462.49 14.324 Z" fill="#000000" fill-rule="nonzero" fill-opacity="1" /><path clip-path="url(#clip430)" d="M1513.94 34.1734 Q1512.68 33.4443 1511.19 33.1202 Q1509.73 32.7556 1507.94 32.7556 Q1501.63 32.7556 1498.22 36.8875 Q1494.86 40.9789 1494.86 48.6757 L1494.86 72.576 L1487.37 72.576 L1487.37 27.2059 L1494.86 27.2059 L1494.86 34.2544 Q1497.21 30.1225 1500.98 28.1376 Q1504.74 26.1121 1510.13 26.1121 Q1510.9 26.1121 1511.83 26.2337 Q1512.77 26.3147 1513.9 26.5172 L1513.94 34.1734 Z" fill="#000000" fill-rule="nonzero" fill-opacity="1" /><path clip-path="url(#clip430)" d="M1521.76 27.2059 L1529.21 27.2059 L1529.21 72.576 L1521.76 72.576 L1521.76 27.2059 M1521.76 9.54393 L1529.21 9.54393 L1529.21 18.9825 L1521.76 18.9825 L1521.76 9.54393 Z" fill="#000000" fill-rule="nonzero" fill-opacity="1" /><path clip-path="url(#clip430)" d="M1577.38 49.9314 Q1577.38 41.7081 1573.97 37.0496 Q1570.61 32.3505 1564.7 32.3505 Q1558.78 32.3505 1555.38 37.0496 Q1552.02 41.7081 1552.02 49.9314 Q1552.02 58.1548 1555.38 62.8538 Q1558.78 67.5124 1564.7 67.5124 Q1570.61 67.5124 1573.97 62.8538 Q1577.38 58.1548 1577.38 49.9314 M1552.02 34.0924 Q1554.37 30.0415 1557.93 28.0971 Q1561.54 26.1121 1566.52 26.1121 Q1574.78 26.1121 1579.93 32.6746 Q1585.11 39.2371 1585.11 49.9314 Q1585.11 60.6258 1579.93 67.1883 Q1574.78 73.7508 1566.52 73.7508 Q1561.54 73.7508 1557.93 71.8063 Q1554.37 69.8214 1552.02 65.7705 L1552.02 72.576 L1544.52 72.576 L1544.52 9.54393 L1552.02 9.54393 L1552.02 34.0924 Z" fill="#000000" fill-rule="nonzero" fill-opacity="1" /><path clip-path="url(#clip430)" d="M1596.7 54.671 L1596.7 27.2059 L1604.15 27.2059 L1604.15 54.3874 Q1604.15 60.8284 1606.67 64.0691 Q1609.18 67.2693 1614.2 67.2693 Q1620.24 67.2693 1623.72 63.421 Q1627.24 59.5726 1627.24 52.9291 L1627.24 27.2059 L1634.7 27.2059 L1634.7 72.576 L1627.24 72.576 L1627.24 65.6084 Q1624.53 69.7404 1620.92 71.7658 Q1617.36 73.7508 1612.62 73.7508 Q1604.8 73.7508 1600.75 68.8897 Q1596.7 64.0286 1596.7 54.671 M1615.46 26.1121 L1615.46 26.1121 Z" fill="#000000" fill-rule="nonzero" fill-opacity="1" /><path clip-path="url(#clip430)" d="M1657.42 14.324 L1657.42 27.2059 L1672.78 27.2059 L1672.78 32.9987 L1657.42 32.9987 L1657.42 57.6282 Q1657.42 63.1779 1658.92 64.7578 Q1660.46 66.3376 1665.12 66.3376 L1672.78 66.3376 L1672.78 72.576 L1665.12 72.576 Q1656.49 72.576 1653.21 69.3758 Q1649.93 66.1351 1649.93 57.6282 L1649.93 32.9987 L1644.46 32.9987 L1644.46 27.2059 L1649.93 27.2059 L1649.93 14.324 L1657.42 14.324 Z" fill="#000000" fill-rule="nonzero" fill-opacity="1" /><path clip-path="url(#clip430)" d="M1682.58 27.2059 L1690.03 27.2059 L1690.03 72.576 L1682.58 72.576 L1682.58 27.2059 M1682.58 9.54393 L1690.03 9.54393 L1690.03 18.9825 L1682.58 18.9825 L1682.58 9.54393 Z" fill="#000000" fill-rule="nonzero" fill-opacity="1" /><path clip-path="url(#clip430)" d="M1723.21 32.4315 Q1717.21 32.4315 1713.73 37.1306 Q1710.25 41.7891 1710.25 49.9314 Q1710.25 58.0738 1713.69 62.7728 Q1717.17 67.4314 1723.21 67.4314 Q1729.16 67.4314 1732.65 62.7323 Q1736.13 58.0333 1736.13 49.9314 Q1736.13 41.8701 1732.65 37.1711 Q1729.16 32.4315 1723.21 32.4315 M1723.21 26.1121 Q1732.93 26.1121 1738.48 32.4315 Q1744.03 38.7509 1744.03 49.9314 Q1744.03 61.0714 1738.48 67.4314 Q1732.93 73.7508 1723.21 73.7508 Q1713.45 73.7508 1707.9 67.4314 Q1702.39 61.0714 1702.39 49.9314 Q1702.39 38.7509 1707.9 32.4315 Q1713.45 26.1121 1723.21 26.1121 Z" fill="#000000" fill-rule="nonzero" fill-opacity="1" /><path clip-path="url(#clip430)" d="M1794.1 45.1919 L1794.1 72.576 L1786.65 72.576 L1786.65 45.4349 Q1786.65 38.994 1784.14 35.7938 Q1781.62 32.5936 1776.6 32.5936 Q1770.56 32.5936 1767.08 36.4419 Q1763.6 40.2903 1763.6 46.9338 L1763.6 72.576 L1756.1 72.576 L1756.1 27.2059 L1763.6 27.2059 L1763.6 34.2544 Q1766.27 30.163 1769.88 28.1376 Q1773.52 26.1121 1778.26 26.1121 Q1786.08 26.1121 1790.09 30.9732 Q1794.1 35.7938 1794.1 45.1919 Z" fill="#000000" fill-rule="nonzero" fill-opacity="1" /><path clip-path="url(#clip432)" d="M322.151 773.326 L322.151 1423.18 L1172.11 1423.18 L1172.11 773.326 L322.151 773.326 L322.151 773.326  Z" fill="#90ee90" fill-rule="evenodd" fill-opacity="0.7"/>
<polyline clip-path="url(#clip432)" style="stroke:#000000; stroke-linecap:round; stroke-linejoin:round; stroke-width:4; stroke-opacity:0.7; fill:none" points="322.151,773.326 322.151,1423.18 1172.11,1423.18 1172.11,773.326 322.151,773.326 "/>
<path clip-path="url(#clip432)" d="M1384.61 123.472 L1384.61 1423.18 L2234.57 1423.18 L2234.57 123.472 L1384.61 123.472 L1384.61 123.472  Z" fill="#90ee90" fill-rule="evenodd" fill-opacity="0.7"/>
<polyline clip-path="url(#clip432)" style="stroke:#000000; stroke-linecap:round; stroke-linejoin:round; stroke-width:4; stroke-opacity:0.7; fill:none" points="1384.61,123.472 1384.61,1423.18 2234.57,1423.18 2234.57,123.472 1384.61,123.472 "/>
<circle clip-path="url(#clip432)" style="fill:#90ee90; stroke:none; fill-opacity:0" cx="747.133" cy="773.326" r="2"/>
<circle clip-path="url(#clip432)" style="fill:#90ee90; stroke:none; fill-opacity:0" cx="1809.59" cy="123.472" r="2"/>
<path clip-path="url(#clip430)" d="M275.59 270.476 L1434.93 270.476 L1434.93 166.796 L275.59 166.796  Z" fill="#ffffff" fill-rule="evenodd" fill-opacity="1"/>
<polyline clip-path="url(#clip430)" style="stroke:#000000; stroke-linecap:round; stroke-linejoin:round; stroke-width:4; stroke-opacity:1; fill:none" points="275.59,270.476 1434.93,270.476 1434.93,166.796 275.59,166.796 275.59,270.476 "/>
<path clip-path="url(#clip430)" d="M299.465 239.372 L442.718 239.372 L442.718 197.9 L299.465 197.9 L299.465 239.372  Z" fill="#90ee90" fill-rule="evenodd" fill-opacity="0.7"/>
<polyline clip-path="url(#clip430)" style="stroke:#000000; stroke-linecap:round; stroke-linejoin:round; stroke-width:4; stroke-opacity:1; fill:none" points="299.465,239.372 442.718,239.372 442.718,197.9 299.465,197.9 299.465,239.372 "/>
<path clip-path="url(#clip430)" d="M466.594 201.356 L471.316 201.356 L478.584 230.569 L485.83 201.356 L491.084 201.356 L498.353 230.569 L505.598 201.356 L510.344 201.356 L501.663 235.916 L495.783 235.916 L488.492 205.916 L481.131 235.916 L475.251 235.916 L466.594 201.356 Z" fill="#000000" fill-rule="nonzero" fill-opacity="1" /><path clip-path="url(#clip430)" d="M535.76 221.888 L535.76 223.971 L516.177 223.971 Q516.455 228.369 518.816 230.684 Q521.2 232.976 525.436 232.976 Q527.89 232.976 530.181 232.374 Q532.496 231.772 534.765 230.569 L534.765 234.596 Q532.473 235.568 530.066 236.078 Q527.658 236.587 525.181 236.587 Q518.978 236.587 515.343 232.976 Q511.732 229.365 511.732 223.207 Q511.732 216.842 515.158 213.115 Q518.607 209.365 524.441 209.365 Q529.672 209.365 532.705 212.745 Q535.76 216.101 535.76 221.888 M531.501 220.638 Q531.455 217.143 529.533 215.059 Q527.635 212.976 524.487 212.976 Q520.922 212.976 518.769 214.99 Q516.64 217.004 516.316 220.661 L531.501 220.638 Z" fill="#000000" fill-rule="nonzero" fill-opacity="1" /><path clip-path="url(#clip430)" d="M564.927 221.888 L564.927 223.971 L545.343 223.971 Q545.621 228.369 547.982 230.684 Q550.366 232.976 554.603 232.976 Q557.056 232.976 559.348 232.374 Q561.663 231.772 563.931 230.569 L563.931 234.596 Q561.64 235.568 559.232 236.078 Q556.825 236.587 554.348 236.587 Q548.144 236.587 544.51 232.976 Q540.899 229.365 540.899 223.207 Q540.899 216.842 544.325 213.115 Q547.774 209.365 553.607 209.365 Q558.839 209.365 561.871 212.745 Q564.927 216.101 564.927 221.888 M560.667 220.638 Q560.621 217.143 558.7 215.059 Q556.802 212.976 553.653 212.976 Q550.089 212.976 547.936 214.99 Q545.806 217.004 545.482 220.661 L560.667 220.638 Z" fill="#000000" fill-rule="nonzero" fill-opacity="1" /><path clip-path="url(#clip430)" d="M571.755 199.897 L576.038 199.897 L576.038 221.17 L588.746 209.99 L594.186 209.99 L580.436 222.119 L594.764 235.916 L589.209 235.916 L576.038 223.254 L576.038 235.916 L571.755 235.916 L571.755 199.897 Z" fill="#000000" fill-rule="nonzero" fill-opacity="1" /><path clip-path="url(#clip430)" d="M619.07 231.981 L635.389 231.981 L635.389 235.916 L613.445 235.916 L613.445 231.981 Q616.107 229.226 620.69 224.596 Q625.297 219.944 626.477 218.601 Q628.723 216.078 629.602 214.342 Q630.505 212.583 630.505 210.893 Q630.505 208.138 628.56 206.402 Q626.639 204.666 623.537 204.666 Q621.338 204.666 618.885 205.43 Q616.454 206.194 613.676 207.745 L613.676 203.022 Q616.5 201.888 618.954 201.309 Q621.408 200.731 623.445 200.731 Q628.815 200.731 632.01 203.416 Q635.204 206.101 635.204 210.592 Q635.204 212.721 634.394 214.643 Q633.607 216.541 631.5 219.133 Q630.922 219.805 627.82 223.022 Q624.718 226.217 619.07 231.981 Z" fill="#000000" fill-rule="nonzero" fill-opacity="1" /><path clip-path="url(#clip430)" d="M664.533 205.198 L664.533 232.073 L670.181 232.073 Q677.333 232.073 680.644 228.832 Q683.977 225.592 683.977 218.601 Q683.977 211.657 680.644 208.439 Q677.333 205.198 670.181 205.198 L664.533 205.198 M659.857 201.356 L669.463 201.356 Q679.509 201.356 684.208 205.546 Q688.907 209.712 688.907 218.601 Q688.907 227.536 684.185 231.726 Q679.463 235.916 669.463 235.916 L659.857 235.916 L659.857 201.356 Z" fill="#000000" fill-rule="nonzero" fill-opacity="1" /><path clip-path="url(#clip430)" d="M707.958 222.883 Q702.796 222.883 700.805 224.064 Q698.815 225.244 698.815 228.092 Q698.815 230.36 700.296 231.703 Q701.801 233.022 704.37 233.022 Q707.912 233.022 710.042 230.522 Q712.194 227.999 712.194 223.832 L712.194 222.883 L707.958 222.883 M716.454 221.124 L716.454 235.916 L712.194 235.916 L712.194 231.981 Q710.736 234.342 708.56 235.476 Q706.384 236.587 703.236 236.587 Q699.255 236.587 696.893 234.365 Q694.555 232.119 694.555 228.369 Q694.555 223.994 697.472 221.772 Q700.412 219.55 706.222 219.55 L712.194 219.55 L712.194 219.133 Q712.194 216.194 710.25 214.596 Q708.329 212.976 704.833 212.976 Q702.611 212.976 700.505 213.508 Q698.398 214.041 696.454 215.106 L696.454 211.17 Q698.792 210.268 700.991 209.828 Q703.19 209.365 705.273 209.365 Q710.898 209.365 713.676 212.282 Q716.454 215.198 716.454 221.124 Z" fill="#000000" fill-rule="nonzero" fill-opacity="1" /><path clip-path="url(#clip430)" d="M729.44 202.629 L729.44 209.99 L738.213 209.99 L738.213 213.3 L729.44 213.3 L729.44 227.374 Q729.44 230.545 730.296 231.448 Q731.176 232.351 733.838 232.351 L738.213 232.351 L738.213 235.916 L733.838 235.916 Q728.907 235.916 727.032 234.087 Q725.157 232.235 725.157 227.374 L725.157 213.3 L722.032 213.3 L722.032 209.99 L725.157 209.99 L725.157 202.629 L729.44 202.629 Z" fill="#000000" fill-rule="nonzero" fill-opacity="1" /><path clip-path="url(#clip430)" d="M755.597 222.883 Q750.435 222.883 748.444 224.064 Q746.453 225.244 746.453 228.092 Q746.453 230.36 747.935 231.703 Q749.439 233.022 752.009 233.022 Q755.551 233.022 757.68 230.522 Q759.833 227.999 759.833 223.832 L759.833 222.883 L755.597 222.883 M764.092 221.124 L764.092 235.916 L759.833 235.916 L759.833 231.981 Q758.375 234.342 756.199 235.476 Q754.023 236.587 750.875 236.587 Q746.893 236.587 744.532 234.365 Q742.194 232.119 742.194 228.369 Q742.194 223.994 745.111 221.772 Q748.051 219.55 753.861 219.55 L759.833 219.55 L759.833 219.133 Q759.833 216.194 757.888 214.596 Q755.967 212.976 752.472 212.976 Q750.25 212.976 748.143 213.508 Q746.037 214.041 744.092 215.106 L744.092 211.17 Q746.43 210.268 748.629 209.828 Q750.828 209.365 752.912 209.365 Q758.537 209.365 761.314 212.282 Q764.092 215.198 764.092 221.124 Z" fill="#000000" fill-rule="nonzero" fill-opacity="1" /><path clip-path="url(#clip430)" d="M798.166 199.944 Q795.064 205.268 793.56 210.476 Q792.055 215.684 792.055 221.032 Q792.055 226.379 793.56 231.633 Q795.087 236.865 798.166 242.166 L794.462 242.166 Q790.99 236.726 789.254 231.471 Q787.541 226.217 787.541 221.032 Q787.541 215.87 789.254 210.638 Q790.967 205.407 794.462 199.944 L798.166 199.944 Z" fill="#000000" fill-rule="nonzero" fill-opacity="1" /><path clip-path="url(#clip430)" d="M807.842 231.981 L815.481 231.981 L815.481 205.615 L807.171 207.282 L807.171 203.022 L815.434 201.356 L820.11 201.356 L820.11 231.981 L827.749 231.981 L827.749 235.916 L807.842 235.916 L807.842 231.981 Z" fill="#000000" fill-rule="nonzero" fill-opacity="1" /><path clip-path="url(#clip430)" d="M847.194 219.504 Q843.86 219.504 841.939 221.286 Q840.041 223.069 840.041 226.194 Q840.041 229.319 841.939 231.101 Q843.86 232.883 847.194 232.883 Q850.527 232.883 852.448 231.101 Q854.369 229.295 854.369 226.194 Q854.369 223.069 852.448 221.286 Q850.55 219.504 847.194 219.504 M842.518 217.513 Q839.508 216.772 837.819 214.712 Q836.152 212.652 836.152 209.689 Q836.152 205.546 839.092 203.138 Q842.055 200.731 847.194 200.731 Q852.356 200.731 855.295 203.138 Q858.235 205.546 858.235 209.689 Q858.235 212.652 856.545 214.712 Q854.879 216.772 851.893 217.513 Q855.272 218.3 857.147 220.592 Q859.045 222.883 859.045 226.194 Q859.045 231.217 855.967 233.902 Q852.911 236.587 847.194 236.587 Q841.476 236.587 838.397 233.902 Q835.342 231.217 835.342 226.194 Q835.342 222.883 837.24 220.592 Q839.138 218.3 842.518 217.513 M840.805 210.129 Q840.805 212.814 842.471 214.319 Q844.161 215.823 847.194 215.823 Q850.203 215.823 851.893 214.319 Q853.606 212.814 853.606 210.129 Q853.606 207.444 851.893 205.939 Q850.203 204.434 847.194 204.434 Q844.161 204.434 842.471 205.939 Q840.805 207.444 840.805 210.129 Z" fill="#000000" fill-rule="nonzero" fill-opacity="1" /><path clip-path="url(#clip430)" d="M898.351 210.754 L898.351 214.782 Q896.545 213.856 894.601 213.393 Q892.656 212.93 890.573 212.93 Q887.402 212.93 885.804 213.902 Q884.23 214.874 884.23 216.819 Q884.23 218.3 885.365 219.157 Q886.499 219.99 889.925 220.754 L891.383 221.078 Q895.92 222.05 897.818 223.832 Q899.74 225.592 899.74 228.763 Q899.74 232.374 896.869 234.481 Q894.022 236.587 889.022 236.587 Q886.939 236.587 884.67 236.17 Q882.425 235.777 879.925 234.967 L879.925 230.569 Q882.286 231.795 884.578 232.42 Q886.869 233.022 889.115 233.022 Q892.124 233.022 893.744 232.004 Q895.365 230.962 895.365 229.087 Q895.365 227.351 894.184 226.425 Q893.027 225.499 889.068 224.643 L887.587 224.295 Q883.629 223.462 881.869 221.749 Q880.11 220.013 880.11 217.004 Q880.11 213.346 882.703 211.356 Q885.295 209.365 890.064 209.365 Q892.425 209.365 894.508 209.712 Q896.591 210.059 898.351 210.754 Z" fill="#000000" fill-rule="nonzero" fill-opacity="1" /><path clip-path="url(#clip430)" d="M906.082 225.684 L906.082 209.99 L910.341 209.99 L910.341 225.522 Q910.341 229.203 911.777 231.055 Q913.212 232.883 916.082 232.883 Q919.531 232.883 921.522 230.684 Q923.536 228.485 923.536 224.689 L923.536 209.99 L927.795 209.99 L927.795 235.916 L923.536 235.916 L923.536 231.934 Q921.985 234.295 919.925 235.453 Q917.888 236.587 915.179 236.587 Q910.712 236.587 908.397 233.809 Q906.082 231.031 906.082 225.684 M916.8 209.365 L916.8 209.365 Z" fill="#000000" fill-rule="nonzero" fill-opacity="1" /><path clip-path="url(#clip430)" d="M955.225 210.985 L955.225 214.967 Q953.42 213.971 951.591 213.485 Q949.786 212.976 947.934 212.976 Q943.79 212.976 941.499 215.615 Q939.207 218.231 939.207 222.976 Q939.207 227.721 941.499 230.36 Q943.79 232.976 947.934 232.976 Q949.786 232.976 951.591 232.49 Q953.42 231.981 955.225 230.985 L955.225 234.92 Q953.443 235.754 951.522 236.17 Q949.624 236.587 947.471 236.587 Q941.614 236.587 938.165 232.906 Q934.716 229.226 934.716 222.976 Q934.716 216.633 938.188 212.999 Q941.684 209.365 947.749 209.365 Q949.716 209.365 951.591 209.782 Q953.466 210.175 955.225 210.985 Z" fill="#000000" fill-rule="nonzero" fill-opacity="1" /><path clip-path="url(#clip430)" d="M981.29 210.985 L981.29 214.967 Q979.485 213.971 977.656 213.485 Q975.85 212.976 973.998 212.976 Q969.855 212.976 967.563 215.615 Q965.272 218.231 965.272 222.976 Q965.272 227.721 967.563 230.36 Q969.855 232.976 973.998 232.976 Q975.85 232.976 977.656 232.49 Q979.485 231.981 981.29 230.985 L981.29 234.92 Q979.508 235.754 977.586 236.17 Q975.688 236.587 973.535 236.587 Q967.679 236.587 964.23 232.906 Q960.781 229.226 960.781 222.976 Q960.781 216.633 964.253 212.999 Q967.748 209.365 973.813 209.365 Q975.781 209.365 977.656 209.782 Q979.531 210.175 981.29 210.985 Z" fill="#000000" fill-rule="nonzero" fill-opacity="1" /><path clip-path="url(#clip430)" d="M1010.87 221.888 L1010.87 223.971 L991.29 223.971 Q991.568 228.369 993.929 230.684 Q996.313 232.976 1000.55 232.976 Q1003 232.976 1005.29 232.374 Q1007.61 231.772 1009.88 230.569 L1009.88 234.596 Q1007.59 235.568 1005.18 236.078 Q1002.77 236.587 1000.29 236.587 Q994.091 236.587 990.457 232.976 Q986.846 229.365 986.846 223.207 Q986.846 216.842 990.271 213.115 Q993.721 209.365 999.554 209.365 Q1004.79 209.365 1007.82 212.745 Q1010.87 216.101 1010.87 221.888 M1006.61 220.638 Q1006.57 217.143 1004.65 215.059 Q1002.75 212.976 999.6 212.976 Q996.035 212.976 993.883 214.99 Q991.753 217.004 991.429 220.661 L1006.61 220.638 Z" fill="#000000" fill-rule="nonzero" fill-opacity="1" /><path clip-path="url(#clip430)" d="M1034.39 210.754 L1034.39 214.782 Q1032.59 213.856 1030.64 213.393 Q1028.7 212.93 1026.61 212.93 Q1023.44 212.93 1021.85 213.902 Q1020.27 214.874 1020.27 216.819 Q1020.27 218.3 1021.41 219.157 Q1022.54 219.99 1025.97 220.754 L1027.42 221.078 Q1031.96 222.05 1033.86 223.832 Q1035.78 225.592 1035.78 228.763 Q1035.78 232.374 1032.91 234.481 Q1030.06 236.587 1025.06 236.587 Q1022.98 236.587 1020.71 236.17 Q1018.47 235.777 1015.97 234.967 L1015.97 230.569 Q1018.33 231.795 1020.62 232.42 Q1022.91 233.022 1025.16 233.022 Q1028.16 233.022 1029.79 232.004 Q1031.41 230.962 1031.41 229.087 Q1031.41 227.351 1030.22 226.425 Q1029.07 225.499 1025.11 224.643 L1023.63 224.295 Q1019.67 223.462 1017.91 221.749 Q1016.15 220.013 1016.15 217.004 Q1016.15 213.346 1018.74 211.356 Q1021.34 209.365 1026.1 209.365 Q1028.47 209.365 1030.55 209.712 Q1032.63 210.059 1034.39 210.754 Z" fill="#000000" fill-rule="nonzero" fill-opacity="1" /><path clip-path="url(#clip430)" d="M1059.09 210.754 L1059.09 214.782 Q1057.29 213.856 1055.34 213.393 Q1053.4 212.93 1051.31 212.93 Q1048.14 212.93 1046.54 213.902 Q1044.97 214.874 1044.97 216.819 Q1044.97 218.3 1046.1 219.157 Q1047.24 219.99 1050.66 220.754 L1052.12 221.078 Q1056.66 222.05 1058.56 223.832 Q1060.48 225.592 1060.48 228.763 Q1060.48 232.374 1057.61 234.481 Q1054.76 236.587 1049.76 236.587 Q1047.68 236.587 1045.41 236.17 Q1043.16 235.777 1040.66 234.967 L1040.66 230.569 Q1043.03 231.795 1045.32 232.42 Q1047.61 233.022 1049.85 233.022 Q1052.86 233.022 1054.48 232.004 Q1056.1 230.962 1056.1 229.087 Q1056.1 227.351 1054.92 226.425 Q1053.77 225.499 1049.81 224.643 L1048.33 224.295 Q1044.37 223.462 1042.61 221.749 Q1040.85 220.013 1040.85 217.004 Q1040.85 213.346 1043.44 211.356 Q1046.04 209.365 1050.8 209.365 Q1053.16 209.365 1055.25 209.712 Q1057.33 210.059 1059.09 210.754 Z" fill="#000000" fill-rule="nonzero" fill-opacity="1" /><path clip-path="url(#clip430)" d="M1089.44 221.888 L1089.44 223.971 L1069.85 223.971 Q1070.13 228.369 1072.49 230.684 Q1074.88 232.976 1079.11 232.976 Q1081.57 232.976 1083.86 232.374 Q1086.17 231.772 1088.44 230.569 L1088.44 234.596 Q1086.15 235.568 1083.74 236.078 Q1081.34 236.587 1078.86 236.587 Q1072.66 236.587 1069.02 232.976 Q1065.41 229.365 1065.41 223.207 Q1065.41 216.842 1068.84 213.115 Q1072.28 209.365 1078.12 209.365 Q1083.35 209.365 1086.38 212.745 Q1089.44 216.101 1089.44 221.888 M1085.18 220.638 Q1085.13 217.143 1083.21 215.059 Q1081.31 212.976 1078.16 212.976 Q1074.6 212.976 1072.45 214.99 Q1070.32 217.004 1069.99 220.661 L1085.18 220.638 Z" fill="#000000" fill-rule="nonzero" fill-opacity="1" /><path clip-path="url(#clip430)" d="M1112.96 210.754 L1112.96 214.782 Q1111.15 213.856 1109.21 213.393 Q1107.26 212.93 1105.18 212.93 Q1102.01 212.93 1100.41 213.902 Q1098.84 214.874 1098.84 216.819 Q1098.84 218.3 1099.97 219.157 Q1101.1 219.99 1104.53 220.754 L1105.99 221.078 Q1110.53 222.05 1112.42 223.832 Q1114.34 225.592 1114.34 228.763 Q1114.34 232.374 1111.47 234.481 Q1108.63 236.587 1103.63 236.587 Q1101.54 236.587 1099.28 236.17 Q1097.03 235.777 1094.53 234.967 L1094.53 230.569 Q1096.89 231.795 1099.18 232.42 Q1101.47 233.022 1103.72 233.022 Q1106.73 233.022 1108.35 232.004 Q1109.97 230.962 1109.97 229.087 Q1109.97 227.351 1108.79 226.425 Q1107.63 225.499 1103.67 224.643 L1102.19 224.295 Q1098.23 223.462 1096.47 221.749 Q1094.72 220.013 1094.72 217.004 Q1094.72 213.346 1097.31 211.356 Q1099.9 209.365 1104.67 209.365 Q1107.03 209.365 1109.11 209.712 Q1111.2 210.059 1112.96 210.754 Z" fill="#000000" fill-rule="nonzero" fill-opacity="1" /><path clip-path="url(#clip430)" d="M1122.22 230.036 L1127.1 230.036 L1127.1 234.018 L1123.3 241.425 L1120.32 241.425 L1122.22 234.018 L1122.22 230.036 Z" fill="#000000" fill-rule="nonzero" fill-opacity="1" /><path clip-path="url(#clip430)" d="M1152.68 231.981 L1160.32 231.981 L1160.32 205.615 L1152.01 207.282 L1152.01 203.022 L1160.27 201.356 L1164.95 201.356 L1164.95 231.981 L1172.59 231.981 L1172.59 235.916 L1152.68 235.916 L1152.68 231.981 Z" fill="#000000" fill-rule="nonzero" fill-opacity="1" /><path clip-path="url(#clip430)" d="M1186.06 231.981 L1202.38 231.981 L1202.38 235.916 L1180.43 235.916 L1180.43 231.981 Q1183.09 229.226 1187.68 224.596 Q1192.28 219.944 1193.46 218.601 Q1195.71 216.078 1196.59 214.342 Q1197.49 212.583 1197.49 210.893 Q1197.49 208.138 1195.55 206.402 Q1193.63 204.666 1190.53 204.666 Q1188.33 204.666 1185.87 205.43 Q1183.44 206.194 1180.66 207.745 L1180.66 203.022 Q1183.49 201.888 1185.94 201.309 Q1188.4 200.731 1190.43 200.731 Q1195.8 200.731 1199 203.416 Q1202.19 206.101 1202.19 210.592 Q1202.19 212.721 1201.38 214.643 Q1200.59 216.541 1198.49 219.133 Q1197.91 219.805 1194.81 223.022 Q1191.71 226.217 1186.06 231.981 Z" fill="#000000" fill-rule="nonzero" fill-opacity="1" /><path clip-path="url(#clip430)" d="M1239.78 199.897 L1239.78 203.439 L1235.71 203.439 Q1233.42 203.439 1232.52 204.365 Q1231.64 205.291 1231.64 207.698 L1231.64 209.99 L1238.65 209.99 L1238.65 213.3 L1231.64 213.3 L1231.64 235.916 L1227.35 235.916 L1227.35 213.3 L1223.28 213.3 L1223.28 209.99 L1227.35 209.99 L1227.35 208.184 Q1227.35 203.856 1229.37 201.888 Q1231.38 199.897 1235.76 199.897 L1239.78 199.897 Z" fill="#000000" fill-rule="nonzero" fill-opacity="1" /><path clip-path="url(#clip430)" d="M1255.13 222.883 Q1249.97 222.883 1247.98 224.064 Q1245.99 225.244 1245.99 228.092 Q1245.99 230.36 1247.47 231.703 Q1248.97 233.022 1251.54 233.022 Q1255.08 233.022 1257.21 230.522 Q1259.37 227.999 1259.37 223.832 L1259.37 222.883 L1255.13 222.883 M1263.63 221.124 L1263.63 235.916 L1259.37 235.916 L1259.37 231.981 Q1257.91 234.342 1255.73 235.476 Q1253.56 236.587 1250.41 236.587 Q1246.43 236.587 1244.07 234.365 Q1241.73 232.119 1241.73 228.369 Q1241.73 223.994 1244.65 221.772 Q1247.58 219.55 1253.4 219.55 L1259.37 219.55 L1259.37 219.133 Q1259.37 216.194 1257.42 214.596 Q1255.5 212.976 1252.01 212.976 Q1249.78 212.976 1247.68 213.508 Q1245.57 214.041 1243.63 215.106 L1243.63 211.17 Q1245.96 210.268 1248.16 209.828 Q1250.36 209.365 1252.45 209.365 Q1258.07 209.365 1260.85 212.282 Q1263.63 215.198 1263.63 221.124 Z" fill="#000000" fill-rule="nonzero" fill-opacity="1" /><path clip-path="url(#clip430)" d="M1272.4 209.99 L1276.66 209.99 L1276.66 235.916 L1272.4 235.916 L1272.4 209.99 M1272.4 199.897 L1276.66 199.897 L1276.66 205.291 L1272.4 205.291 L1272.4 199.897 Z" fill="#000000" fill-rule="nonzero" fill-opacity="1" /><path clip-path="url(#clip430)" d="M1285.57 199.897 L1289.83 199.897 L1289.83 235.916 L1285.57 235.916 L1285.57 199.897 Z" fill="#000000" fill-rule="nonzero" fill-opacity="1" /><path clip-path="url(#clip430)" d="M1298.3 225.684 L1298.3 209.99 L1302.56 209.99 L1302.56 225.522 Q1302.56 229.203 1304 231.055 Q1305.43 232.883 1308.3 232.883 Q1311.75 232.883 1313.74 230.684 Q1315.76 228.485 1315.76 224.689 L1315.76 209.99 L1320.02 209.99 L1320.02 235.916 L1315.76 235.916 L1315.76 231.934 Q1314.2 234.295 1312.14 235.453 Q1310.11 236.587 1307.4 236.587 Q1302.93 236.587 1300.62 233.809 Q1298.3 231.031 1298.3 225.684 M1309.02 209.365 L1309.02 209.365 Z" fill="#000000" fill-rule="nonzero" fill-opacity="1" /><path clip-path="url(#clip430)" d="M1343.81 213.971 Q1343.09 213.555 1342.24 213.37 Q1341.4 213.161 1340.39 213.161 Q1336.77 213.161 1334.83 215.522 Q1332.91 217.86 1332.91 222.258 L1332.91 235.916 L1328.63 235.916 L1328.63 209.99 L1332.91 209.99 L1332.91 214.018 Q1334.25 211.657 1336.4 210.522 Q1338.56 209.365 1341.64 209.365 Q1342.08 209.365 1342.61 209.434 Q1343.14 209.481 1343.79 209.596 L1343.81 213.971 Z" fill="#000000" fill-rule="nonzero" fill-opacity="1" /><path clip-path="url(#clip430)" d="M1369.41 221.888 L1369.41 223.971 L1349.83 223.971 Q1350.11 228.369 1352.47 230.684 Q1354.85 232.976 1359.09 232.976 Q1361.54 232.976 1363.83 232.374 Q1366.15 231.772 1368.42 230.569 L1368.42 234.596 Q1366.13 235.568 1363.72 236.078 Q1361.31 236.587 1358.83 236.587 Q1352.63 236.587 1349 232.976 Q1345.39 229.365 1345.39 223.207 Q1345.39 216.842 1348.81 213.115 Q1352.26 209.365 1358.09 209.365 Q1363.33 209.365 1366.36 212.745 Q1369.41 216.101 1369.41 221.888 M1365.15 220.638 Q1365.11 217.143 1363.19 215.059 Q1361.29 212.976 1358.14 212.976 Q1354.58 212.976 1352.42 214.99 Q1350.29 217.004 1349.97 220.661 L1365.15 220.638 Z" fill="#000000" fill-rule="nonzero" fill-opacity="1" /><path clip-path="url(#clip430)" d="M1392.93 210.754 L1392.93 214.782 Q1391.13 213.856 1389.18 213.393 Q1387.24 212.93 1385.15 212.93 Q1381.98 212.93 1380.39 213.902 Q1378.81 214.874 1378.81 216.819 Q1378.81 218.3 1379.95 219.157 Q1381.08 219.99 1384.51 220.754 L1385.96 221.078 Q1390.5 222.05 1392.4 223.832 Q1394.32 225.592 1394.32 228.763 Q1394.32 232.374 1391.45 234.481 Q1388.6 236.587 1383.6 236.587 Q1381.52 236.587 1379.25 236.17 Q1377.01 235.777 1374.51 234.967 L1374.51 230.569 Q1376.87 231.795 1379.16 232.42 Q1381.45 233.022 1383.7 233.022 Q1386.7 233.022 1388.32 232.004 Q1389.95 230.962 1389.95 229.087 Q1389.95 227.351 1388.76 226.425 Q1387.61 225.499 1383.65 224.643 L1382.17 224.295 Q1378.21 223.462 1376.45 221.749 Q1374.69 220.013 1374.69 217.004 Q1374.69 213.346 1377.28 211.356 Q1379.88 209.365 1384.64 209.365 Q1387.01 209.365 1389.09 209.712 Q1391.17 210.059 1392.93 210.754 Z" fill="#000000" fill-rule="nonzero" fill-opacity="1" /><path clip-path="url(#clip430)" d="M1400.43 199.944 L1404.14 199.944 Q1407.61 205.407 1409.32 210.638 Q1411.06 215.87 1411.06 221.032 Q1411.06 226.217 1409.32 231.471 Q1407.61 236.726 1404.14 242.166 L1400.43 242.166 Q1403.51 236.865 1405.01 231.633 Q1406.54 226.379 1406.54 221.032 Q1406.54 215.684 1405.01 210.476 Q1403.51 205.268 1400.43 199.944 Z" fill="#000000" fill-rule="nonzero" fill-opacity="1" /></svg>
