<?xml version="1.0" encoding="utf-8"?>
<svg xmlns="http://www.w3.org/2000/svg" xmlns:xlink="http://www.w3.org/1999/xlink" width="600" height="400" viewBox="0 0 2400 1600">
<defs>
  <clipPath id="clip890">
    <rect x="0" y="0" width="2400" height="1600"/>
  </clipPath>
</defs>
<path clip-path="url(#clip890)" d="M0 1600 L2400 1600 L2400 0 L0 0  Z" fill="#ffffff" fill-rule="evenodd" fill-opacity="1"/>
<defs>
  <clipPath id="clip891">
    <rect x="480" y="0" width="1681" height="1600"/>
  </clipPath>
</defs>
<path clip-path="url(#clip890)" d="M178.867 686.448 L2352.76 686.448 L2352.76 47.2441 L178.867 47.2441  Z" fill="#ffffff" fill-rule="evenodd" fill-opacity="1"/>
<defs>
  <clipPath id="clip892">
    <rect x="178" y="47" width="2175" height="640"/>
  </clipPath>
</defs>
<polyline clip-path="url(#clip892)" style="stroke:#000000; stroke-linecap:round; stroke-linejoin:round; stroke-width:2; stroke-opacity:0.1; fill:none" points="187.806,686.448 187.806,47.2441 "/>
<polyline clip-path="url(#clip892)" style="stroke:#000000; stroke-linecap:round; stroke-linejoin:round; stroke-width:2; stroke-opacity:0.1; fill:none" points="713.662,686.448 713.662,47.2441 "/>
<polyline clip-path="url(#clip892)" style="stroke:#000000; stroke-linecap:round; stroke-linejoin:round; stroke-width:2; stroke-opacity:0.1; fill:none" points="1239.52,686.448 1239.52,47.2441 "/>
<polyline clip-path="url(#clip892)" style="stroke:#000000; stroke-linecap:round; stroke-linejoin:round; stroke-width:2; stroke-opacity:0.1; fill:none" points="1765.37,686.448 1765.37,47.2441 "/>
<polyline clip-path="url(#clip892)" style="stroke:#000000; stroke-linecap:round; stroke-linejoin:round; stroke-width:2; stroke-opacity:0.1; fill:none" points="2291.23,686.448 2291.23,47.2441 "/>
<polyline clip-path="url(#clip892)" style="stroke:#000000; stroke-linecap:round; stroke-linejoin:round; stroke-width:2; stroke-opacity:0.1; fill:none" points="178.867,601.66 2352.76,601.66 "/>
<polyline clip-path="url(#clip892)" style="stroke:#000000; stroke-linecap:round; stroke-linejoin:round; stroke-width:2; stroke-opacity:0.1; fill:none" points="178.867,481.099 2352.76,481.099 "/>
<polyline clip-path="url(#clip892)" style="stroke:#000000; stroke-linecap:round; stroke-linejoin:round; stroke-width:2; stroke-opacity:0.1; fill:none" points="178.867,360.539 2352.76,360.539 "/>
<polyline clip-path="url(#clip892)" style="stroke:#000000; stroke-linecap:round; stroke-linejoin:round; stroke-width:2; stroke-opacity:0.1; fill:none" points="178.867,239.979 2352.76,239.979 "/>
<polyline clip-path="url(#clip892)" style="stroke:#000000; stroke-linecap:round; stroke-linejoin:round; stroke-width:2; stroke-opacity:0.1; fill:none" points="178.867,119.419 2352.76,119.419 "/>
<polyline clip-path="url(#clip890)" style="stroke:#000000; stroke-linecap:round; stroke-linejoin:round; stroke-width:4; stroke-opacity:1; fill:none" points="178.867,686.448 2352.76,686.448 "/>
<polyline clip-path="url(#clip890)" style="stroke:#000000; stroke-linecap:round; stroke-linejoin:round; stroke-width:4; stroke-opacity:1; fill:none" points="187.806,686.448 187.806,667.55 "/>
<polyline clip-path="url(#clip890)" style="stroke:#000000; stroke-linecap:round; stroke-linejoin:round; stroke-width:4; stroke-opacity:1; fill:none" points="713.662,686.448 713.662,667.55 "/>
<polyline clip-path="url(#clip890)" style="stroke:#000000; stroke-linecap:round; stroke-linejoin:round; stroke-width:4; stroke-opacity:1; fill:none" points="1239.52,686.448 1239.52,667.55 "/>
<polyline clip-path="url(#clip890)" style="stroke:#000000; stroke-linecap:round; stroke-linejoin:round; stroke-width:4; stroke-opacity:1; fill:none" points="1765.37,686.448 1765.37,667.55 "/>
<polyline clip-path="url(#clip890)" style="stroke:#000000; stroke-linecap:round; stroke-linejoin:round; stroke-width:4; stroke-opacity:1; fill:none" points="2291.23,686.448 2291.23,667.55 "/>
<path clip-path="url(#clip890)" d="M187.806 717.367 Q184.195 717.367 182.366 720.931 Q180.561 724.473 180.561 731.603 Q180.561 738.709 182.366 742.274 Q184.195 745.815 187.806 745.815 Q191.44 745.815 193.246 742.274 Q195.075 738.709 195.075 731.603 Q195.075 724.473 193.246 720.931 Q191.44 717.367 187.806 717.367 M187.806 713.663 Q193.616 713.663 196.672 718.269 Q199.751 722.853 199.751 731.603 Q199.751 740.329 196.672 744.936 Q193.616 749.519 187.806 749.519 Q181.996 749.519 178.917 744.936 Q175.862 740.329 175.862 731.603 Q175.862 722.853 178.917 718.269 Q181.996 713.663 187.806 713.663 Z" fill="#000000" fill-rule="nonzero" fill-opacity="1" /><path clip-path="url(#clip890)" d="M688.35 744.913 L695.989 744.913 L695.989 718.547 L687.679 720.214 L687.679 715.955 L695.943 714.288 L700.618 714.288 L700.618 744.913 L708.257 744.913 L708.257 748.848 L688.35 748.848 L688.35 744.913 Z" fill="#000000" fill-rule="nonzero" fill-opacity="1" /><path clip-path="url(#clip890)" d="M727.702 717.367 Q724.091 717.367 722.262 720.931 Q720.456 724.473 720.456 731.603 Q720.456 738.709 722.262 742.274 Q724.091 745.815 727.702 745.815 Q731.336 745.815 733.141 742.274 Q734.97 738.709 734.97 731.603 Q734.97 724.473 733.141 720.931 Q731.336 717.367 727.702 717.367 M727.702 713.663 Q733.512 713.663 736.567 718.269 Q739.646 722.853 739.646 731.603 Q739.646 740.329 736.567 744.936 Q733.512 749.519 727.702 749.519 Q721.891 749.519 718.813 744.936 Q715.757 740.329 715.757 731.603 Q715.757 722.853 718.813 718.269 Q721.891 713.663 727.702 713.663 Z" fill="#000000" fill-rule="nonzero" fill-opacity="1" /><path clip-path="url(#clip890)" d="M1218.29 744.913 L1234.61 744.913 L1234.61 748.848 L1212.67 748.848 L1212.67 744.913 Q1215.33 742.158 1219.91 737.528 Q1224.52 732.876 1225.7 731.533 Q1227.94 729.01 1228.82 727.274 Q1229.73 725.515 1229.73 723.825 Q1229.73 721.07 1227.78 719.334 Q1225.86 717.598 1222.76 717.598 Q1220.56 717.598 1218.11 718.362 Q1215.68 719.126 1212.9 720.677 L1212.9 715.955 Q1215.72 714.82 1218.18 714.242 Q1220.63 713.663 1222.67 713.663 Q1228.04 713.663 1231.23 716.348 Q1234.43 719.033 1234.43 723.524 Q1234.43 725.654 1233.62 727.575 Q1232.83 729.473 1230.72 732.066 Q1230.14 732.737 1227.04 735.954 Q1223.94 739.149 1218.29 744.913 Z" fill="#000000" fill-rule="nonzero" fill-opacity="1" /><path clip-path="url(#clip890)" d="M1254.43 717.367 Q1250.81 717.367 1248.99 720.931 Q1247.18 724.473 1247.18 731.603 Q1247.18 738.709 1248.99 742.274 Q1250.81 745.815 1254.43 745.815 Q1258.06 745.815 1259.87 742.274 Q1261.69 738.709 1261.69 731.603 Q1261.69 724.473 1259.87 720.931 Q1258.06 717.367 1254.43 717.367 M1254.43 713.663 Q1260.24 713.663 1263.29 718.269 Q1266.37 722.853 1266.37 731.603 Q1266.37 740.329 1263.29 744.936 Q1260.24 749.519 1254.43 749.519 Q1248.62 749.519 1245.54 744.936 Q1242.48 740.329 1242.48 731.603 Q1242.48 722.853 1245.54 718.269 Q1248.62 713.663 1254.43 713.663 Z" fill="#000000" fill-rule="nonzero" fill-opacity="1" /><path clip-path="url(#clip890)" d="M1754.22 730.214 Q1757.57 730.931 1759.45 733.2 Q1761.35 735.468 1761.35 738.802 Q1761.35 743.917 1757.83 746.718 Q1754.31 749.519 1747.83 749.519 Q1745.65 749.519 1743.34 749.079 Q1741.05 748.663 1738.59 747.806 L1738.59 743.292 Q1740.54 744.427 1742.85 745.005 Q1745.17 745.584 1747.69 745.584 Q1752.09 745.584 1754.38 743.848 Q1756.69 742.112 1756.69 738.802 Q1756.69 735.746 1754.54 734.033 Q1752.41 732.297 1748.59 732.297 L1744.56 732.297 L1744.56 728.454 L1748.78 728.454 Q1752.23 728.454 1754.06 727.089 Q1755.88 725.7 1755.88 723.107 Q1755.88 720.445 1753.99 719.033 Q1752.11 717.598 1748.59 717.598 Q1746.67 717.598 1744.47 718.015 Q1742.27 718.431 1739.63 719.311 L1739.63 715.144 Q1742.3 714.404 1744.61 714.033 Q1746.95 713.663 1749.01 713.663 Q1754.33 713.663 1757.43 716.093 Q1760.54 718.501 1760.54 722.621 Q1760.54 725.492 1758.89 727.482 Q1757.25 729.45 1754.22 730.214 Z" fill="#000000" fill-rule="nonzero" fill-opacity="1" /><path clip-path="url(#clip890)" d="M1780.21 717.367 Q1776.6 717.367 1774.77 720.931 Q1772.97 724.473 1772.97 731.603 Q1772.97 738.709 1774.77 742.274 Q1776.6 745.815 1780.21 745.815 Q1783.85 745.815 1785.65 742.274 Q1787.48 738.709 1787.48 731.603 Q1787.48 724.473 1785.65 720.931 Q1783.85 717.367 1780.21 717.367 M1780.21 713.663 Q1786.02 713.663 1789.08 718.269 Q1792.16 722.853 1792.16 731.603 Q1792.16 740.329 1789.08 744.936 Q1786.02 749.519 1780.21 749.519 Q1774.4 749.519 1771.32 744.936 Q1768.27 740.329 1768.27 731.603 Q1768.27 722.853 1771.32 718.269 Q1774.4 713.663 1780.21 713.663 Z" fill="#000000" fill-rule="nonzero" fill-opacity="1" /><path clip-path="url(#clip890)" d="M2279.4 718.362 L2267.6 736.811 L2279.4 736.811 L2279.4 718.362 M2278.18 714.288 L2284.05 714.288 L2284.05 736.811 L2288.99 736.811 L2288.99 740.7 L2284.05 740.7 L2284.05 748.848 L2279.4 748.848 L2279.4 740.7 L2263.8 740.7 L2263.8 736.186 L2278.18 714.288 Z" fill="#000000" fill-rule="nonzero" fill-opacity="1" /><path clip-path="url(#clip890)" d="M2306.72 717.367 Q2303.11 717.367 2301.28 720.931 Q2299.47 724.473 2299.47 731.603 Q2299.47 738.709 2301.28 742.274 Q2303.11 745.815 2306.72 745.815 Q2310.35 745.815 2312.16 742.274 Q2313.99 738.709 2313.99 731.603 Q2313.99 724.473 2312.16 720.931 Q2310.35 717.367 2306.72 717.367 M2306.72 713.663 Q2312.53 713.663 2315.58 718.269 Q2318.66 722.853 2318.66 731.603 Q2318.66 740.329 2315.58 744.936 Q2312.53 749.519 2306.72 749.519 Q2300.91 749.519 2297.83 744.936 Q2294.77 740.329 2294.77 731.603 Q2294.77 722.853 2297.83 718.269 Q2300.91 713.663 2306.72 713.663 Z" fill="#000000" fill-rule="nonzero" fill-opacity="1" /><polyline clip-path="url(#clip890)" style="stroke:#000000; stroke-linecap:round; stroke-linejoin:round; stroke-width:4; stroke-opacity:1; fill:none" points="178.867,686.448 178.867,47.2441 "/>
<polyline clip-path="url(#clip890)" style="stroke:#000000; stroke-linecap:round; stroke-linejoin:round; stroke-width:4; stroke-opacity:1; fill:none" points="178.867,601.66 197.764,601.66 "/>
<polyline clip-path="url(#clip890)" style="stroke:#000000; stroke-linecap:round; stroke-linejoin:round; stroke-width:4; stroke-opacity:1; fill:none" points="178.867,481.099 197.764,481.099 "/>
<polyline clip-path="url(#clip890)" style="stroke:#000000; stroke-linecap:round; stroke-linejoin:round; stroke-width:4; stroke-opacity:1; fill:none" points="178.867,360.539 197.764,360.539 "/>
<polyline clip-path="url(#clip890)" style="stroke:#000000; stroke-linecap:round; stroke-linejoin:round; stroke-width:4; stroke-opacity:1; fill:none" points="178.867,239.979 197.764,239.979 "/>
<polyline clip-path="url(#clip890)" style="stroke:#000000; stroke-linecap:round; stroke-linejoin:round; stroke-width:4; stroke-opacity:1; fill:none" points="178.867,119.419 197.764,119.419 "/>
<path clip-path="url(#clip890)" d="M50.9921 602.111 L80.6679 602.111 L80.6679 606.046 L50.9921 606.046 L50.9921 602.111 Z" fill="#000000" fill-rule="nonzero" fill-opacity="1" /><path clip-path="url(#clip890)" d="M94.7882 615.005 L111.108 615.005 L111.108 618.94 L89.1632 618.94 L89.1632 615.005 Q91.8252 612.25 96.4085 607.62 Q101.015 602.968 102.196 601.625 Q104.441 599.102 105.321 597.366 Q106.223 595.607 106.223 593.917 Q106.223 591.162 104.279 589.426 Q102.358 587.69 99.2558 587.69 Q97.0567 587.69 94.603 588.454 Q92.1725 589.218 89.3947 590.769 L89.3947 586.046 Q92.2188 584.912 94.6724 584.333 Q97.1261 583.755 99.1632 583.755 Q104.534 583.755 107.728 586.44 Q110.922 589.125 110.922 593.616 Q110.922 595.745 110.112 597.667 Q109.325 599.565 107.219 602.157 Q106.64 602.829 103.538 606.046 Q100.436 609.241 94.7882 615.005 Z" fill="#000000" fill-rule="nonzero" fill-opacity="1" /><path clip-path="url(#clip890)" d="M130.922 587.458 Q127.311 587.458 125.482 591.023 Q123.677 594.565 123.677 601.694 Q123.677 608.801 125.482 612.366 Q127.311 615.907 130.922 615.907 Q134.556 615.907 136.362 612.366 Q138.191 608.801 138.191 601.694 Q138.191 594.565 136.362 591.023 Q134.556 587.458 130.922 587.458 M130.922 583.755 Q136.732 583.755 139.788 588.361 Q142.867 592.945 142.867 601.694 Q142.867 610.421 139.788 615.028 Q136.732 619.611 130.922 619.611 Q125.112 619.611 122.033 615.028 Q118.978 610.421 118.978 601.694 Q118.978 592.945 122.033 588.361 Q125.112 583.755 130.922 583.755 Z" fill="#000000" fill-rule="nonzero" fill-opacity="1" /><path clip-path="url(#clip890)" d="M50.9921 481.551 L80.6679 481.551 L80.6679 485.486 L50.9921 485.486 L50.9921 481.551 Z" fill="#000000" fill-rule="nonzero" fill-opacity="1" /><path clip-path="url(#clip890)" d="M91.5706 494.444 L99.2095 494.444 L99.2095 468.079 L90.8993 469.745 L90.8993 465.486 L99.1632 463.819 L103.839 463.819 L103.839 494.444 L111.478 494.444 L111.478 498.379 L91.5706 498.379 L91.5706 494.444 Z" fill="#000000" fill-rule="nonzero" fill-opacity="1" /><path clip-path="url(#clip890)" d="M130.922 466.898 Q127.311 466.898 125.482 470.463 Q123.677 474.005 123.677 481.134 Q123.677 488.241 125.482 491.805 Q127.311 495.347 130.922 495.347 Q134.556 495.347 136.362 491.805 Q138.191 488.241 138.191 481.134 Q138.191 474.005 136.362 470.463 Q134.556 466.898 130.922 466.898 M130.922 463.194 Q136.732 463.194 139.788 467.801 Q142.867 472.384 142.867 481.134 Q142.867 489.861 139.788 494.467 Q136.732 499.051 130.922 499.051 Q125.112 499.051 122.033 494.467 Q118.978 489.861 118.978 481.134 Q118.978 472.384 122.033 467.801 Q125.112 463.194 130.922 463.194 Z" fill="#000000" fill-rule="nonzero" fill-opacity="1" /><path clip-path="url(#clip890)" d="M130.922 346.338 Q127.311 346.338 125.482 349.903 Q123.677 353.444 123.677 360.574 Q123.677 367.68 125.482 371.245 Q127.311 374.787 130.922 374.787 Q134.556 374.787 136.362 371.245 Q138.191 367.68 138.191 360.574 Q138.191 353.444 136.362 349.903 Q134.556 346.338 130.922 346.338 M130.922 342.634 Q136.732 342.634 139.788 347.241 Q142.867 351.824 142.867 360.574 Q142.867 369.301 139.788 373.907 Q136.732 378.49 130.922 378.49 Q125.112 378.49 122.033 373.907 Q118.978 369.301 118.978 360.574 Q118.978 351.824 122.033 347.241 Q125.112 342.634 130.922 342.634 Z" fill="#000000" fill-rule="nonzero" fill-opacity="1" /><path clip-path="url(#clip890)" d="M91.5706 253.324 L99.2095 253.324 L99.2095 226.958 L90.8993 228.625 L90.8993 224.366 L99.1632 222.699 L103.839 222.699 L103.839 253.324 L111.478 253.324 L111.478 257.259 L91.5706 257.259 L91.5706 253.324 Z" fill="#000000" fill-rule="nonzero" fill-opacity="1" /><path clip-path="url(#clip890)" d="M130.922 225.778 Q127.311 225.778 125.482 229.342 Q123.677 232.884 123.677 240.014 Q123.677 247.12 125.482 250.685 Q127.311 254.226 130.922 254.226 Q134.556 254.226 136.362 250.685 Q138.191 247.12 138.191 240.014 Q138.191 232.884 136.362 229.342 Q134.556 225.778 130.922 225.778 M130.922 222.074 Q136.732 222.074 139.788 226.68 Q142.867 231.264 142.867 240.014 Q142.867 248.74 139.788 253.347 Q136.732 257.93 130.922 257.93 Q125.112 257.93 122.033 253.347 Q118.978 248.74 118.978 240.014 Q118.978 231.264 122.033 226.68 Q125.112 222.074 130.922 222.074 Z" fill="#000000" fill-rule="nonzero" fill-opacity="1" /><path clip-path="url(#clip890)" d="M94.7882 132.763 L111.108 132.763 L111.108 136.699 L89.1632 136.699 L89.1632 132.763 Q91.8252 130.009 96.4085 125.379 Q101.015 120.726 102.196 119.384 Q104.441 116.861 105.321 115.125 Q106.223 113.365 106.223 111.676 Q106.223 108.921 104.279 107.185 Q102.358 105.449 99.2558 105.449 Q97.0567 105.449 94.603 106.213 Q92.1725 106.977 89.3947 108.527 L89.3947 103.805 Q92.2188 102.671 94.6724 102.092 Q97.1261 101.514 99.1632 101.514 Q104.534 101.514 107.728 104.199 Q110.922 106.884 110.922 111.375 Q110.922 113.504 110.112 115.426 Q109.325 117.324 107.219 119.916 Q106.64 120.588 103.538 123.805 Q100.436 127 94.7882 132.763 Z" fill="#000000" fill-rule="nonzero" fill-opacity="1" /><path clip-path="url(#clip890)" d="M130.922 105.217 Q127.311 105.217 125.482 108.782 Q123.677 112.324 123.677 119.453 Q123.677 126.56 125.482 130.125 Q127.311 133.666 130.922 133.666 Q134.556 133.666 136.362 130.125 Q138.191 126.56 138.191 119.453 Q138.191 112.324 136.362 108.782 Q134.556 105.217 130.922 105.217 M130.922 101.514 Q136.732 101.514 139.788 106.12 Q142.867 110.703 142.867 119.453 Q142.867 128.18 139.788 132.787 Q136.732 137.37 130.922 137.37 Q125.112 137.37 122.033 132.787 Q118.978 128.18 118.978 119.453 Q118.978 110.703 122.033 106.12 Q125.112 101.514 130.922 101.514 Z" fill="#000000" fill-rule="nonzero" fill-opacity="1" /><polyline clip-path="url(#clip892)" style="stroke:#009af9; stroke-linecap:round; stroke-linejoin:round; stroke-width:8; stroke-opacity:1; fill:none" points="240.392,245.344 292.977,311.816 345.563,403.521 398.149,499.41 450.734,567.529 503.32,597.19 555.905,614.472 608.491,581.758 661.077,509.119 713.662,423.37 766.248,347.179 818.834,278.235 871.419,199.24 924.005,123.479 976.59,100.143 1029.18,108.662 1081.76,157.968 1134.35,236.289 1186.93,334.233 1239.52,441.189 1292.1,549.182 1344.69,615.879 1397.28,649.457 1449.86,629.094 1502.45,552.963 1555.03,474.351 1607.62,363.608 1660.2,262.231 1712.79,185.786 1765.37,104.14 1817.96,65.3348 1870.55,96.5982 1923.13,189.426 1975.72,283.369 2028.3,404.176 2080.89,498.468 2133.47,591.131 2186.06,664.491 2238.65,636.26 2291.23,594.865 "/>
<circle clip-path="url(#clip892)" cx="240.392" cy="261.695" r="14.4" fill="#e26f46" fill-rule="evenodd" fill-opacity="1" stroke="#000000" stroke-opacity="1" stroke-width="3.2"/>
<circle clip-path="url(#clip892)" cx="292.977" cy="301.732" r="14.4" fill="#e26f46" fill-rule="evenodd" fill-opacity="1" stroke="#000000" stroke-opacity="1" stroke-width="3.2"/>
<circle clip-path="url(#clip892)" cx="345.563" cy="424.056" r="14.4" fill="#e26f46" fill-rule="evenodd" fill-opacity="1" stroke="#000000" stroke-opacity="1" stroke-width="3.2"/>
<circle clip-path="url(#clip892)" cx="398.149" cy="487.491" r="14.4" fill="#e26f46" fill-rule="evenodd" fill-opacity="1" stroke="#000000" stroke-opacity="1" stroke-width="3.2"/>
<circle clip-path="url(#clip892)" cx="450.734" cy="556.842" r="14.4" fill="#e26f46" fill-rule="evenodd" fill-opacity="1" stroke="#000000" stroke-opacity="1" stroke-width="3.2"/>
<circle clip-path="url(#clip892)" cx="503.32" cy="599.855" r="14.4" fill="#e26f46" fill-rule="evenodd" fill-opacity="1" stroke="#000000" stroke-opacity="1" stroke-width="3.2"/>
<circle clip-path="url(#clip892)" cx="555.905" cy="618.729" r="14.4" fill="#e26f46" fill-rule="evenodd" fill-opacity="1" stroke="#000000" stroke-opacity="1" stroke-width="3.2"/>
<circle clip-path="url(#clip892)" cx="608.491" cy="582.566" r="14.4" fill="#e26f46" fill-rule="evenodd" fill-opacity="1" stroke="#000000" stroke-opacity="1" stroke-width="3.2"/>
<circle clip-path="url(#clip892)" cx="661.077" cy="520.117" r="14.4" fill="#e26f46" fill-rule="evenodd" fill-opacity="1" stroke="#000000" stroke-opacity="1" stroke-width="3.2"/>
<circle clip-path="url(#clip892)" cx="713.662" cy="425.178" r="14.4" fill="#e26f46" fill-rule="evenodd" fill-opacity="1" stroke="#000000" stroke-opacity="1" stroke-width="3.2"/>
<circle clip-path="url(#clip892)" cx="766.248" cy="345.496" r="14.4" fill="#e26f46" fill-rule="evenodd" fill-opacity="1" stroke="#000000" stroke-opacity="1" stroke-width="3.2"/>
<circle clip-path="url(#clip892)" cx="818.834" cy="275.307" r="14.4" fill="#e26f46" fill-rule="evenodd" fill-opacity="1" stroke="#000000" stroke-opacity="1" stroke-width="3.2"/>
<circle clip-path="url(#clip892)" cx="871.419" cy="201.17" r="14.4" fill="#e26f46" fill-rule="evenodd" fill-opacity="1" stroke="#000000" stroke-opacity="1" stroke-width="3.2"/>
<circle clip-path="url(#clip892)" cx="924.005" cy="124.448" r="14.4" fill="#e26f46" fill-rule="evenodd" fill-opacity="1" stroke="#000000" stroke-opacity="1" stroke-width="3.2"/>
<circle clip-path="url(#clip892)" cx="976.59" cy="102.137" r="14.4" fill="#e26f46" fill-rule="evenodd" fill-opacity="1" stroke="#000000" stroke-opacity="1" stroke-width="3.2"/>
<circle clip-path="url(#clip892)" cx="1029.18" cy="110.707" r="14.4" fill="#e26f46" fill-rule="evenodd" fill-opacity="1" stroke="#000000" stroke-opacity="1" stroke-width="3.2"/>
<circle clip-path="url(#clip892)" cx="1081.76" cy="162.883" r="14.4" fill="#e26f46" fill-rule="evenodd" fill-opacity="1" stroke="#000000" stroke-opacity="1" stroke-width="3.2"/>
<circle clip-path="url(#clip892)" cx="1134.35" cy="231.943" r="14.4" fill="#e26f46" fill-rule="evenodd" fill-opacity="1" stroke="#000000" stroke-opacity="1" stroke-width="3.2"/>
<circle clip-path="url(#clip892)" cx="1186.93" cy="318.791" r="14.4" fill="#e26f46" fill-rule="evenodd" fill-opacity="1" stroke="#000000" stroke-opacity="1" stroke-width="3.2"/>
<circle clip-path="url(#clip892)" cx="1239.52" cy="462.507" r="14.4" fill="#e26f46" fill-rule="evenodd" fill-opacity="1" stroke="#000000" stroke-opacity="1" stroke-width="3.2"/>
<circle clip-path="url(#clip892)" cx="1292.1" cy="531.652" r="14.4" fill="#e26f46" fill-rule="evenodd" fill-opacity="1" stroke="#000000" stroke-opacity="1" stroke-width="3.2"/>
<circle clip-path="url(#clip892)" cx="1344.69" cy="602.284" r="14.4" fill="#e26f46" fill-rule="evenodd" fill-opacity="1" stroke="#000000" stroke-opacity="1" stroke-width="3.2"/>
<circle clip-path="url(#clip892)" cx="1397.28" cy="641.964" r="14.4" fill="#e26f46" fill-rule="evenodd" fill-opacity="1" stroke="#000000" stroke-opacity="1" stroke-width="3.2"/>
<circle clip-path="url(#clip892)" cx="1449.86" cy="626.104" r="14.4" fill="#e26f46" fill-rule="evenodd" fill-opacity="1" stroke="#000000" stroke-opacity="1" stroke-width="3.2"/>
<circle clip-path="url(#clip892)" cx="1502.45" cy="545.656" r="14.4" fill="#e26f46" fill-rule="evenodd" fill-opacity="1" stroke="#000000" stroke-opacity="1" stroke-width="3.2"/>
<circle clip-path="url(#clip892)" cx="1555.03" cy="453.869" r="14.4" fill="#e26f46" fill-rule="evenodd" fill-opacity="1" stroke="#000000" stroke-opacity="1" stroke-width="3.2"/>
<circle clip-path="url(#clip892)" cx="1607.62" cy="348.076" r="14.4" fill="#e26f46" fill-rule="evenodd" fill-opacity="1" stroke="#000000" stroke-opacity="1" stroke-width="3.2"/>
<circle clip-path="url(#clip892)" cx="1660.2" cy="266.299" r="14.4" fill="#e26f46" fill-rule="evenodd" fill-opacity="1" stroke="#000000" stroke-opacity="1" stroke-width="3.2"/>
<circle clip-path="url(#clip892)" cx="1712.79" cy="189.078" r="14.4" fill="#e26f46" fill-rule="evenodd" fill-opacity="1" stroke="#000000" stroke-opacity="1" stroke-width="3.2"/>
<circle clip-path="url(#clip892)" cx="1765.37" cy="97.4084" r="14.4" fill="#e26f46" fill-rule="evenodd" fill-opacity="1" stroke="#000000" stroke-opacity="1" stroke-width="3.2"/>
<circle clip-path="url(#clip892)" cx="1817.96" cy="80.1902" r="14.4" fill="#e26f46" fill-rule="evenodd" fill-opacity="1" stroke="#000000" stroke-opacity="1" stroke-width="3.2"/>
<circle clip-path="url(#clip892)" cx="1870.55" cy="107.319" r="14.4" fill="#e26f46" fill-rule="evenodd" fill-opacity="1" stroke="#000000" stroke-opacity="1" stroke-width="3.2"/>
<circle clip-path="url(#clip892)" cx="1923.13" cy="197.675" r="14.4" fill="#e26f46" fill-rule="evenodd" fill-opacity="1" stroke="#000000" stroke-opacity="1" stroke-width="3.2"/>
<circle clip-path="url(#clip892)" cx="1975.72" cy="296.398" r="14.4" fill="#e26f46" fill-rule="evenodd" fill-opacity="1" stroke="#000000" stroke-opacity="1" stroke-width="3.2"/>
<circle clip-path="url(#clip892)" cx="2028.3" cy="397.161" r="14.4" fill="#e26f46" fill-rule="evenodd" fill-opacity="1" stroke="#000000" stroke-opacity="1" stroke-width="3.2"/>
<circle clip-path="url(#clip892)" cx="2080.89" cy="485.381" r="14.4" fill="#e26f46" fill-rule="evenodd" fill-opacity="1" stroke="#000000" stroke-opacity="1" stroke-width="3.2"/>
<circle clip-path="url(#clip892)" cx="2133.47" cy="593.344" r="14.4" fill="#e26f46" fill-rule="evenodd" fill-opacity="1" stroke="#000000" stroke-opacity="1" stroke-width="3.2"/>
<circle clip-path="url(#clip892)" cx="2186.06" cy="668.357" r="14.4" fill="#e26f46" fill-rule="evenodd" fill-opacity="1" stroke="#000000" stroke-opacity="1" stroke-width="3.2"/>
<circle clip-path="url(#clip892)" cx="2238.65" cy="647.81" r="14.4" fill="#e26f46" fill-rule="evenodd" fill-opacity="1" stroke="#000000" stroke-opacity="1" stroke-width="3.2"/>
<circle clip-path="url(#clip892)" cx="2291.23" cy="603.614" r="14.4" fill="#e26f46" fill-rule="evenodd" fill-opacity="1" stroke="#000000" stroke-opacity="1" stroke-width="3.2"/>
<polyline clip-path="url(#clip892)" style="stroke:#3da44d; stroke-linecap:round; stroke-linejoin:round; stroke-width:8; stroke-opacity:1; fill:none" points="240.392,242.531 292.977,337.81 345.563,436.934 398.149,524.546 450.734,587.021 503.32,614.587 555.905,602.851 608.491,553.501 661.077,474.062 713.662,376.752 766.248,276.6 818.834,189.126 871.419,127.938 924.005,102.613 976.59,117.198 1029.18,169.567 1081.76,251.726 1134.35,351.035 1186.93,452.153 1239.52,539.405 1292.1,599.215 1344.69,622.216 1397.28,604.717 1449.86,549.294 1502.45,464.416 1555.03,363.143 1607.62,261.125 1660.2,174.179 1712.79,115.838 1765.37,95.2463 1817.96,115.723 1870.55,174.232 1923.13,261.828 1975.72,365.027 2028.3,467.877 2080.89,554.43 2133.47,611.208 2186.06,629.307 2238.65,605.789 2291.23,544.163 "/>
<path clip-path="url(#clip890)" d="M251.33 275.911 L846.842 275.911 L846.842 68.5509 L251.33 68.5509  Z" fill="#ffffff" fill-rule="evenodd" fill-opacity="1"/>
<polyline clip-path="url(#clip890)" style="stroke:#000000; stroke-linecap:round; stroke-linejoin:round; stroke-width:4; stroke-opacity:1; fill:none" points="251.33,275.911 846.842,275.911 846.842,68.5509 251.33,68.5509 251.33,275.911 "/>
<polyline clip-path="url(#clip890)" style="stroke:#009af9; stroke-linecap:round; stroke-linejoin:round; stroke-width:8; stroke-opacity:1; fill:none" points="275.484,120.391 420.41,120.391 "/>
<path clip-path="url(#clip890)" d="M451.972 104.384 L451.972 111.745 L460.745 111.745 L460.745 115.055 L451.972 115.055 L451.972 129.129 Q451.972 132.301 452.828 133.203 Q453.708 134.106 456.37 134.106 L460.745 134.106 L460.745 137.671 L456.37 137.671 Q451.439 137.671 449.564 135.842 Q447.689 133.99 447.689 129.129 L447.689 115.055 L444.564 115.055 L444.564 111.745 L447.689 111.745 L447.689 104.384 L451.972 104.384 Z" fill="#000000" fill-rule="nonzero" fill-opacity="1" /><path clip-path="url(#clip890)" d="M481.37 115.727 Q480.652 115.31 479.796 115.125 Q478.962 114.916 477.944 114.916 Q474.333 114.916 472.388 117.277 Q470.467 119.615 470.467 124.014 L470.467 137.671 L466.184 137.671 L466.184 111.745 L470.467 111.745 L470.467 115.773 Q471.809 113.412 473.962 112.278 Q476.115 111.12 479.194 111.12 Q479.633 111.12 480.166 111.19 Q480.698 111.236 481.346 111.352 L481.37 115.727 Z" fill="#000000" fill-rule="nonzero" fill-opacity="1" /><path clip-path="url(#clip890)" d="M485.397 127.439 L485.397 111.745 L489.657 111.745 L489.657 127.277 Q489.657 130.958 491.092 132.81 Q492.527 134.638 495.397 134.638 Q498.846 134.638 500.837 132.439 Q502.851 130.24 502.851 126.444 L502.851 111.745 L507.11 111.745 L507.11 137.671 L502.851 137.671 L502.851 133.689 Q501.3 136.051 499.24 137.208 Q497.203 138.342 494.494 138.342 Q490.027 138.342 487.712 135.564 Q485.397 132.787 485.397 127.439 M496.115 111.12 L496.115 111.12 Z" fill="#000000" fill-rule="nonzero" fill-opacity="1" /><path clip-path="url(#clip890)" d="M538.059 123.643 L538.059 125.727 L518.476 125.727 Q518.754 130.125 521.115 132.439 Q523.499 134.731 527.735 134.731 Q530.189 134.731 532.48 134.129 Q534.795 133.527 537.064 132.324 L537.064 136.351 Q534.772 137.324 532.365 137.833 Q529.957 138.342 527.48 138.342 Q521.277 138.342 517.643 134.731 Q514.031 131.12 514.031 124.963 Q514.031 118.597 517.457 114.87 Q520.906 111.12 526.74 111.12 Q531.971 111.12 535.004 114.5 Q538.059 117.856 538.059 123.643 M533.8 122.393 Q533.754 118.898 531.832 116.815 Q529.934 114.731 526.786 114.731 Q523.221 114.731 521.068 116.745 Q518.939 118.759 518.615 122.416 L533.8 122.393 Z" fill="#000000" fill-rule="nonzero" fill-opacity="1" /><path clip-path="url(#clip890)" d="M576.647 112.509 L576.647 116.537 Q574.841 115.611 572.897 115.148 Q570.952 114.685 568.869 114.685 Q565.698 114.685 564.101 115.657 Q562.527 116.629 562.527 118.574 Q562.527 120.055 563.661 120.912 Q564.795 121.745 568.221 122.509 L569.679 122.833 Q574.216 123.805 576.114 125.588 Q578.036 127.347 578.036 130.518 Q578.036 134.129 575.165 136.236 Q572.318 138.342 567.318 138.342 Q565.235 138.342 562.966 137.926 Q560.721 137.532 558.221 136.722 L558.221 132.324 Q560.582 133.551 562.874 134.176 Q565.165 134.777 567.411 134.777 Q570.42 134.777 572.04 133.759 Q573.661 132.717 573.661 130.842 Q573.661 129.106 572.48 128.18 Q571.323 127.254 567.364 126.398 L565.883 126.051 Q561.925 125.217 560.165 123.504 Q558.406 121.768 558.406 118.759 Q558.406 115.102 560.999 113.111 Q563.591 111.12 568.36 111.12 Q570.721 111.12 572.804 111.467 Q574.888 111.815 576.647 112.509 Z" fill="#000000" fill-rule="nonzero" fill-opacity="1" /><path clip-path="url(#clip890)" d="M589.031 104.384 L589.031 111.745 L597.804 111.745 L597.804 115.055 L589.031 115.055 L589.031 129.129 Q589.031 132.301 589.888 133.203 Q590.767 134.106 593.429 134.106 L597.804 134.106 L597.804 137.671 L593.429 137.671 Q588.499 137.671 586.624 135.842 Q584.749 133.99 584.749 129.129 L584.749 115.055 L581.624 115.055 L581.624 111.745 L584.749 111.745 L584.749 104.384 L589.031 104.384 Z" fill="#000000" fill-rule="nonzero" fill-opacity="1" /><path clip-path="url(#clip890)" d="M615.188 124.639 Q610.026 124.639 608.036 125.819 Q606.045 127 606.045 129.847 Q606.045 132.115 607.526 133.458 Q609.031 134.777 611.6 134.777 Q615.142 134.777 617.272 132.277 Q619.424 129.754 619.424 125.588 L619.424 124.639 L615.188 124.639 M623.684 122.879 L623.684 137.671 L619.424 137.671 L619.424 133.736 Q617.966 136.097 615.79 137.231 Q613.614 138.342 610.466 138.342 Q606.485 138.342 604.124 136.12 Q601.786 133.875 601.786 130.125 Q601.786 125.75 604.702 123.527 Q607.642 121.305 613.452 121.305 L619.424 121.305 L619.424 120.889 Q619.424 117.949 617.48 116.352 Q615.559 114.731 612.063 114.731 Q609.841 114.731 607.735 115.264 Q605.628 115.796 603.684 116.861 L603.684 112.926 Q606.022 112.023 608.221 111.583 Q610.42 111.12 612.503 111.12 Q618.128 111.12 620.906 114.037 Q623.684 116.953 623.684 122.879 Z" fill="#000000" fill-rule="nonzero" fill-opacity="1" /><path clip-path="url(#clip890)" d="M636.67 104.384 L636.67 111.745 L645.443 111.745 L645.443 115.055 L636.67 115.055 L636.67 129.129 Q636.67 132.301 637.526 133.203 Q638.406 134.106 641.068 134.106 L645.443 134.106 L645.443 137.671 L641.068 137.671 Q636.137 137.671 634.262 135.842 Q632.387 133.99 632.387 129.129 L632.387 115.055 L629.262 115.055 L629.262 111.745 L632.387 111.745 L632.387 104.384 L636.67 104.384 Z" fill="#000000" fill-rule="nonzero" fill-opacity="1" /><path clip-path="url(#clip890)" d="M673.22 123.643 L673.22 125.727 L653.637 125.727 Q653.915 130.125 656.276 132.439 Q658.66 134.731 662.896 134.731 Q665.35 134.731 667.642 134.129 Q669.957 133.527 672.225 132.324 L672.225 136.351 Q669.933 137.324 667.526 137.833 Q665.119 138.342 662.642 138.342 Q656.438 138.342 652.804 134.731 Q649.193 131.12 649.193 124.963 Q649.193 118.597 652.619 114.87 Q656.068 111.12 661.901 111.12 Q667.132 111.12 670.165 114.5 Q673.22 117.856 673.22 123.643 M668.961 122.393 Q668.915 118.898 666.994 116.815 Q665.095 114.731 661.947 114.731 Q658.383 114.731 656.23 116.745 Q654.1 118.759 653.776 122.416 L668.961 122.393 Z" fill="#000000" fill-rule="nonzero" fill-opacity="1" /><path clip-path="url(#clip890)" d="M696.739 112.509 L696.739 116.537 Q694.933 115.611 692.989 115.148 Q691.044 114.685 688.961 114.685 Q685.79 114.685 684.193 115.657 Q682.618 116.629 682.618 118.574 Q682.618 120.055 683.753 120.912 Q684.887 121.745 688.313 122.509 L689.771 122.833 Q694.308 123.805 696.206 125.588 Q698.128 127.347 698.128 130.518 Q698.128 134.129 695.257 136.236 Q692.41 138.342 687.41 138.342 Q685.327 138.342 683.058 137.926 Q680.813 137.532 678.313 136.722 L678.313 132.324 Q680.674 133.551 682.966 134.176 Q685.257 134.777 687.503 134.777 Q690.512 134.777 692.132 133.759 Q693.753 132.717 693.753 130.842 Q693.753 129.106 692.572 128.18 Q691.415 127.254 687.456 126.398 L685.975 126.051 Q682.017 125.217 680.257 123.504 Q678.498 121.768 678.498 118.759 Q678.498 115.102 681.091 113.111 Q683.683 111.12 688.452 111.12 Q690.813 111.12 692.896 111.467 Q694.98 111.815 696.739 112.509 Z" fill="#000000" fill-rule="nonzero" fill-opacity="1" /><circle clip-path="url(#clip890)" cx="347.947" cy="172.231" r="20.48" fill="#e26f46" fill-rule="evenodd" fill-opacity="1" stroke="#000000" stroke-opacity="1" stroke-width="4.55111"/>
<path clip-path="url(#clip890)" d="M456.462 166.571 Q453.036 166.571 451.046 169.256 Q449.055 171.918 449.055 176.571 Q449.055 181.224 451.023 183.909 Q453.013 186.571 456.462 186.571 Q459.865 186.571 461.856 183.886 Q463.847 181.201 463.847 176.571 Q463.847 171.965 461.856 169.28 Q459.865 166.571 456.462 166.571 M456.462 162.96 Q462.018 162.96 465.189 166.571 Q468.36 170.182 468.36 176.571 Q468.36 182.937 465.189 186.571 Q462.018 190.182 456.462 190.182 Q450.884 190.182 447.712 186.571 Q444.564 182.937 444.564 176.571 Q444.564 170.182 447.712 166.571 Q450.884 162.96 456.462 162.96 Z" fill="#000000" fill-rule="nonzero" fill-opacity="1" /><path clip-path="url(#clip890)" d="M494.032 176.571 Q494.032 171.872 492.087 169.21 Q490.166 166.525 486.786 166.525 Q483.407 166.525 481.462 169.21 Q479.541 171.872 479.541 176.571 Q479.541 181.27 481.462 183.955 Q483.407 186.617 486.786 186.617 Q490.166 186.617 492.087 183.955 Q494.032 181.27 494.032 176.571 M479.541 167.52 Q480.883 165.205 482.92 164.094 Q484.981 162.96 487.828 162.96 Q492.55 162.96 495.49 166.71 Q498.453 170.46 498.453 176.571 Q498.453 182.682 495.49 186.432 Q492.55 190.182 487.828 190.182 Q484.981 190.182 482.92 189.071 Q480.883 187.937 479.541 185.622 L479.541 189.511 L475.258 189.511 L475.258 153.493 L479.541 153.493 L479.541 167.52 Z" fill="#000000" fill-rule="nonzero" fill-opacity="1" /><path clip-path="url(#clip890)" d="M522.041 164.349 L522.041 168.377 Q520.235 167.451 518.291 166.988 Q516.346 166.525 514.263 166.525 Q511.092 166.525 509.494 167.497 Q507.92 168.469 507.92 170.414 Q507.92 171.895 509.055 172.752 Q510.189 173.585 513.615 174.349 L515.073 174.673 Q519.61 175.645 521.508 177.428 Q523.43 179.187 523.43 182.358 Q523.43 185.969 520.559 188.076 Q517.712 190.182 512.712 190.182 Q510.629 190.182 508.36 189.766 Q506.115 189.372 503.615 188.562 L503.615 184.164 Q505.976 185.391 508.268 186.016 Q510.559 186.617 512.805 186.617 Q515.814 186.617 517.434 185.599 Q519.055 184.557 519.055 182.682 Q519.055 180.946 517.874 180.02 Q516.717 179.094 512.758 178.238 L511.277 177.891 Q507.319 177.057 505.559 175.344 Q503.8 173.608 503.8 170.599 Q503.8 166.942 506.393 164.951 Q508.985 162.96 513.754 162.96 Q516.115 162.96 518.198 163.307 Q520.281 163.655 522.041 164.349 Z" fill="#000000" fill-rule="nonzero" fill-opacity="1" /><path clip-path="url(#clip890)" d="M552.388 175.483 L552.388 177.567 L532.804 177.567 Q533.082 181.965 535.443 184.279 Q537.828 186.571 542.064 186.571 Q544.517 186.571 546.809 185.969 Q549.124 185.367 551.392 184.164 L551.392 188.191 Q549.101 189.164 546.693 189.673 Q544.286 190.182 541.809 190.182 Q535.605 190.182 531.971 186.571 Q528.36 182.96 528.36 176.803 Q528.36 170.437 531.786 166.71 Q535.235 162.96 541.068 162.96 Q546.3 162.96 549.332 166.34 Q552.388 169.696 552.388 175.483 M548.128 174.233 Q548.082 170.738 546.161 168.655 Q544.263 166.571 541.115 166.571 Q537.55 166.571 535.397 168.585 Q533.267 170.599 532.943 174.256 L548.128 174.233 Z" fill="#000000" fill-rule="nonzero" fill-opacity="1" /><path clip-path="url(#clip890)" d="M574.401 167.567 Q573.684 167.15 572.827 166.965 Q571.994 166.756 570.976 166.756 Q567.364 166.756 565.42 169.117 Q563.499 171.455 563.499 175.854 L563.499 189.511 L559.216 189.511 L559.216 163.585 L563.499 163.585 L563.499 167.613 Q564.841 165.252 566.994 164.118 Q569.147 162.96 572.226 162.96 Q572.665 162.96 573.198 163.03 Q573.73 163.076 574.378 163.192 L574.401 167.567 Z" fill="#000000" fill-rule="nonzero" fill-opacity="1" /><path clip-path="url(#clip890)" d="M575.814 163.585 L580.327 163.585 L588.429 185.344 L596.531 163.585 L601.045 163.585 L591.323 189.511 L585.536 189.511 L575.814 163.585 Z" fill="#000000" fill-rule="nonzero" fill-opacity="1" /><path clip-path="url(#clip890)" d="M618.707 176.479 Q613.545 176.479 611.554 177.659 Q609.563 178.84 609.563 181.687 Q609.563 183.955 611.045 185.298 Q612.549 186.617 615.119 186.617 Q618.661 186.617 620.79 184.117 Q622.943 181.594 622.943 177.428 L622.943 176.479 L618.707 176.479 M627.202 174.719 L627.202 189.511 L622.943 189.511 L622.943 185.576 Q621.485 187.937 619.309 189.071 Q617.133 190.182 613.985 190.182 Q610.003 190.182 607.642 187.96 Q605.304 185.715 605.304 181.965 Q605.304 177.59 608.221 175.367 Q611.161 173.145 616.971 173.145 L622.943 173.145 L622.943 172.729 Q622.943 169.789 620.998 168.192 Q619.077 166.571 615.582 166.571 Q613.36 166.571 611.253 167.104 Q609.147 167.636 607.202 168.701 L607.202 164.766 Q609.54 163.863 611.739 163.423 Q613.938 162.96 616.022 162.96 Q621.647 162.96 624.424 165.877 Q627.202 168.793 627.202 174.719 Z" fill="#000000" fill-rule="nonzero" fill-opacity="1" /><path clip-path="url(#clip890)" d="M640.188 156.224 L640.188 163.585 L648.961 163.585 L648.961 166.895 L640.188 166.895 L640.188 180.969 Q640.188 184.141 641.045 185.043 Q641.924 185.946 644.586 185.946 L648.961 185.946 L648.961 189.511 L644.586 189.511 Q639.656 189.511 637.781 187.682 Q635.906 185.83 635.906 180.969 L635.906 166.895 L632.781 166.895 L632.781 163.585 L635.906 163.585 L635.906 156.224 L640.188 156.224 Z" fill="#000000" fill-rule="nonzero" fill-opacity="1" /><path clip-path="url(#clip890)" d="M654.563 163.585 L658.822 163.585 L658.822 189.511 L654.563 189.511 L654.563 163.585 M654.563 153.493 L658.822 153.493 L658.822 158.886 L654.563 158.886 L654.563 153.493 Z" fill="#000000" fill-rule="nonzero" fill-opacity="1" /><path clip-path="url(#clip890)" d="M677.781 166.571 Q674.355 166.571 672.364 169.256 Q670.373 171.918 670.373 176.571 Q670.373 181.224 672.341 183.909 Q674.331 186.571 677.781 186.571 Q681.183 186.571 683.174 183.886 Q685.165 181.201 685.165 176.571 Q685.165 171.965 683.174 169.28 Q681.183 166.571 677.781 166.571 M677.781 162.96 Q683.336 162.96 686.507 166.571 Q689.679 170.182 689.679 176.571 Q689.679 182.937 686.507 186.571 Q683.336 190.182 677.781 190.182 Q672.202 190.182 669.031 186.571 Q665.882 182.937 665.882 176.571 Q665.882 170.182 669.031 166.571 Q672.202 162.96 677.781 162.96 Z" fill="#000000" fill-rule="nonzero" fill-opacity="1" /><path clip-path="url(#clip890)" d="M718.29 173.863 L718.29 189.511 L714.03 189.511 L714.03 174.002 Q714.03 170.321 712.595 168.492 Q711.16 166.664 708.29 166.664 Q704.841 166.664 702.85 168.863 Q700.859 171.062 700.859 174.858 L700.859 189.511 L696.577 189.511 L696.577 163.585 L700.859 163.585 L700.859 167.613 Q702.387 165.275 704.447 164.118 Q706.53 162.96 709.239 162.96 Q713.706 162.96 715.998 165.738 Q718.29 168.492 718.29 173.863 Z" fill="#000000" fill-rule="nonzero" fill-opacity="1" /><path clip-path="url(#clip890)" d="M743.313 164.349 L743.313 168.377 Q741.507 167.451 739.563 166.988 Q737.618 166.525 735.535 166.525 Q732.364 166.525 730.766 167.497 Q729.192 168.469 729.192 170.414 Q729.192 171.895 730.327 172.752 Q731.461 173.585 734.887 174.349 L736.345 174.673 Q740.882 175.645 742.78 177.428 Q744.701 179.187 744.701 182.358 Q744.701 185.969 741.831 188.076 Q738.984 190.182 733.984 190.182 Q731.901 190.182 729.632 189.766 Q727.387 189.372 724.887 188.562 L724.887 184.164 Q727.248 185.391 729.54 186.016 Q731.831 186.617 734.077 186.617 Q737.086 186.617 738.706 185.599 Q740.327 184.557 740.327 182.682 Q740.327 180.946 739.146 180.02 Q737.989 179.094 734.03 178.238 L732.549 177.891 Q728.59 177.057 726.831 175.344 Q725.072 173.608 725.072 170.599 Q725.072 166.942 727.665 164.951 Q730.257 162.96 735.026 162.96 Q737.387 162.96 739.47 163.307 Q741.553 163.655 743.313 164.349 Z" fill="#000000" fill-rule="nonzero" fill-opacity="1" /><polyline clip-path="url(#clip890)" style="stroke:#3da44d; stroke-linecap:round; stroke-linejoin:round; stroke-width:8; stroke-opacity:1; fill:none" points="275.484,224.071 420.41,224.071 "/>
<path clip-path="url(#clip890)" d="M448.847 237.462 L448.847 251.212 L444.564 251.212 L444.564 215.425 L448.847 215.425 L448.847 219.36 Q450.189 217.045 452.226 215.934 Q454.286 214.8 457.134 214.8 Q461.856 214.8 464.796 218.55 Q467.759 222.3 467.759 228.411 Q467.759 234.522 464.796 238.272 Q461.856 242.022 457.134 242.022 Q454.286 242.022 452.226 240.911 Q450.189 239.777 448.847 237.462 M463.337 228.411 Q463.337 223.712 461.393 221.05 Q459.472 218.365 456.092 218.365 Q452.712 218.365 450.768 221.05 Q448.847 223.712 448.847 228.411 Q448.847 233.11 450.768 235.795 Q452.712 238.457 456.092 238.457 Q459.472 238.457 461.393 235.795 Q463.337 233.11 463.337 228.411 Z" fill="#000000" fill-rule="nonzero" fill-opacity="1" /><path clip-path="url(#clip890)" d="M489.842 219.407 Q489.124 218.99 488.268 218.805 Q487.434 218.596 486.416 218.596 Q482.805 218.596 480.86 220.957 Q478.939 223.295 478.939 227.694 L478.939 241.351 L474.657 241.351 L474.657 215.425 L478.939 215.425 L478.939 219.453 Q480.282 217.092 482.434 215.958 Q484.587 214.8 487.666 214.8 Q488.106 214.8 488.638 214.87 Q489.17 214.916 489.819 215.032 L489.842 219.407 Z" fill="#000000" fill-rule="nonzero" fill-opacity="1" /><path clip-path="url(#clip890)" d="M515.443 227.323 L515.443 229.407 L495.86 229.407 Q496.138 233.805 498.499 236.119 Q500.883 238.411 505.119 238.411 Q507.573 238.411 509.865 237.809 Q512.18 237.207 514.448 236.004 L514.448 240.031 Q512.156 241.004 509.749 241.513 Q507.342 242.022 504.865 242.022 Q498.661 242.022 495.027 238.411 Q491.416 234.8 491.416 228.643 Q491.416 222.277 494.842 218.55 Q498.291 214.8 504.124 214.8 Q509.356 214.8 512.388 218.18 Q515.443 221.536 515.443 227.323 M511.184 226.073 Q511.138 222.578 509.217 220.495 Q507.319 218.411 504.17 218.411 Q500.606 218.411 498.453 220.425 Q496.323 222.439 495.999 226.096 L511.184 226.073 Z" fill="#000000" fill-rule="nonzero" fill-opacity="1" /><path clip-path="url(#clip890)" d="M539.494 219.36 L539.494 205.333 L543.753 205.333 L543.753 241.351 L539.494 241.351 L539.494 237.462 Q538.152 239.777 536.091 240.911 Q534.054 242.022 531.184 242.022 Q526.485 242.022 523.522 238.272 Q520.582 234.522 520.582 228.411 Q520.582 222.3 523.522 218.55 Q526.485 214.8 531.184 214.8 Q534.054 214.8 536.091 215.934 Q538.152 217.045 539.494 219.36 M524.98 228.411 Q524.98 233.11 526.902 235.795 Q528.846 238.457 532.226 238.457 Q535.605 238.457 537.55 235.795 Q539.494 233.11 539.494 228.411 Q539.494 223.712 537.55 221.05 Q535.605 218.365 532.226 218.365 Q528.846 218.365 526.902 221.05 Q524.98 223.712 524.98 228.411 Z" fill="#000000" fill-rule="nonzero" fill-opacity="1" /><path clip-path="url(#clip890)" d="M552.527 215.425 L556.786 215.425 L556.786 241.351 L552.527 241.351 L552.527 215.425 M552.527 205.333 L556.786 205.333 L556.786 210.726 L552.527 210.726 L552.527 205.333 Z" fill="#000000" fill-rule="nonzero" fill-opacity="1" /><path clip-path="url(#clip890)" d="M584.355 216.42 L584.355 220.402 Q582.55 219.407 580.721 218.92 Q578.915 218.411 577.064 218.411 Q572.92 218.411 570.628 221.05 Q568.337 223.666 568.337 228.411 Q568.337 233.156 570.628 235.795 Q572.92 238.411 577.064 238.411 Q578.915 238.411 580.721 237.925 Q582.55 237.416 584.355 236.42 L584.355 240.356 Q582.573 241.189 580.651 241.606 Q578.753 242.022 576.601 242.022 Q570.744 242.022 567.295 238.342 Q563.846 234.661 563.846 228.411 Q563.846 222.069 567.318 218.434 Q570.814 214.8 576.878 214.8 Q578.846 214.8 580.721 215.217 Q582.596 215.61 584.355 216.42 Z" fill="#000000" fill-rule="nonzero" fill-opacity="1" /><path clip-path="url(#clip890)" d="M595.975 208.064 L595.975 215.425 L604.749 215.425 L604.749 218.735 L595.975 218.735 L595.975 232.809 Q595.975 235.981 596.832 236.883 Q597.712 237.786 600.374 237.786 L604.749 237.786 L604.749 241.351 L600.374 241.351 Q595.443 241.351 593.568 239.522 Q591.693 237.67 591.693 232.809 L591.693 218.735 L588.568 218.735 L588.568 215.425 L591.693 215.425 L591.693 208.064 L595.975 208.064 Z" fill="#000000" fill-rule="nonzero" fill-opacity="1" /><path clip-path="url(#clip890)" d="M632.526 227.323 L632.526 229.407 L612.943 229.407 Q613.221 233.805 615.582 236.119 Q617.966 238.411 622.202 238.411 Q624.656 238.411 626.947 237.809 Q629.262 237.207 631.531 236.004 L631.531 240.031 Q629.239 241.004 626.832 241.513 Q624.424 242.022 621.948 242.022 Q615.744 242.022 612.11 238.411 Q608.499 234.8 608.499 228.643 Q608.499 222.277 611.924 218.55 Q615.373 214.8 621.207 214.8 Q626.438 214.8 629.471 218.18 Q632.526 221.536 632.526 227.323 M628.267 226.073 Q628.221 222.578 626.299 220.495 Q624.401 218.411 621.253 218.411 Q617.688 218.411 615.536 220.425 Q613.406 222.439 613.082 226.096 L628.267 226.073 Z" fill="#000000" fill-rule="nonzero" fill-opacity="1" /><path clip-path="url(#clip890)" d="M656.577 219.36 L656.577 205.333 L660.836 205.333 L660.836 241.351 L656.577 241.351 L656.577 237.462 Q655.234 239.777 653.174 240.911 Q651.137 242.022 648.267 242.022 Q643.568 242.022 640.605 238.272 Q637.665 234.522 637.665 228.411 Q637.665 222.3 640.605 218.55 Q643.568 214.8 648.267 214.8 Q651.137 214.8 653.174 215.934 Q655.234 217.045 656.577 219.36 M642.063 228.411 Q642.063 233.11 643.984 235.795 Q645.929 238.457 649.308 238.457 Q652.688 238.457 654.633 235.795 Q656.577 233.11 656.577 228.411 Q656.577 223.712 654.633 221.05 Q652.688 218.365 649.308 218.365 Q645.929 218.365 643.984 221.05 Q642.063 223.712 642.063 228.411 Z" fill="#000000" fill-rule="nonzero" fill-opacity="1" /><path clip-path="url(#clip890)" d="M701.206 216.189 L701.206 220.217 Q699.401 219.291 697.456 218.828 Q695.512 218.365 693.429 218.365 Q690.257 218.365 688.66 219.337 Q687.086 220.309 687.086 222.254 Q687.086 223.735 688.22 224.592 Q689.355 225.425 692.78 226.189 L694.239 226.513 Q698.776 227.485 700.674 229.268 Q702.595 231.027 702.595 234.198 Q702.595 237.809 699.725 239.916 Q696.878 242.022 691.878 242.022 Q689.794 242.022 687.526 241.606 Q685.281 241.212 682.781 240.402 L682.781 236.004 Q685.142 237.231 687.433 237.856 Q689.725 238.457 691.97 238.457 Q694.98 238.457 696.6 237.439 Q698.22 236.397 698.22 234.522 Q698.22 232.786 697.04 231.86 Q695.882 230.934 691.924 230.078 L690.443 229.731 Q686.484 228.897 684.725 227.184 Q682.966 225.448 682.966 222.439 Q682.966 218.782 685.558 216.791 Q688.151 214.8 692.919 214.8 Q695.28 214.8 697.364 215.147 Q699.447 215.495 701.206 216.189 Z" fill="#000000" fill-rule="nonzero" fill-opacity="1" /><path clip-path="url(#clip890)" d="M713.591 208.064 L713.591 215.425 L722.364 215.425 L722.364 218.735 L713.591 218.735 L713.591 232.809 Q713.591 235.981 714.447 236.883 Q715.327 237.786 717.989 237.786 L722.364 237.786 L722.364 241.351 L717.989 241.351 Q713.058 241.351 711.183 239.522 Q709.308 237.67 709.308 232.809 L709.308 218.735 L706.183 218.735 L706.183 215.425 L709.308 215.425 L709.308 208.064 L713.591 208.064 Z" fill="#000000" fill-rule="nonzero" fill-opacity="1" /><path clip-path="url(#clip890)" d="M739.748 228.319 Q734.586 228.319 732.595 229.499 Q730.604 230.68 730.604 233.527 Q730.604 235.795 732.086 237.138 Q733.59 238.457 736.16 238.457 Q739.702 238.457 741.831 235.957 Q743.984 233.434 743.984 229.268 L743.984 228.319 L739.748 228.319 M748.243 226.559 L748.243 241.351 L743.984 241.351 L743.984 237.416 Q742.526 239.777 740.35 240.911 Q738.174 242.022 735.026 242.022 Q731.044 242.022 728.683 239.8 Q726.345 237.555 726.345 233.805 Q726.345 229.43 729.262 227.207 Q732.202 224.985 738.012 224.985 L743.984 224.985 L743.984 224.569 Q743.984 221.629 742.039 220.032 Q740.118 218.411 736.623 218.411 Q734.401 218.411 732.294 218.944 Q730.188 219.476 728.243 220.541 L728.243 216.606 Q730.581 215.703 732.78 215.263 Q734.979 214.8 737.063 214.8 Q742.688 214.8 745.465 217.717 Q748.243 220.633 748.243 226.559 Z" fill="#000000" fill-rule="nonzero" fill-opacity="1" /><path clip-path="url(#clip890)" d="M761.229 208.064 L761.229 215.425 L770.002 215.425 L770.002 218.735 L761.229 218.735 L761.229 232.809 Q761.229 235.981 762.086 236.883 Q762.965 237.786 765.627 237.786 L770.002 237.786 L770.002 241.351 L765.627 241.351 Q760.697 241.351 758.822 239.522 Q756.947 237.67 756.947 232.809 L756.947 218.735 L753.822 218.735 L753.822 215.425 L756.947 215.425 L756.947 208.064 L761.229 208.064 Z" fill="#000000" fill-rule="nonzero" fill-opacity="1" /><path clip-path="url(#clip890)" d="M797.78 227.323 L797.78 229.407 L778.197 229.407 Q778.474 233.805 780.836 236.119 Q783.22 238.411 787.456 238.411 Q789.91 238.411 792.201 237.809 Q794.516 237.207 796.785 236.004 L796.785 240.031 Q794.493 241.004 792.085 241.513 Q789.678 242.022 787.201 242.022 Q780.998 242.022 777.363 238.411 Q773.752 234.8 773.752 228.643 Q773.752 222.277 777.178 218.55 Q780.627 214.8 786.461 214.8 Q791.692 214.8 794.724 218.18 Q797.78 221.536 797.78 227.323 M793.521 226.073 Q793.474 222.578 791.553 220.495 Q789.655 218.411 786.507 218.411 Q782.942 218.411 780.789 220.425 Q778.66 222.439 778.336 226.096 L793.521 226.073 Z" fill="#000000" fill-rule="nonzero" fill-opacity="1" /><path clip-path="url(#clip890)" d="M821.298 216.189 L821.298 220.217 Q819.493 219.291 817.548 218.828 Q815.604 218.365 813.521 218.365 Q810.349 218.365 808.752 219.337 Q807.178 220.309 807.178 222.254 Q807.178 223.735 808.312 224.592 Q809.447 225.425 812.872 226.189 L814.331 226.513 Q818.868 227.485 820.766 229.268 Q822.687 231.027 822.687 234.198 Q822.687 237.809 819.817 239.916 Q816.97 242.022 811.97 242.022 Q809.886 242.022 807.618 241.606 Q805.372 241.212 802.872 240.402 L802.872 236.004 Q805.234 237.231 807.525 237.856 Q809.817 238.457 812.062 238.457 Q815.071 238.457 816.692 237.439 Q818.312 236.397 818.312 234.522 Q818.312 232.786 817.132 231.86 Q815.974 230.934 812.016 230.078 L810.534 229.731 Q806.576 228.897 804.817 227.184 Q803.058 225.448 803.058 222.439 Q803.058 218.782 805.65 216.791 Q808.243 214.8 813.011 214.8 Q815.372 214.8 817.456 215.147 Q819.539 215.495 821.298 216.189 Z" fill="#000000" fill-rule="nonzero" fill-opacity="1" /><path clip-path="url(#clip890)" d="M178.867 1486.45 L2352.76 1486.45 L2352.76 847.244 L178.867 847.244  Z" fill="#ffffff" fill-rule="evenodd" fill-opacity="1"/>
<defs>
  <clipPath id="clip893">
    <rect x="178" y="847" width="2175" height="640"/>
  </clipPath>
</defs>
<polyline clip-path="url(#clip893)" style="stroke:#000000; stroke-linecap:round; stroke-linejoin:round; stroke-width:2; stroke-opacity:0.1; fill:none" points="187.806,1486.45 187.806,847.244 "/>
<polyline clip-path="url(#clip893)" style="stroke:#000000; stroke-linecap:round; stroke-linejoin:round; stroke-width:2; stroke-opacity:0.1; fill:none" points="713.662,1486.45 713.662,847.244 "/>
<polyline clip-path="url(#clip893)" style="stroke:#000000; stroke-linecap:round; stroke-linejoin:round; stroke-width:2; stroke-opacity:0.1; fill:none" points="1239.52,1486.45 1239.52,847.244 "/>
<polyline clip-path="url(#clip893)" style="stroke:#000000; stroke-linecap:round; stroke-linejoin:round; stroke-width:2; stroke-opacity:0.1; fill:none" points="1765.37,1486.45 1765.37,847.244 "/>
<polyline clip-path="url(#clip893)" style="stroke:#000000; stroke-linecap:round; stroke-linejoin:round; stroke-width:2; stroke-opacity:0.1; fill:none" points="2291.23,1486.45 2291.23,847.244 "/>
<polyline clip-path="url(#clip893)" style="stroke:#000000; stroke-linecap:round; stroke-linejoin:round; stroke-width:2; stroke-opacity:0.1; fill:none" points="178.867,1428.78 2352.76,1428.78 "/>
<polyline clip-path="url(#clip893)" style="stroke:#000000; stroke-linecap:round; stroke-linejoin:round; stroke-width:2; stroke-opacity:0.1; fill:none" points="178.867,1304.31 2352.76,1304.31 "/>
<polyline clip-path="url(#clip893)" style="stroke:#000000; stroke-linecap:round; stroke-linejoin:round; stroke-width:2; stroke-opacity:0.1; fill:none" points="178.867,1179.84 2352.76,1179.84 "/>
<polyline clip-path="url(#clip893)" style="stroke:#000000; stroke-linecap:round; stroke-linejoin:round; stroke-width:2; stroke-opacity:0.1; fill:none" points="178.867,1055.37 2352.76,1055.37 "/>
<polyline clip-path="url(#clip893)" style="stroke:#000000; stroke-linecap:round; stroke-linejoin:round; stroke-width:2; stroke-opacity:0.1; fill:none" points="178.867,930.905 2352.76,930.905 "/>
<polyline clip-path="url(#clip890)" style="stroke:#000000; stroke-linecap:round; stroke-linejoin:round; stroke-width:4; stroke-opacity:1; fill:none" points="178.867,1486.45 2352.76,1486.45 "/>
<polyline clip-path="url(#clip890)" style="stroke:#000000; stroke-linecap:round; stroke-linejoin:round; stroke-width:4; stroke-opacity:1; fill:none" points="187.806,1486.45 187.806,1467.55 "/>
<polyline clip-path="url(#clip890)" style="stroke:#000000; stroke-linecap:round; stroke-linejoin:round; stroke-width:4; stroke-opacity:1; fill:none" points="713.662,1486.45 713.662,1467.55 "/>
<polyline clip-path="url(#clip890)" style="stroke:#000000; stroke-linecap:round; stroke-linejoin:round; stroke-width:4; stroke-opacity:1; fill:none" points="1239.52,1486.45 1239.52,1467.55 "/>
<polyline clip-path="url(#clip890)" style="stroke:#000000; stroke-linecap:round; stroke-linejoin:round; stroke-width:4; stroke-opacity:1; fill:none" points="1765.37,1486.45 1765.37,1467.55 "/>
<polyline clip-path="url(#clip890)" style="stroke:#000000; stroke-linecap:round; stroke-linejoin:round; stroke-width:4; stroke-opacity:1; fill:none" points="2291.23,1486.45 2291.23,1467.55 "/>
<path clip-path="url(#clip890)" d="M187.806 1517.37 Q184.195 1517.37 182.366 1520.93 Q180.561 1524.47 180.561 1531.6 Q180.561 1538.71 182.366 1542.27 Q184.195 1545.82 187.806 1545.82 Q191.44 1545.82 193.246 1542.27 Q195.075 1538.71 195.075 1531.6 Q195.075 1524.47 193.246 1520.93 Q191.44 1517.37 187.806 1517.37 M187.806 1513.66 Q193.616 1513.66 196.672 1518.27 Q199.751 1522.85 199.751 1531.6 Q199.751 1540.33 196.672 1544.94 Q193.616 1549.52 187.806 1549.52 Q181.996 1549.52 178.917 1544.94 Q175.862 1540.33 175.862 1531.6 Q175.862 1522.85 178.917 1518.27 Q181.996 1513.66 187.806 1513.66 Z" fill="#000000" fill-rule="nonzero" fill-opacity="1" /><path clip-path="url(#clip890)" d="M688.35 1544.91 L695.989 1544.91 L695.989 1518.55 L687.679 1520.21 L687.679 1515.95 L695.943 1514.29 L700.618 1514.29 L700.618 1544.91 L708.257 1544.91 L708.257 1548.85 L688.35 1548.85 L688.35 1544.91 Z" fill="#000000" fill-rule="nonzero" fill-opacity="1" /><path clip-path="url(#clip890)" d="M727.702 1517.37 Q724.091 1517.37 722.262 1520.93 Q720.456 1524.47 720.456 1531.6 Q720.456 1538.71 722.262 1542.27 Q724.091 1545.82 727.702 1545.82 Q731.336 1545.82 733.141 1542.27 Q734.97 1538.71 734.97 1531.6 Q734.97 1524.47 733.141 1520.93 Q731.336 1517.37 727.702 1517.37 M727.702 1513.66 Q733.512 1513.66 736.567 1518.27 Q739.646 1522.85 739.646 1531.6 Q739.646 1540.33 736.567 1544.94 Q733.512 1549.52 727.702 1549.52 Q721.891 1549.52 718.813 1544.94 Q715.757 1540.33 715.757 1531.6 Q715.757 1522.85 718.813 1518.27 Q721.891 1513.66 727.702 1513.66 Z" fill="#000000" fill-rule="nonzero" fill-opacity="1" /><path clip-path="url(#clip890)" d="M1218.29 1544.91 L1234.61 1544.91 L1234.61 1548.85 L1212.67 1548.85 L1212.67 1544.91 Q1215.33 1542.16 1219.91 1537.53 Q1224.52 1532.88 1225.7 1531.53 Q1227.94 1529.01 1228.82 1527.27 Q1229.73 1525.51 1229.73 1523.82 Q1229.73 1521.07 1227.78 1519.33 Q1225.86 1517.6 1222.76 1517.6 Q1220.56 1517.6 1218.11 1518.36 Q1215.68 1519.13 1212.9 1520.68 L1212.9 1515.95 Q1215.72 1514.82 1218.18 1514.24 Q1220.63 1513.66 1222.67 1513.66 Q1228.04 1513.66 1231.23 1516.35 Q1234.43 1519.03 1234.43 1523.52 Q1234.43 1525.65 1233.62 1527.57 Q1232.83 1529.47 1230.72 1532.07 Q1230.14 1532.74 1227.04 1535.95 Q1223.94 1539.15 1218.29 1544.91 Z" fill="#000000" fill-rule="nonzero" fill-opacity="1" /><path clip-path="url(#clip890)" d="M1254.43 1517.37 Q1250.81 1517.37 1248.99 1520.93 Q1247.18 1524.47 1247.18 1531.6 Q1247.18 1538.71 1248.99 1542.27 Q1250.81 1545.82 1254.43 1545.82 Q1258.06 1545.82 1259.87 1542.27 Q1261.69 1538.71 1261.69 1531.6 Q1261.69 1524.47 1259.87 1520.93 Q1258.06 1517.37 1254.43 1517.37 M1254.43 1513.66 Q1260.24 1513.66 1263.29 1518.27 Q1266.37 1522.85 1266.37 1531.6 Q1266.37 1540.33 1263.29 1544.94 Q1260.24 1549.52 1254.43 1549.52 Q1248.62 1549.52 1245.54 1544.94 Q1242.48 1540.33 1242.48 1531.6 Q1242.48 1522.85 1245.54 1518.27 Q1248.62 1513.66 1254.43 1513.66 Z" fill="#000000" fill-rule="nonzero" fill-opacity="1" /><path clip-path="url(#clip890)" d="M1754.22 1530.21 Q1757.57 1530.93 1759.45 1533.2 Q1761.35 1535.47 1761.35 1538.8 Q1761.35 1543.92 1757.83 1546.72 Q1754.31 1549.52 1747.83 1549.52 Q1745.65 1549.52 1743.34 1549.08 Q1741.05 1548.66 1738.59 1547.81 L1738.59 1543.29 Q1740.54 1544.43 1742.85 1545.01 Q1745.17 1545.58 1747.69 1545.58 Q1752.09 1545.58 1754.38 1543.85 Q1756.69 1542.11 1756.69 1538.8 Q1756.69 1535.75 1754.54 1534.03 Q1752.41 1532.3 1748.59 1532.3 L1744.56 1532.3 L1744.56 1528.45 L1748.78 1528.45 Q1752.23 1528.45 1754.06 1527.09 Q1755.88 1525.7 1755.88 1523.11 Q1755.88 1520.45 1753.99 1519.03 Q1752.11 1517.6 1748.59 1517.6 Q1746.67 1517.6 1744.47 1518.01 Q1742.27 1518.43 1739.63 1519.31 L1739.63 1515.14 Q1742.3 1514.4 1744.61 1514.03 Q1746.95 1513.66 1749.01 1513.66 Q1754.33 1513.66 1757.43 1516.09 Q1760.54 1518.5 1760.54 1522.62 Q1760.54 1525.49 1758.89 1527.48 Q1757.25 1529.45 1754.22 1530.21 Z" fill="#000000" fill-rule="nonzero" fill-opacity="1" /><path clip-path="url(#clip890)" d="M1780.21 1517.37 Q1776.6 1517.37 1774.77 1520.93 Q1772.97 1524.47 1772.97 1531.6 Q1772.97 1538.71 1774.77 1542.27 Q1776.6 1545.82 1780.21 1545.82 Q1783.85 1545.82 1785.65 1542.27 Q1787.48 1538.71 1787.48 1531.6 Q1787.48 1524.47 1785.65 1520.93 Q1783.85 1517.37 1780.21 1517.37 M1780.21 1513.66 Q1786.02 1513.66 1789.08 1518.27 Q1792.16 1522.85 1792.16 1531.6 Q1792.16 1540.33 1789.08 1544.94 Q1786.02 1549.52 1780.21 1549.52 Q1774.4 1549.52 1771.32 1544.94 Q1768.27 1540.33 1768.27 1531.6 Q1768.27 1522.85 1771.32 1518.27 Q1774.4 1513.66 1780.21 1513.66 Z" fill="#000000" fill-rule="nonzero" fill-opacity="1" /><path clip-path="url(#clip890)" d="M2279.4 1518.36 L2267.6 1536.81 L2279.4 1536.81 L2279.4 1518.36 M2278.18 1514.29 L2284.05 1514.29 L2284.05 1536.81 L2288.99 1536.81 L2288.99 1540.7 L2284.05 1540.7 L2284.05 1548.85 L2279.4 1548.85 L2279.4 1540.7 L2263.8 1540.7 L2263.8 1536.19 L2278.18 1514.29 Z" fill="#000000" fill-rule="nonzero" fill-opacity="1" /><path clip-path="url(#clip890)" d="M2306.72 1517.37 Q2303.11 1517.37 2301.28 1520.93 Q2299.47 1524.47 2299.47 1531.6 Q2299.47 1538.71 2301.28 1542.27 Q2303.11 1545.82 2306.72 1545.82 Q2310.35 1545.82 2312.16 1542.27 Q2313.99 1538.71 2313.99 1531.6 Q2313.99 1524.47 2312.16 1520.93 Q2310.35 1517.37 2306.72 1517.37 M2306.72 1513.66 Q2312.53 1513.66 2315.58 1518.27 Q2318.66 1522.85 2318.66 1531.6 Q2318.66 1540.33 2315.58 1544.94 Q2312.53 1549.52 2306.72 1549.52 Q2300.91 1549.52 2297.83 1544.94 Q2294.77 1540.33 2294.77 1531.6 Q2294.77 1522.85 2297.83 1518.27 Q2300.91 1513.66 2306.72 1513.66 Z" fill="#000000" fill-rule="nonzero" fill-opacity="1" /><polyline clip-path="url(#clip890)" style="stroke:#000000; stroke-linecap:round; stroke-linejoin:round; stroke-width:4; stroke-opacity:1; fill:none" points="178.867,1486.45 178.867,847.244 "/>
<polyline clip-path="url(#clip890)" style="stroke:#000000; stroke-linecap:round; stroke-linejoin:round; stroke-width:4; stroke-opacity:1; fill:none" points="178.867,1428.78 197.764,1428.78 "/>
<polyline clip-path="url(#clip890)" style="stroke:#000000; stroke-linecap:round; stroke-linejoin:round; stroke-width:4; stroke-opacity:1; fill:none" points="178.867,1304.31 197.764,1304.31 "/>
<polyline clip-path="url(#clip890)" style="stroke:#000000; stroke-linecap:round; stroke-linejoin:round; stroke-width:4; stroke-opacity:1; fill:none" points="178.867,1179.84 197.764,1179.84 "/>
<polyline clip-path="url(#clip890)" style="stroke:#000000; stroke-linecap:round; stroke-linejoin:round; stroke-width:4; stroke-opacity:1; fill:none" points="178.867,1055.37 197.764,1055.37 "/>
<polyline clip-path="url(#clip890)" style="stroke:#000000; stroke-linecap:round; stroke-linejoin:round; stroke-width:4; stroke-opacity:1; fill:none" points="178.867,930.905 197.764,930.905 "/>
<path clip-path="url(#clip890)" d="M50.9921 1429.23 L80.6679 1429.23 L80.6679 1433.17 L50.9921 1433.17 L50.9921 1429.23 Z" fill="#000000" fill-rule="nonzero" fill-opacity="1" /><path clip-path="url(#clip890)" d="M94.7882 1442.12 L111.108 1442.12 L111.108 1446.06 L89.1632 1446.06 L89.1632 1442.12 Q91.8252 1439.37 96.4085 1434.74 Q101.015 1430.09 102.196 1428.74 Q104.441 1426.22 105.321 1424.48 Q106.223 1422.73 106.223 1421.04 Q106.223 1418.28 104.279 1416.55 Q102.358 1414.81 99.2558 1414.81 Q97.0567 1414.81 94.603 1415.57 Q92.1725 1416.34 89.3947 1417.89 L89.3947 1413.17 Q92.2188 1412.03 94.6724 1411.45 Q97.1261 1410.87 99.1632 1410.87 Q104.534 1410.87 107.728 1413.56 Q110.922 1416.24 110.922 1420.73 Q110.922 1422.86 110.112 1424.79 Q109.325 1426.68 107.219 1429.28 Q106.64 1429.95 103.538 1433.17 Q100.436 1436.36 94.7882 1442.12 Z" fill="#000000" fill-rule="nonzero" fill-opacity="1" /><path clip-path="url(#clip890)" d="M130.922 1414.58 Q127.311 1414.58 125.482 1418.14 Q123.677 1421.68 123.677 1428.81 Q123.677 1435.92 125.482 1439.48 Q127.311 1443.03 130.922 1443.03 Q134.556 1443.03 136.362 1439.48 Q138.191 1435.92 138.191 1428.81 Q138.191 1421.68 136.362 1418.14 Q134.556 1414.58 130.922 1414.58 M130.922 1410.87 Q136.732 1410.87 139.788 1415.48 Q142.867 1420.06 142.867 1428.81 Q142.867 1437.54 139.788 1442.15 Q136.732 1446.73 130.922 1446.73 Q125.112 1446.73 122.033 1442.15 Q118.978 1437.54 118.978 1428.81 Q118.978 1420.06 122.033 1415.48 Q125.112 1410.87 130.922 1410.87 Z" fill="#000000" fill-rule="nonzero" fill-opacity="1" /><path clip-path="url(#clip890)" d="M50.9921 1304.76 L80.6679 1304.76 L80.6679 1308.7 L50.9921 1308.7 L50.9921 1304.76 Z" fill="#000000" fill-rule="nonzero" fill-opacity="1" /><path clip-path="url(#clip890)" d="M91.5706 1317.66 L99.2095 1317.66 L99.2095 1291.29 L90.8993 1292.96 L90.8993 1288.7 L99.1632 1287.03 L103.839 1287.03 L103.839 1317.66 L111.478 1317.66 L111.478 1321.59 L91.5706 1321.59 L91.5706 1317.66 Z" fill="#000000" fill-rule="nonzero" fill-opacity="1" /><path clip-path="url(#clip890)" d="M130.922 1290.11 Q127.311 1290.11 125.482 1293.67 Q123.677 1297.22 123.677 1304.35 Q123.677 1311.45 125.482 1315.02 Q127.311 1318.56 130.922 1318.56 Q134.556 1318.56 136.362 1315.02 Q138.191 1311.45 138.191 1304.35 Q138.191 1297.22 136.362 1293.67 Q134.556 1290.11 130.922 1290.11 M130.922 1286.41 Q136.732 1286.41 139.788 1291.01 Q142.867 1295.6 142.867 1304.35 Q142.867 1313.07 139.788 1317.68 Q136.732 1322.26 130.922 1322.26 Q125.112 1322.26 122.033 1317.68 Q118.978 1313.07 118.978 1304.35 Q118.978 1295.6 122.033 1291.01 Q125.112 1286.41 130.922 1286.41 Z" fill="#000000" fill-rule="nonzero" fill-opacity="1" /><path clip-path="url(#clip890)" d="M130.922 1165.64 Q127.311 1165.64 125.482 1169.21 Q123.677 1172.75 123.677 1179.88 Q123.677 1186.98 125.482 1190.55 Q127.311 1194.09 130.922 1194.09 Q134.556 1194.09 136.362 1190.55 Q138.191 1186.98 138.191 1179.88 Q138.191 1172.75 136.362 1169.21 Q134.556 1165.64 130.922 1165.64 M130.922 1161.94 Q136.732 1161.94 139.788 1166.54 Q142.867 1171.13 142.867 1179.88 Q142.867 1188.6 139.788 1193.21 Q136.732 1197.79 130.922 1197.79 Q125.112 1197.79 122.033 1193.21 Q118.978 1188.6 118.978 1179.88 Q118.978 1171.13 122.033 1166.54 Q125.112 1161.94 130.922 1161.94 Z" fill="#000000" fill-rule="nonzero" fill-opacity="1" /><path clip-path="url(#clip890)" d="M91.5706 1068.72 L99.2095 1068.72 L99.2095 1042.35 L90.8993 1044.02 L90.8993 1039.76 L99.1632 1038.09 L103.839 1038.09 L103.839 1068.72 L111.478 1068.72 L111.478 1072.65 L91.5706 1072.65 L91.5706 1068.72 Z" fill="#000000" fill-rule="nonzero" fill-opacity="1" /><path clip-path="url(#clip890)" d="M130.922 1041.17 Q127.311 1041.17 125.482 1044.74 Q123.677 1048.28 123.677 1055.41 Q123.677 1062.51 125.482 1066.08 Q127.311 1069.62 130.922 1069.62 Q134.556 1069.62 136.362 1066.08 Q138.191 1062.51 138.191 1055.41 Q138.191 1048.28 136.362 1044.74 Q134.556 1041.17 130.922 1041.17 M130.922 1037.47 Q136.732 1037.47 139.788 1042.08 Q142.867 1046.66 142.867 1055.41 Q142.867 1064.14 139.788 1068.74 Q136.732 1073.33 130.922 1073.33 Q125.112 1073.33 122.033 1068.74 Q118.978 1064.14 118.978 1055.41 Q118.978 1046.66 122.033 1042.08 Q125.112 1037.47 130.922 1037.47 Z" fill="#000000" fill-rule="nonzero" fill-opacity="1" /><path clip-path="url(#clip890)" d="M94.7882 944.25 L111.108 944.25 L111.108 948.185 L89.1632 948.185 L89.1632 944.25 Q91.8252 941.496 96.4085 936.866 Q101.015 932.213 102.196 930.871 Q104.441 928.348 105.321 926.611 Q106.223 924.852 106.223 923.162 Q106.223 920.408 104.279 918.672 Q102.358 916.936 99.2558 916.936 Q97.0567 916.936 94.603 917.7 Q92.1725 918.463 89.3947 920.014 L89.3947 915.292 Q92.2188 914.158 94.6724 913.579 Q97.1261 913 99.1632 913 Q104.534 913 107.728 915.686 Q110.922 918.371 110.922 922.862 Q110.922 924.991 110.112 926.912 Q109.325 928.811 107.219 931.403 Q106.64 932.074 103.538 935.292 Q100.436 938.486 94.7882 944.25 Z" fill="#000000" fill-rule="nonzero" fill-opacity="1" /><path clip-path="url(#clip890)" d="M130.922 916.704 Q127.311 916.704 125.482 920.269 Q123.677 923.811 123.677 930.94 Q123.677 938.047 125.482 941.611 Q127.311 945.153 130.922 945.153 Q134.556 945.153 136.362 941.611 Q138.191 938.047 138.191 930.94 Q138.191 923.811 136.362 920.269 Q134.556 916.704 130.922 916.704 M130.922 913 Q136.732 913 139.788 917.607 Q142.867 922.19 142.867 930.94 Q142.867 939.667 139.788 944.273 Q136.732 948.857 130.922 948.857 Q125.112 948.857 122.033 944.273 Q118.978 939.667 118.978 930.94 Q118.978 922.19 122.033 917.607 Q125.112 913 130.922 913 Z" fill="#000000" fill-rule="nonzero" fill-opacity="1" /><polyline clip-path="url(#clip893)" style="stroke:#009af9; stroke-linecap:round; stroke-linejoin:round; stroke-width:8; stroke-opacity:1; fill:none" points="240.392,945.869 292.977,944.527 345.563,938.928 398.149,956.77 450.734,1015.22 503.32,1097.83 555.905,1196.87 608.491,1287.95 661.077,1379.31 713.662,1411.32 766.248,1409.42 818.834,1399.82 871.419,1369.03 924.005,1295.76 976.59,1194.64 1029.18,1082.34 1081.76,988.306 1134.35,931.757 1186.93,881.929 1239.52,898.259 1292.1,946.886 1344.69,1061.8 1397.28,1182.09 1449.86,1295.7 1502.45,1388.63 1555.03,1443.23 1607.62,1465.57 1660.2,1437.17 1712.79,1398.14 1765.37,1300.85 1817.96,1175.55 1870.55,1050.18 1923.13,952.611 1975.72,902.1 2028.3,883.634 2080.89,922.204 2133.47,992.069 2186.06,1109.47 2238.65,1221.13 2291.23,1323.37 "/>
<circle clip-path="url(#clip893)" cx="240.392" cy="923.807" r="14.4" fill="#e26f46" fill-rule="evenodd" fill-opacity="1" stroke="#000000" stroke-opacity="1" stroke-width="3.2"/>
<circle clip-path="url(#clip893)" cx="292.977" cy="952.035" r="14.4" fill="#e26f46" fill-rule="evenodd" fill-opacity="1" stroke="#000000" stroke-opacity="1" stroke-width="3.2"/>
<circle clip-path="url(#clip893)" cx="345.563" cy="935.803" r="14.4" fill="#e26f46" fill-rule="evenodd" fill-opacity="1" stroke="#000000" stroke-opacity="1" stroke-width="3.2"/>
<circle clip-path="url(#clip893)" cx="398.149" cy="971.767" r="14.4" fill="#e26f46" fill-rule="evenodd" fill-opacity="1" stroke="#000000" stroke-opacity="1" stroke-width="3.2"/>
<circle clip-path="url(#clip893)" cx="450.734" cy="1022.51" r="14.4" fill="#e26f46" fill-rule="evenodd" fill-opacity="1" stroke="#000000" stroke-opacity="1" stroke-width="3.2"/>
<circle clip-path="url(#clip893)" cx="503.32" cy="1070.38" r="14.4" fill="#e26f46" fill-rule="evenodd" fill-opacity="1" stroke="#000000" stroke-opacity="1" stroke-width="3.2"/>
<circle clip-path="url(#clip893)" cx="555.905" cy="1207.44" r="14.4" fill="#e26f46" fill-rule="evenodd" fill-opacity="1" stroke="#000000" stroke-opacity="1" stroke-width="3.2"/>
<circle clip-path="url(#clip893)" cx="608.491" cy="1289.4" r="14.4" fill="#e26f46" fill-rule="evenodd" fill-opacity="1" stroke="#000000" stroke-opacity="1" stroke-width="3.2"/>
<circle clip-path="url(#clip893)" cx="661.077" cy="1359.84" r="14.4" fill="#e26f46" fill-rule="evenodd" fill-opacity="1" stroke="#000000" stroke-opacity="1" stroke-width="3.2"/>
<circle clip-path="url(#clip893)" cx="713.662" cy="1404.23" r="14.4" fill="#e26f46" fill-rule="evenodd" fill-opacity="1" stroke="#000000" stroke-opacity="1" stroke-width="3.2"/>
<circle clip-path="url(#clip893)" cx="766.248" cy="1423.6" r="14.4" fill="#e26f46" fill-rule="evenodd" fill-opacity="1" stroke="#000000" stroke-opacity="1" stroke-width="3.2"/>
<circle clip-path="url(#clip893)" cx="818.834" cy="1387.35" r="14.4" fill="#e26f46" fill-rule="evenodd" fill-opacity="1" stroke="#000000" stroke-opacity="1" stroke-width="3.2"/>
<circle clip-path="url(#clip893)" cx="871.419" cy="1347.54" r="14.4" fill="#e26f46" fill-rule="evenodd" fill-opacity="1" stroke="#000000" stroke-opacity="1" stroke-width="3.2"/>
<circle clip-path="url(#clip893)" cx="924.005" cy="1312.83" r="14.4" fill="#e26f46" fill-rule="evenodd" fill-opacity="1" stroke="#000000" stroke-opacity="1" stroke-width="3.2"/>
<circle clip-path="url(#clip893)" cx="976.59" cy="1189.72" r="14.4" fill="#e26f46" fill-rule="evenodd" fill-opacity="1" stroke="#000000" stroke-opacity="1" stroke-width="3.2"/>
<circle clip-path="url(#clip893)" cx="1029.18" cy="1069.45" r="14.4" fill="#e26f46" fill-rule="evenodd" fill-opacity="1" stroke="#000000" stroke-opacity="1" stroke-width="3.2"/>
<circle clip-path="url(#clip893)" cx="1081.76" cy="965.76" r="14.4" fill="#e26f46" fill-rule="evenodd" fill-opacity="1" stroke="#000000" stroke-opacity="1" stroke-width="3.2"/>
<circle clip-path="url(#clip893)" cx="1134.35" cy="940.343" r="14.4" fill="#e26f46" fill-rule="evenodd" fill-opacity="1" stroke="#000000" stroke-opacity="1" stroke-width="3.2"/>
<circle clip-path="url(#clip893)" cx="1186.93" cy="865.335" r="14.4" fill="#e26f46" fill-rule="evenodd" fill-opacity="1" stroke="#000000" stroke-opacity="1" stroke-width="3.2"/>
<circle clip-path="url(#clip893)" cx="1239.52" cy="918.001" r="14.4" fill="#e26f46" fill-rule="evenodd" fill-opacity="1" stroke="#000000" stroke-opacity="1" stroke-width="3.2"/>
<circle clip-path="url(#clip893)" cx="1292.1" cy="947.507" r="14.4" fill="#e26f46" fill-rule="evenodd" fill-opacity="1" stroke="#000000" stroke-opacity="1" stroke-width="3.2"/>
<circle clip-path="url(#clip893)" cx="1344.69" cy="1038.92" r="14.4" fill="#e26f46" fill-rule="evenodd" fill-opacity="1" stroke="#000000" stroke-opacity="1" stroke-width="3.2"/>
<circle clip-path="url(#clip893)" cx="1397.28" cy="1188.09" r="14.4" fill="#e26f46" fill-rule="evenodd" fill-opacity="1" stroke="#000000" stroke-opacity="1" stroke-width="3.2"/>
<circle clip-path="url(#clip893)" cx="1449.86" cy="1279.57" r="14.4" fill="#e26f46" fill-rule="evenodd" fill-opacity="1" stroke="#000000" stroke-opacity="1" stroke-width="3.2"/>
<circle clip-path="url(#clip893)" cx="1502.45" cy="1379.08" r="14.4" fill="#e26f46" fill-rule="evenodd" fill-opacity="1" stroke="#000000" stroke-opacity="1" stroke-width="3.2"/>
<circle clip-path="url(#clip893)" cx="1555.03" cy="1444.19" r="14.4" fill="#e26f46" fill-rule="evenodd" fill-opacity="1" stroke="#000000" stroke-opacity="1" stroke-width="3.2"/>
<circle clip-path="url(#clip893)" cx="1607.62" cy="1468.36" r="14.4" fill="#e26f46" fill-rule="evenodd" fill-opacity="1" stroke="#000000" stroke-opacity="1" stroke-width="3.2"/>
<circle clip-path="url(#clip893)" cx="1660.2" cy="1452.21" r="14.4" fill="#e26f46" fill-rule="evenodd" fill-opacity="1" stroke="#000000" stroke-opacity="1" stroke-width="3.2"/>
<circle clip-path="url(#clip893)" cx="1712.79" cy="1413.48" r="14.4" fill="#e26f46" fill-rule="evenodd" fill-opacity="1" stroke="#000000" stroke-opacity="1" stroke-width="3.2"/>
<circle clip-path="url(#clip893)" cx="1765.37" cy="1313.72" r="14.4" fill="#e26f46" fill-rule="evenodd" fill-opacity="1" stroke="#000000" stroke-opacity="1" stroke-width="3.2"/>
<circle clip-path="url(#clip893)" cx="1817.96" cy="1200.15" r="14.4" fill="#e26f46" fill-rule="evenodd" fill-opacity="1" stroke="#000000" stroke-opacity="1" stroke-width="3.2"/>
<circle clip-path="url(#clip893)" cx="1870.55" cy="1064.73" r="14.4" fill="#e26f46" fill-rule="evenodd" fill-opacity="1" stroke="#000000" stroke-opacity="1" stroke-width="3.2"/>
<circle clip-path="url(#clip893)" cx="1923.13" cy="957.131" r="14.4" fill="#e26f46" fill-rule="evenodd" fill-opacity="1" stroke="#000000" stroke-opacity="1" stroke-width="3.2"/>
<circle clip-path="url(#clip893)" cx="1975.72" cy="883.618" r="14.4" fill="#e26f46" fill-rule="evenodd" fill-opacity="1" stroke="#000000" stroke-opacity="1" stroke-width="3.2"/>
<circle clip-path="url(#clip893)" cx="2028.3" cy="882.139" r="14.4" fill="#e26f46" fill-rule="evenodd" fill-opacity="1" stroke="#000000" stroke-opacity="1" stroke-width="3.2"/>
<circle clip-path="url(#clip893)" cx="2080.89" cy="911.039" r="14.4" fill="#e26f46" fill-rule="evenodd" fill-opacity="1" stroke="#000000" stroke-opacity="1" stroke-width="3.2"/>
<circle clip-path="url(#clip893)" cx="2133.47" cy="997.735" r="14.4" fill="#e26f46" fill-rule="evenodd" fill-opacity="1" stroke="#000000" stroke-opacity="1" stroke-width="3.2"/>
<circle clip-path="url(#clip893)" cx="2186.06" cy="1087.93" r="14.4" fill="#e26f46" fill-rule="evenodd" fill-opacity="1" stroke="#000000" stroke-opacity="1" stroke-width="3.2"/>
<circle clip-path="url(#clip893)" cx="2238.65" cy="1222.6" r="14.4" fill="#e26f46" fill-rule="evenodd" fill-opacity="1" stroke="#000000" stroke-opacity="1" stroke-width="3.2"/>
<circle clip-path="url(#clip893)" cx="2291.23" cy="1308.01" r="14.4" fill="#e26f46" fill-rule="evenodd" fill-opacity="1" stroke="#000000" stroke-opacity="1" stroke-width="3.2"/>
<polyline clip-path="url(#clip893)" style="stroke:#3da44d; stroke-linecap:round; stroke-linejoin:round; stroke-width:8; stroke-opacity:1; fill:none" points="240.392,944.907 292.977,914.151 345.563,924.491 398.149,974.463 450.734,1056.45 503.32,1157.85 555.905,1263 608.491,1355.61 661.077,1421.28 713.662,1449.72 766.248,1436.42 818.834,1383.28 871.419,1298.42 924.005,1194.88 976.59,1088.66 1029.18,996.228 1081.76,931.951 1134.35,905.898 1186.93,922.237 1239.52,978.577 1292.1,1066.32 1344.69,1171.96 1397.28,1279.17 1449.86,1371.35 1502.45,1434.14 1555.03,1457.71 1607.62,1438.27 1660.2,1378.69 1712.79,1288.07 1765.37,1180.37 1817.96,1072.22 1870.55,980.396 1923.13,919.189 1975.72,898.194 2028.3,920.803 2080.89,983.657 2133.47,1077.14 2186.06,1186.87 2238.65,1295.88 2291.23,1387.26 "/>
<path clip-path="url(#clip890)" d="M1684.78 1465.14 L2280.29 1465.14 L2280.29 1257.78 L1684.78 1257.78  Z" fill="#ffffff" fill-rule="evenodd" fill-opacity="1"/>
<polyline clip-path="url(#clip890)" style="stroke:#000000; stroke-linecap:round; stroke-linejoin:round; stroke-width:4; stroke-opacity:1; fill:none" points="1684.78,1465.14 2280.29,1465.14 2280.29,1257.78 1684.78,1257.78 1684.78,1465.14 "/>
<polyline clip-path="url(#clip890)" style="stroke:#009af9; stroke-linecap:round; stroke-linejoin:round; stroke-width:8; stroke-opacity:1; fill:none" points="1708.94,1309.62 1853.86,1309.62 "/>
<path clip-path="url(#clip890)" d="M1885.42 1293.61 L1885.42 1300.98 L1894.2 1300.98 L1894.2 1304.29 L1885.42 1304.29 L1885.42 1318.36 Q1885.42 1321.53 1886.28 1322.43 Q1887.16 1323.34 1889.82 1323.34 L1894.2 1323.34 L1894.2 1326.9 L1889.82 1326.9 Q1884.89 1326.9 1883.02 1325.07 Q1881.14 1323.22 1881.14 1318.36 L1881.14 1304.29 L1878.02 1304.29 L1878.02 1300.98 L1881.14 1300.98 L1881.14 1293.61 L1885.42 1293.61 Z" fill="#000000" fill-rule="nonzero" fill-opacity="1" /><path clip-path="url(#clip890)" d="M1914.82 1304.96 Q1914.1 1304.54 1913.25 1304.35 Q1912.41 1304.15 1911.4 1304.15 Q1907.78 1304.15 1905.84 1306.51 Q1903.92 1308.85 1903.92 1313.24 L1903.92 1326.9 L1899.64 1326.9 L1899.64 1300.98 L1903.92 1300.98 L1903.92 1305 Q1905.26 1302.64 1907.41 1301.51 Q1909.57 1300.35 1912.65 1300.35 Q1913.08 1300.35 1913.62 1300.42 Q1914.15 1300.47 1914.8 1300.58 L1914.82 1304.96 Z" fill="#000000" fill-rule="nonzero" fill-opacity="1" /><path clip-path="url(#clip890)" d="M1918.85 1316.67 L1918.85 1300.98 L1923.11 1300.98 L1923.11 1316.51 Q1923.11 1320.19 1924.54 1322.04 Q1925.98 1323.87 1928.85 1323.87 Q1932.3 1323.87 1934.29 1321.67 Q1936.3 1319.47 1936.3 1315.67 L1936.3 1300.98 L1940.56 1300.98 L1940.56 1326.9 L1936.3 1326.9 L1936.3 1322.92 Q1934.75 1325.28 1932.69 1326.44 Q1930.65 1327.57 1927.95 1327.57 Q1923.48 1327.57 1921.16 1324.79 Q1918.85 1322.02 1918.85 1316.67 M1929.57 1300.35 L1929.57 1300.35 Z" fill="#000000" fill-rule="nonzero" fill-opacity="1" /><path clip-path="url(#clip890)" d="M1971.51 1312.87 L1971.51 1314.96 L1951.93 1314.96 Q1952.21 1319.35 1954.57 1321.67 Q1956.95 1323.96 1961.19 1323.96 Q1963.64 1323.96 1965.93 1323.36 Q1968.25 1322.76 1970.52 1321.55 L1970.52 1325.58 Q1968.22 1326.55 1965.82 1327.06 Q1963.41 1327.57 1960.93 1327.57 Q1954.73 1327.57 1951.09 1323.96 Q1947.48 1320.35 1947.48 1314.19 Q1947.48 1307.83 1950.91 1304.1 Q1954.36 1300.35 1960.19 1300.35 Q1965.42 1300.35 1968.45 1303.73 Q1971.51 1307.09 1971.51 1312.87 M1967.25 1311.62 Q1967.2 1308.13 1965.28 1306.04 Q1963.39 1303.96 1960.24 1303.96 Q1956.67 1303.96 1954.52 1305.98 Q1952.39 1307.99 1952.07 1311.65 L1967.25 1311.62 Z" fill="#000000" fill-rule="nonzero" fill-opacity="1" /><path clip-path="url(#clip890)" d="M2010.1 1301.74 L2010.1 1305.77 Q2008.29 1304.84 2006.35 1304.38 Q2004.4 1303.92 2002.32 1303.92 Q1999.15 1303.92 1997.55 1304.89 Q1995.98 1305.86 1995.98 1307.8 Q1995.98 1309.29 1997.11 1310.14 Q1998.25 1310.98 2001.67 1311.74 L2003.13 1312.06 Q2007.67 1313.04 2009.57 1314.82 Q2011.49 1316.58 2011.49 1319.75 Q2011.49 1323.36 2008.62 1325.47 Q2005.77 1327.57 2000.77 1327.57 Q1998.69 1327.57 1996.42 1327.16 Q1994.17 1326.76 1991.67 1325.95 L1991.67 1321.55 Q1994.03 1322.78 1996.33 1323.41 Q1998.62 1324.01 2000.86 1324.01 Q2003.87 1324.01 2005.49 1322.99 Q2007.11 1321.95 2007.11 1320.07 Q2007.11 1318.34 2005.93 1317.41 Q2004.77 1316.48 2000.82 1315.63 L1999.33 1315.28 Q1995.38 1314.45 1993.62 1312.73 Q1991.86 1311 1991.86 1307.99 Q1991.86 1304.33 1994.45 1302.34 Q1997.04 1300.35 2001.81 1300.35 Q2004.17 1300.35 2006.26 1300.7 Q2008.34 1301.04 2010.1 1301.74 Z" fill="#000000" fill-rule="nonzero" fill-opacity="1" /><path clip-path="url(#clip890)" d="M2022.48 1293.61 L2022.48 1300.98 L2031.26 1300.98 L2031.26 1304.29 L2022.48 1304.29 L2022.48 1318.36 Q2022.48 1321.53 2023.34 1322.43 Q2024.22 1323.34 2026.88 1323.34 L2031.26 1323.34 L2031.26 1326.9 L2026.88 1326.9 Q2021.95 1326.9 2020.08 1325.07 Q2018.2 1323.22 2018.2 1318.36 L2018.2 1304.29 L2015.08 1304.29 L2015.08 1300.98 L2018.2 1300.98 L2018.2 1293.61 L2022.48 1293.61 Z" fill="#000000" fill-rule="nonzero" fill-opacity="1" /><path clip-path="url(#clip890)" d="M2048.64 1313.87 Q2043.48 1313.87 2041.49 1315.05 Q2039.5 1316.23 2039.5 1319.08 Q2039.5 1321.35 2040.98 1322.69 Q2042.48 1324.01 2045.05 1324.01 Q2048.59 1324.01 2050.72 1321.51 Q2052.88 1318.98 2052.88 1314.82 L2052.88 1313.87 L2048.64 1313.87 M2057.14 1312.11 L2057.14 1326.9 L2052.88 1326.9 L2052.88 1322.97 Q2051.42 1325.33 2049.24 1326.46 Q2047.07 1327.57 2043.92 1327.57 Q2039.94 1327.57 2037.57 1325.35 Q2035.24 1323.1 2035.24 1319.35 Q2035.24 1314.98 2038.15 1312.76 Q2041.09 1310.54 2046.9 1310.54 L2052.88 1310.54 L2052.88 1310.12 Q2052.88 1307.18 2050.93 1305.58 Q2049.01 1303.96 2045.51 1303.96 Q2043.29 1303.96 2041.19 1304.49 Q2039.08 1305.03 2037.14 1306.09 L2037.14 1302.16 Q2039.47 1301.25 2041.67 1300.81 Q2043.87 1300.35 2045.95 1300.35 Q2051.58 1300.35 2054.36 1303.27 Q2057.14 1306.18 2057.14 1312.11 Z" fill="#000000" fill-rule="nonzero" fill-opacity="1" /><path clip-path="url(#clip890)" d="M2070.12 1293.61 L2070.12 1300.98 L2078.89 1300.98 L2078.89 1304.29 L2070.12 1304.29 L2070.12 1318.36 Q2070.12 1321.53 2070.98 1322.43 Q2071.86 1323.34 2074.52 1323.34 L2078.89 1323.34 L2078.89 1326.9 L2074.52 1326.9 Q2069.59 1326.9 2067.71 1325.07 Q2065.84 1323.22 2065.84 1318.36 L2065.84 1304.29 L2062.71 1304.29 L2062.71 1300.98 L2065.84 1300.98 L2065.84 1293.61 L2070.12 1293.61 Z" fill="#000000" fill-rule="nonzero" fill-opacity="1" /><path clip-path="url(#clip890)" d="M2106.67 1312.87 L2106.67 1314.96 L2087.09 1314.96 Q2087.37 1319.35 2089.73 1321.67 Q2092.11 1323.96 2096.35 1323.96 Q2098.8 1323.96 2101.09 1323.36 Q2103.41 1322.76 2105.68 1321.55 L2105.68 1325.58 Q2103.38 1326.55 2100.98 1327.06 Q2098.57 1327.57 2096.09 1327.57 Q2089.89 1327.57 2086.26 1323.96 Q2082.64 1320.35 2082.64 1314.19 Q2082.64 1307.83 2086.07 1304.1 Q2089.52 1300.35 2095.35 1300.35 Q2100.58 1300.35 2103.62 1303.73 Q2106.67 1307.09 2106.67 1312.87 M2102.41 1311.62 Q2102.37 1308.13 2100.44 1306.04 Q2098.55 1303.96 2095.4 1303.96 Q2091.83 1303.96 2089.68 1305.98 Q2087.55 1307.99 2087.23 1311.65 L2102.41 1311.62 Z" fill="#000000" fill-rule="nonzero" fill-opacity="1" /><path clip-path="url(#clip890)" d="M2130.19 1301.74 L2130.19 1305.77 Q2128.38 1304.84 2126.44 1304.38 Q2124.5 1303.92 2122.41 1303.92 Q2119.24 1303.92 2117.64 1304.89 Q2116.07 1305.86 2116.07 1307.8 Q2116.07 1309.29 2117.2 1310.14 Q2118.34 1310.98 2121.76 1311.74 L2123.22 1312.06 Q2127.76 1313.04 2129.66 1314.82 Q2131.58 1316.58 2131.58 1319.75 Q2131.58 1323.36 2128.71 1325.47 Q2125.86 1327.57 2120.86 1327.57 Q2118.78 1327.57 2116.51 1327.16 Q2114.26 1326.76 2111.76 1325.95 L2111.76 1321.55 Q2114.13 1322.78 2116.42 1323.41 Q2118.71 1324.01 2120.95 1324.01 Q2123.96 1324.01 2125.58 1322.99 Q2127.2 1321.95 2127.2 1320.07 Q2127.2 1318.34 2126.02 1317.41 Q2124.87 1316.48 2120.91 1315.63 L2119.43 1315.28 Q2115.47 1314.45 2113.71 1312.73 Q2111.95 1311 2111.95 1307.99 Q2111.95 1304.33 2114.54 1302.34 Q2117.13 1300.35 2121.9 1300.35 Q2124.26 1300.35 2126.35 1300.7 Q2128.43 1301.04 2130.19 1301.74 Z" fill="#000000" fill-rule="nonzero" fill-opacity="1" /><circle clip-path="url(#clip890)" cx="1781.4" cy="1361.46" r="20.48" fill="#e26f46" fill-rule="evenodd" fill-opacity="1" stroke="#000000" stroke-opacity="1" stroke-width="4.55111"/>
<path clip-path="url(#clip890)" d="M1889.91 1355.8 Q1886.49 1355.8 1884.5 1358.49 Q1882.51 1361.15 1882.51 1365.8 Q1882.51 1370.45 1884.47 1373.14 Q1886.46 1375.8 1889.91 1375.8 Q1893.32 1375.8 1895.31 1373.12 Q1897.3 1370.43 1897.3 1365.8 Q1897.3 1361.19 1895.31 1358.51 Q1893.32 1355.8 1889.91 1355.8 M1889.91 1352.19 Q1895.47 1352.19 1898.64 1355.8 Q1901.81 1359.41 1901.81 1365.8 Q1901.81 1372.17 1898.64 1375.8 Q1895.47 1379.41 1889.91 1379.41 Q1884.34 1379.41 1881.16 1375.8 Q1878.02 1372.17 1878.02 1365.8 Q1878.02 1359.41 1881.16 1355.8 Q1884.34 1352.19 1889.91 1352.19 Z" fill="#000000" fill-rule="nonzero" fill-opacity="1" /><path clip-path="url(#clip890)" d="M1927.48 1365.8 Q1927.48 1361.1 1925.54 1358.44 Q1923.62 1355.76 1920.24 1355.76 Q1916.86 1355.76 1914.91 1358.44 Q1912.99 1361.1 1912.99 1365.8 Q1912.99 1370.5 1914.91 1373.19 Q1916.86 1375.85 1920.24 1375.85 Q1923.62 1375.85 1925.54 1373.19 Q1927.48 1370.5 1927.48 1365.8 M1912.99 1356.75 Q1914.33 1354.44 1916.37 1353.32 Q1918.43 1352.19 1921.28 1352.19 Q1926 1352.19 1928.94 1355.94 Q1931.9 1359.69 1931.9 1365.8 Q1931.9 1371.91 1928.94 1375.66 Q1926 1379.41 1921.28 1379.41 Q1918.43 1379.41 1916.37 1378.3 Q1914.33 1377.17 1912.99 1374.85 L1912.99 1378.74 L1908.71 1378.74 L1908.71 1342.72 L1912.99 1342.72 L1912.99 1356.75 Z" fill="#000000" fill-rule="nonzero" fill-opacity="1" /><path clip-path="url(#clip890)" d="M1955.49 1353.58 L1955.49 1357.61 Q1953.69 1356.68 1951.74 1356.22 Q1949.8 1355.76 1947.71 1355.76 Q1944.54 1355.76 1942.95 1356.73 Q1941.37 1357.7 1941.37 1359.64 Q1941.37 1361.13 1942.51 1361.98 Q1943.64 1362.82 1947.07 1363.58 L1948.52 1363.9 Q1953.06 1364.88 1954.96 1366.66 Q1956.88 1368.42 1956.88 1371.59 Q1956.88 1375.2 1954.01 1377.31 Q1951.16 1379.41 1946.16 1379.41 Q1944.08 1379.41 1941.81 1379 Q1939.57 1378.6 1937.07 1377.79 L1937.07 1373.39 Q1939.43 1374.62 1941.72 1375.25 Q1944.01 1375.85 1946.26 1375.85 Q1949.27 1375.85 1950.89 1374.83 Q1952.51 1373.79 1952.51 1371.91 Q1952.51 1370.18 1951.33 1369.25 Q1950.17 1368.32 1946.21 1367.47 L1944.73 1367.12 Q1940.77 1366.29 1939.01 1364.57 Q1937.25 1362.84 1937.25 1359.83 Q1937.25 1356.17 1939.84 1354.18 Q1942.44 1352.19 1947.21 1352.19 Q1949.57 1352.19 1951.65 1352.54 Q1953.73 1352.88 1955.49 1353.58 Z" fill="#000000" fill-rule="nonzero" fill-opacity="1" /><path clip-path="url(#clip890)" d="M1985.84 1364.71 L1985.84 1366.8 L1966.26 1366.8 Q1966.53 1371.19 1968.89 1373.51 Q1971.28 1375.8 1975.52 1375.8 Q1977.97 1375.8 1980.26 1375.2 Q1982.58 1374.6 1984.84 1373.39 L1984.84 1377.42 Q1982.55 1378.39 1980.14 1378.9 Q1977.74 1379.41 1975.26 1379.41 Q1969.06 1379.41 1965.42 1375.8 Q1961.81 1372.19 1961.81 1366.03 Q1961.81 1359.67 1965.24 1355.94 Q1968.69 1352.19 1974.52 1352.19 Q1979.75 1352.19 1982.78 1355.57 Q1985.84 1358.93 1985.84 1364.71 M1981.58 1363.46 Q1981.53 1359.97 1979.61 1357.88 Q1977.71 1355.8 1974.57 1355.8 Q1971 1355.8 1968.85 1357.82 Q1966.72 1359.83 1966.39 1363.49 L1981.58 1363.46 Z" fill="#000000" fill-rule="nonzero" fill-opacity="1" /><path clip-path="url(#clip890)" d="M2007.85 1356.8 Q2007.14 1356.38 2006.28 1356.19 Q2005.45 1355.99 2004.43 1355.99 Q2000.82 1355.99 1998.87 1358.35 Q1996.95 1360.69 1996.95 1365.08 L1996.95 1378.74 L1992.67 1378.74 L1992.67 1352.82 L1996.95 1352.82 L1996.95 1356.84 Q1998.29 1354.48 2000.45 1353.35 Q2002.6 1352.19 2005.68 1352.19 Q2006.12 1352.19 2006.65 1352.26 Q2007.18 1352.31 2007.83 1352.42 L2007.85 1356.8 Z" fill="#000000" fill-rule="nonzero" fill-opacity="1" /><path clip-path="url(#clip890)" d="M2009.26 1352.82 L2013.78 1352.82 L2021.88 1374.57 L2029.98 1352.82 L2034.5 1352.82 L2024.77 1378.74 L2018.99 1378.74 L2009.26 1352.82 Z" fill="#000000" fill-rule="nonzero" fill-opacity="1" /><path clip-path="url(#clip890)" d="M2052.16 1365.71 Q2047 1365.71 2045.01 1366.89 Q2043.01 1368.07 2043.01 1370.92 Q2043.01 1373.19 2044.5 1374.53 Q2046 1375.85 2048.57 1375.85 Q2052.11 1375.85 2054.24 1373.35 Q2056.39 1370.82 2056.39 1366.66 L2056.39 1365.71 L2052.16 1365.71 M2060.65 1363.95 L2060.65 1378.74 L2056.39 1378.74 L2056.39 1374.81 Q2054.94 1377.17 2052.76 1378.3 Q2050.58 1379.41 2047.44 1379.41 Q2043.45 1379.41 2041.09 1377.19 Q2038.76 1374.94 2038.76 1371.19 Q2038.76 1366.82 2041.67 1364.6 Q2044.61 1362.38 2050.42 1362.38 L2056.39 1362.38 L2056.39 1361.96 Q2056.39 1359.02 2054.45 1357.42 Q2052.53 1355.8 2049.03 1355.8 Q2046.81 1355.8 2044.7 1356.33 Q2042.6 1356.87 2040.65 1357.93 L2040.65 1354 Q2042.99 1353.09 2045.19 1352.65 Q2047.39 1352.19 2049.47 1352.19 Q2055.1 1352.19 2057.88 1355.11 Q2060.65 1358.02 2060.65 1363.95 Z" fill="#000000" fill-rule="nonzero" fill-opacity="1" /><path clip-path="url(#clip890)" d="M2073.64 1345.45 L2073.64 1352.82 L2082.41 1352.82 L2082.41 1356.13 L2073.64 1356.13 L2073.64 1370.2 Q2073.64 1373.37 2074.5 1374.27 Q2075.38 1375.18 2078.04 1375.18 L2082.41 1375.18 L2082.41 1378.74 L2078.04 1378.74 Q2073.11 1378.74 2071.23 1376.91 Q2069.36 1375.06 2069.36 1370.2 L2069.36 1356.13 L2066.23 1356.13 L2066.23 1352.82 L2069.36 1352.82 L2069.36 1345.45 L2073.64 1345.45 Z" fill="#000000" fill-rule="nonzero" fill-opacity="1" /><path clip-path="url(#clip890)" d="M2088.01 1352.82 L2092.27 1352.82 L2092.27 1378.74 L2088.01 1378.74 L2088.01 1352.82 M2088.01 1342.72 L2092.27 1342.72 L2092.27 1348.12 L2088.01 1348.12 L2088.01 1342.72 Z" fill="#000000" fill-rule="nonzero" fill-opacity="1" /><path clip-path="url(#clip890)" d="M2111.23 1355.8 Q2107.81 1355.8 2105.82 1358.49 Q2103.82 1361.15 2103.82 1365.8 Q2103.82 1370.45 2105.79 1373.14 Q2107.78 1375.8 2111.23 1375.8 Q2114.63 1375.8 2116.63 1373.12 Q2118.62 1370.43 2118.62 1365.8 Q2118.62 1361.19 2116.63 1358.51 Q2114.63 1355.8 2111.23 1355.8 M2111.23 1352.19 Q2116.79 1352.19 2119.96 1355.8 Q2123.13 1359.41 2123.13 1365.8 Q2123.13 1372.17 2119.96 1375.8 Q2116.79 1379.41 2111.23 1379.41 Q2105.65 1379.41 2102.48 1375.8 Q2099.33 1372.17 2099.33 1365.8 Q2099.33 1359.41 2102.48 1355.8 Q2105.65 1352.19 2111.23 1352.19 Z" fill="#000000" fill-rule="nonzero" fill-opacity="1" /><path clip-path="url(#clip890)" d="M2151.74 1363.09 L2151.74 1378.74 L2147.48 1378.74 L2147.48 1363.23 Q2147.48 1359.55 2146.05 1357.72 Q2144.61 1355.89 2141.74 1355.89 Q2138.29 1355.89 2136.3 1358.09 Q2134.31 1360.29 2134.31 1364.09 L2134.31 1378.74 L2130.03 1378.74 L2130.03 1352.82 L2134.31 1352.82 L2134.31 1356.84 Q2135.84 1354.51 2137.9 1353.35 Q2139.98 1352.19 2142.69 1352.19 Q2147.16 1352.19 2149.45 1354.97 Q2151.74 1357.72 2151.74 1363.09 Z" fill="#000000" fill-rule="nonzero" fill-opacity="1" /><path clip-path="url(#clip890)" d="M2176.76 1353.58 L2176.76 1357.61 Q2174.96 1356.68 2173.01 1356.22 Q2171.07 1355.76 2168.99 1355.76 Q2165.82 1355.76 2164.22 1356.73 Q2162.64 1357.7 2162.64 1359.64 Q2162.64 1361.13 2163.78 1361.98 Q2164.91 1362.82 2168.34 1363.58 L2169.8 1363.9 Q2174.33 1364.88 2176.23 1366.66 Q2178.15 1368.42 2178.15 1371.59 Q2178.15 1375.2 2175.28 1377.31 Q2172.44 1379.41 2167.44 1379.41 Q2165.35 1379.41 2163.08 1379 Q2160.84 1378.6 2158.34 1377.79 L2158.34 1373.39 Q2160.7 1374.62 2162.99 1375.25 Q2165.28 1375.85 2167.53 1375.85 Q2170.54 1375.85 2172.16 1374.83 Q2173.78 1373.79 2173.78 1371.91 Q2173.78 1370.18 2172.6 1369.25 Q2171.44 1368.32 2167.48 1367.47 L2166 1367.12 Q2162.04 1366.29 2160.28 1364.57 Q2158.52 1362.84 2158.52 1359.83 Q2158.52 1356.17 2161.12 1354.18 Q2163.71 1352.19 2168.48 1352.19 Q2170.84 1352.19 2172.92 1352.54 Q2175 1352.88 2176.76 1353.58 Z" fill="#000000" fill-rule="nonzero" fill-opacity="1" /><polyline clip-path="url(#clip890)" style="stroke:#3da44d; stroke-linecap:round; stroke-linejoin:round; stroke-width:8; stroke-opacity:1; fill:none" points="1708.94,1413.3 1853.86,1413.3 "/>
<path clip-path="url(#clip890)" d="M1882.3 1426.69 L1882.3 1440.44 L1878.02 1440.44 L1878.02 1404.66 L1882.3 1404.66 L1882.3 1408.59 Q1883.64 1406.28 1885.68 1405.16 Q1887.74 1404.03 1890.59 1404.03 Q1895.31 1404.03 1898.25 1407.78 Q1901.21 1411.53 1901.21 1417.64 Q1901.21 1423.75 1898.25 1427.5 Q1895.31 1431.25 1890.59 1431.25 Q1887.74 1431.25 1885.68 1430.14 Q1883.64 1429.01 1882.3 1426.69 M1896.79 1417.64 Q1896.79 1412.94 1894.84 1410.28 Q1892.92 1407.6 1889.54 1407.6 Q1886.16 1407.6 1884.22 1410.28 Q1882.3 1412.94 1882.3 1417.64 Q1882.3 1422.34 1884.22 1425.03 Q1886.16 1427.69 1889.54 1427.69 Q1892.92 1427.69 1894.84 1425.03 Q1896.79 1422.34 1896.79 1417.64 Z" fill="#000000" fill-rule="nonzero" fill-opacity="1" /><path clip-path="url(#clip890)" d="M1923.29 1408.64 Q1922.58 1408.22 1921.72 1408.03 Q1920.89 1407.83 1919.87 1407.83 Q1916.26 1407.83 1914.31 1410.19 Q1912.39 1412.53 1912.39 1416.92 L1912.39 1430.58 L1908.11 1430.58 L1908.11 1404.66 L1912.39 1404.66 L1912.39 1408.68 Q1913.73 1406.32 1915.89 1405.19 Q1918.04 1404.03 1921.12 1404.03 Q1921.56 1404.03 1922.09 1404.1 Q1922.62 1404.15 1923.27 1404.26 L1923.29 1408.64 Z" fill="#000000" fill-rule="nonzero" fill-opacity="1" /><path clip-path="url(#clip890)" d="M1948.89 1416.55 L1948.89 1418.64 L1929.31 1418.64 Q1929.59 1423.03 1931.95 1425.35 Q1934.33 1427.64 1938.57 1427.64 Q1941.02 1427.64 1943.32 1427.04 Q1945.63 1426.44 1947.9 1425.23 L1947.9 1429.26 Q1945.61 1430.23 1943.2 1430.74 Q1940.79 1431.25 1938.32 1431.25 Q1932.11 1431.25 1928.48 1427.64 Q1924.87 1424.03 1924.87 1417.87 Q1924.87 1411.51 1928.29 1407.78 Q1931.74 1404.03 1937.58 1404.03 Q1942.81 1404.03 1945.84 1407.41 Q1948.89 1410.77 1948.89 1416.55 M1944.64 1415.3 Q1944.59 1411.81 1942.67 1409.72 Q1940.77 1407.64 1937.62 1407.64 Q1934.06 1407.64 1931.9 1409.66 Q1929.77 1411.67 1929.45 1415.33 L1944.64 1415.3 Z" fill="#000000" fill-rule="nonzero" fill-opacity="1" /><path clip-path="url(#clip890)" d="M1972.95 1408.59 L1972.95 1394.56 L1977.2 1394.56 L1977.2 1430.58 L1972.95 1430.58 L1972.95 1426.69 Q1971.6 1429.01 1969.54 1430.14 Q1967.51 1431.25 1964.64 1431.25 Q1959.94 1431.25 1956.97 1427.5 Q1954.03 1423.75 1954.03 1417.64 Q1954.03 1411.53 1956.97 1407.78 Q1959.94 1404.03 1964.64 1404.03 Q1967.51 1404.03 1969.54 1405.16 Q1971.6 1406.28 1972.95 1408.59 M1958.43 1417.64 Q1958.43 1422.34 1960.35 1425.03 Q1962.3 1427.69 1965.68 1427.69 Q1969.06 1427.69 1971 1425.03 Q1972.95 1422.34 1972.95 1417.64 Q1972.95 1412.94 1971 1410.28 Q1969.06 1407.6 1965.68 1407.6 Q1962.3 1407.6 1960.35 1410.28 Q1958.43 1412.94 1958.43 1417.64 Z" fill="#000000" fill-rule="nonzero" fill-opacity="1" /><path clip-path="url(#clip890)" d="M1985.98 1404.66 L1990.24 1404.66 L1990.24 1430.58 L1985.98 1430.58 L1985.98 1404.66 M1985.98 1394.56 L1990.24 1394.56 L1990.24 1399.96 L1985.98 1399.96 L1985.98 1394.56 Z" fill="#000000" fill-rule="nonzero" fill-opacity="1" /><path clip-path="url(#clip890)" d="M2017.81 1405.65 L2017.81 1409.63 Q2016 1408.64 2014.17 1408.15 Q2012.37 1407.64 2010.51 1407.64 Q2006.37 1407.64 2004.08 1410.28 Q2001.79 1412.9 2001.79 1417.64 Q2001.79 1422.39 2004.08 1425.03 Q2006.37 1427.64 2010.51 1427.64 Q2012.37 1427.64 2014.17 1427.16 Q2016 1426.65 2017.81 1425.65 L2017.81 1429.59 Q2016.02 1430.42 2014.1 1430.84 Q2012.2 1431.25 2010.05 1431.25 Q2004.2 1431.25 2000.75 1427.57 Q1997.3 1423.89 1997.3 1417.64 Q1997.3 1411.3 2000.77 1407.66 Q2004.26 1404.03 2010.33 1404.03 Q2012.3 1404.03 2014.17 1404.45 Q2016.05 1404.84 2017.81 1405.65 Z" fill="#000000" fill-rule="nonzero" fill-opacity="1" /><path clip-path="url(#clip890)" d="M2029.43 1397.29 L2029.43 1404.66 L2038.2 1404.66 L2038.2 1407.97 L2029.43 1407.97 L2029.43 1422.04 Q2029.43 1425.21 2030.28 1426.11 Q2031.16 1427.02 2033.82 1427.02 L2038.2 1427.02 L2038.2 1430.58 L2033.82 1430.58 Q2028.89 1430.58 2027.02 1428.75 Q2025.14 1426.9 2025.14 1422.04 L2025.14 1407.97 L2022.02 1407.97 L2022.02 1404.66 L2025.14 1404.66 L2025.14 1397.29 L2029.43 1397.29 Z" fill="#000000" fill-rule="nonzero" fill-opacity="1" /><path clip-path="url(#clip890)" d="M2065.98 1416.55 L2065.98 1418.64 L2046.39 1418.64 Q2046.67 1423.03 2049.03 1425.35 Q2051.42 1427.64 2055.65 1427.64 Q2058.11 1427.64 2060.4 1427.04 Q2062.71 1426.44 2064.98 1425.23 L2064.98 1429.26 Q2062.69 1430.23 2060.28 1430.74 Q2057.88 1431.25 2055.4 1431.25 Q2049.2 1431.25 2045.56 1427.64 Q2041.95 1424.03 2041.95 1417.87 Q2041.95 1411.51 2045.38 1407.78 Q2048.82 1404.03 2054.66 1404.03 Q2059.89 1404.03 2062.92 1407.41 Q2065.98 1410.77 2065.98 1416.55 M2061.72 1415.3 Q2061.67 1411.81 2059.75 1409.72 Q2057.85 1407.64 2054.7 1407.64 Q2051.14 1407.64 2048.99 1409.66 Q2046.86 1411.67 2046.53 1415.33 L2061.72 1415.3 Z" fill="#000000" fill-rule="nonzero" fill-opacity="1" /><path clip-path="url(#clip890)" d="M2090.03 1408.59 L2090.03 1394.56 L2094.29 1394.56 L2094.29 1430.58 L2090.03 1430.58 L2090.03 1426.69 Q2088.69 1429.01 2086.63 1430.14 Q2084.59 1431.25 2081.72 1431.25 Q2077.02 1431.25 2074.06 1427.5 Q2071.12 1423.75 2071.12 1417.64 Q2071.12 1411.53 2074.06 1407.78 Q2077.02 1404.03 2081.72 1404.03 Q2084.59 1404.03 2086.63 1405.16 Q2088.69 1406.28 2090.03 1408.59 M2075.51 1417.64 Q2075.51 1422.34 2077.44 1425.03 Q2079.38 1427.69 2082.76 1427.69 Q2086.14 1427.69 2088.08 1425.03 Q2090.03 1422.34 2090.03 1417.64 Q2090.03 1412.94 2088.08 1410.28 Q2086.14 1407.6 2082.76 1407.6 Q2079.38 1407.6 2077.44 1410.28 Q2075.51 1412.94 2075.51 1417.64 Z" fill="#000000" fill-rule="nonzero" fill-opacity="1" /><path clip-path="url(#clip890)" d="M2134.66 1405.42 L2134.66 1409.45 Q2132.85 1408.52 2130.91 1408.06 Q2128.96 1407.6 2126.88 1407.6 Q2123.71 1407.6 2122.11 1408.57 Q2120.54 1409.54 2120.54 1411.48 Q2120.54 1412.97 2121.67 1413.82 Q2122.81 1414.66 2126.23 1415.42 L2127.69 1415.74 Q2132.23 1416.72 2134.13 1418.5 Q2136.05 1420.26 2136.05 1423.43 Q2136.05 1427.04 2133.18 1429.15 Q2130.33 1431.25 2125.33 1431.25 Q2123.25 1431.25 2120.98 1430.84 Q2118.73 1430.44 2116.23 1429.63 L2116.23 1425.23 Q2118.59 1426.46 2120.88 1427.09 Q2123.18 1427.69 2125.42 1427.69 Q2128.43 1427.69 2130.05 1426.67 Q2131.67 1425.63 2131.67 1423.75 Q2131.67 1422.02 2130.49 1421.09 Q2129.33 1420.16 2125.38 1419.31 L2123.89 1418.96 Q2119.94 1418.13 2118.18 1416.41 Q2116.42 1414.68 2116.42 1411.67 Q2116.42 1408.01 2119.01 1406.02 Q2121.6 1404.03 2126.37 1404.03 Q2128.73 1404.03 2130.82 1404.38 Q2132.9 1404.72 2134.66 1405.42 Z" fill="#000000" fill-rule="nonzero" fill-opacity="1" /><path clip-path="url(#clip890)" d="M2147.04 1397.29 L2147.04 1404.66 L2155.82 1404.66 L2155.82 1407.97 L2147.04 1407.97 L2147.04 1422.04 Q2147.04 1425.21 2147.9 1426.11 Q2148.78 1427.02 2151.44 1427.02 L2155.82 1427.02 L2155.82 1430.58 L2151.44 1430.58 Q2146.51 1430.58 2144.63 1428.75 Q2142.76 1426.9 2142.76 1422.04 L2142.76 1407.97 L2139.63 1407.97 L2139.63 1404.66 L2142.76 1404.66 L2142.76 1397.29 L2147.04 1397.29 Z" fill="#000000" fill-rule="nonzero" fill-opacity="1" /><path clip-path="url(#clip890)" d="M2173.2 1417.55 Q2168.04 1417.55 2166.05 1418.73 Q2164.06 1419.91 2164.06 1422.76 Q2164.06 1425.03 2165.54 1426.37 Q2167.04 1427.69 2169.61 1427.69 Q2173.15 1427.69 2175.28 1425.19 Q2177.44 1422.66 2177.44 1418.5 L2177.44 1417.55 L2173.2 1417.55 M2181.69 1415.79 L2181.69 1430.58 L2177.44 1430.58 L2177.44 1426.65 Q2175.98 1429.01 2173.8 1430.14 Q2171.63 1431.25 2168.48 1431.25 Q2164.5 1431.25 2162.13 1429.03 Q2159.8 1426.78 2159.8 1423.03 Q2159.8 1418.66 2162.71 1416.44 Q2165.65 1414.22 2171.46 1414.22 L2177.44 1414.22 L2177.44 1413.8 Q2177.44 1410.86 2175.49 1409.26 Q2173.57 1407.64 2170.07 1407.64 Q2167.85 1407.64 2165.75 1408.17 Q2163.64 1408.71 2161.69 1409.77 L2161.69 1405.84 Q2164.03 1404.93 2166.23 1404.49 Q2168.43 1404.03 2170.51 1404.03 Q2176.14 1404.03 2178.92 1406.95 Q2181.69 1409.86 2181.69 1415.79 Z" fill="#000000" fill-rule="nonzero" fill-opacity="1" /><path clip-path="url(#clip890)" d="M2194.68 1397.29 L2194.68 1404.66 L2203.45 1404.66 L2203.45 1407.97 L2194.68 1407.97 L2194.68 1422.04 Q2194.68 1425.21 2195.54 1426.11 Q2196.42 1427.02 2199.08 1427.02 L2203.45 1427.02 L2203.45 1430.58 L2199.08 1430.58 Q2194.15 1430.58 2192.27 1428.75 Q2190.4 1426.9 2190.4 1422.04 L2190.4 1407.97 L2187.27 1407.97 L2187.27 1404.66 L2190.4 1404.66 L2190.4 1397.29 L2194.68 1397.29 Z" fill="#000000" fill-rule="nonzero" fill-opacity="1" /><path clip-path="url(#clip890)" d="M2231.23 1416.55 L2231.23 1418.64 L2211.65 1418.64 Q2211.93 1423.03 2214.29 1425.35 Q2216.67 1427.64 2220.91 1427.64 Q2223.36 1427.64 2225.65 1427.04 Q2227.97 1426.44 2230.24 1425.23 L2230.24 1429.26 Q2227.94 1430.23 2225.54 1430.74 Q2223.13 1431.25 2220.65 1431.25 Q2214.45 1431.25 2210.81 1427.64 Q2207.2 1424.03 2207.2 1417.87 Q2207.2 1411.51 2210.63 1407.78 Q2214.08 1404.03 2219.91 1404.03 Q2225.14 1404.03 2228.18 1407.41 Q2231.23 1410.77 2231.23 1416.55 M2226.97 1415.3 Q2226.93 1411.81 2225 1409.72 Q2223.11 1407.64 2219.96 1407.64 Q2216.39 1407.64 2214.24 1409.66 Q2212.11 1411.67 2211.79 1415.33 L2226.97 1415.3 Z" fill="#000000" fill-rule="nonzero" fill-opacity="1" /><path clip-path="url(#clip890)" d="M2254.75 1405.42 L2254.75 1409.45 Q2252.94 1408.52 2251 1408.06 Q2249.06 1407.6 2246.97 1407.6 Q2243.8 1407.6 2242.2 1408.57 Q2240.63 1409.54 2240.63 1411.48 Q2240.63 1412.97 2241.76 1413.82 Q2242.9 1414.66 2246.32 1415.42 L2247.78 1415.74 Q2252.32 1416.72 2254.22 1418.5 Q2256.14 1420.26 2256.14 1423.43 Q2256.14 1427.04 2253.27 1429.15 Q2250.42 1431.25 2245.42 1431.25 Q2243.34 1431.25 2241.07 1430.84 Q2238.82 1430.44 2236.32 1429.63 L2236.32 1425.23 Q2238.68 1426.46 2240.98 1427.09 Q2243.27 1427.69 2245.51 1427.69 Q2248.52 1427.69 2250.14 1426.67 Q2251.76 1425.63 2251.76 1423.75 Q2251.76 1422.02 2250.58 1421.09 Q2249.43 1420.16 2245.47 1419.31 L2243.99 1418.96 Q2240.03 1418.13 2238.27 1416.41 Q2236.51 1414.68 2236.51 1411.67 Q2236.51 1408.01 2239.1 1406.02 Q2241.69 1404.03 2246.46 1404.03 Q2248.82 1404.03 2250.91 1404.38 Q2252.99 1404.72 2254.75 1405.42 Z" fill="#000000" fill-rule="nonzero" fill-opacity="1" /></svg>
